<?xml version="1.0" encoding="utf-8" standalone="no"?>
<!DOCTYPE svg PUBLIC "-//W3C//DTD SVG 1.1//EN"
  "http://www.w3.org/Graphics/SVG/1.1/DTD/svg11.dtd">
<svg xmlns:xlink="http://www.w3.org/1999/xlink" width="460.8pt" height="345.6pt" viewBox="0 0 460.8 345.6" xmlns="http://www.w3.org/2000/svg" version="1.1">
 <metadata>
  <rdf:RDF xmlns:dc="http://purl.org/dc/elements/1.1/" xmlns:cc="http://creativecommons.org/ns#" xmlns:rdf="http://www.w3.org/1999/02/22-rdf-syntax-ns#">
   <cc:Work>
    <dc:type rdf:resource="http://purl.org/dc/dcmitype/StillImage"/>
    <dc:date>2024-09-27T20:22:54.544557</dc:date>
    <dc:format>image/svg+xml</dc:format>
    <dc:creator>
     <cc:Agent>
      <dc:title>Matplotlib v3.9.0, https://matplotlib.org/</dc:title>
     </cc:Agent>
    </dc:creator>
   </cc:Work>
  </rdf:RDF>
 </metadata>
 <defs>
  <style type="text/css">*{stroke-linejoin: round; stroke-linecap: butt}</style>
 </defs>
 <g id="figure_1">
  <g id="patch_1">
   <path d="M 0 345.6 
L 460.8 345.6 
L 460.8 0 
L 0 0 
z
" style="fill: #ffffff"/>
  </g>
  <g id="axes_1">
   <g id="patch_2">
    <path d="M 103.104 307.584 
L 369.216 307.584 
L 369.216 41.472 
L 103.104 41.472 
z
" style="fill: #ffffff"/>
   </g>
   <g id="matplotlib.axis_1">
    <g id="xtick_1">
     <g id="line2d_1">
      <defs>
       <path id="m674d7407f4" d="M 0 0 
L 0 3.5 
" style="stroke: #000000; stroke-width: 0.8"/>
      </defs>
      <g>
       <use xlink:href="#m674d7407f4" x="103.104" y="307.584" style="stroke: #000000; stroke-width: 0.8"/>
      </g>
     </g>
     <g id="text_1">
      <!-- −4 -->
      <g transform="translate(95.732906 322.182437) scale(0.1 -0.1)">
       <defs>
        <path id="DejaVuSans-2212" d="M 678 2272 
L 4684 2272 
L 4684 1741 
L 678 1741 
L 678 2272 
z
" transform="scale(0.015625)"/>
        <path id="DejaVuSans-34" d="M 2419 4116 
L 825 1625 
L 2419 1625 
L 2419 4116 
z
M 2253 4666 
L 3047 4666 
L 3047 1625 
L 3713 1625 
L 3713 1100 
L 3047 1100 
L 3047 0 
L 2419 0 
L 2419 1100 
L 313 1100 
L 313 1709 
L 2253 4666 
z
" transform="scale(0.015625)"/>
       </defs>
       <use xlink:href="#DejaVuSans-2212"/>
       <use xlink:href="#DejaVuSans-34" x="83.789062"/>
      </g>
     </g>
    </g>
    <g id="xtick_2">
     <g id="line2d_2">
      <g>
       <use xlink:href="#m674d7407f4" x="136.368" y="307.584" style="stroke: #000000; stroke-width: 0.8"/>
      </g>
     </g>
     <g id="text_2">
      <!-- −3 -->
      <g transform="translate(128.996906 322.182437) scale(0.1 -0.1)">
       <defs>
        <path id="DejaVuSans-33" d="M 2597 2516 
Q 3050 2419 3304 2112 
Q 3559 1806 3559 1356 
Q 3559 666 3084 287 
Q 2609 -91 1734 -91 
Q 1441 -91 1130 -33 
Q 819 25 488 141 
L 488 750 
Q 750 597 1062 519 
Q 1375 441 1716 441 
Q 2309 441 2620 675 
Q 2931 909 2931 1356 
Q 2931 1769 2642 2001 
Q 2353 2234 1838 2234 
L 1294 2234 
L 1294 2753 
L 1863 2753 
Q 2328 2753 2575 2939 
Q 2822 3125 2822 3475 
Q 2822 3834 2567 4026 
Q 2313 4219 1838 4219 
Q 1578 4219 1281 4162 
Q 984 4106 628 3988 
L 628 4550 
Q 988 4650 1302 4700 
Q 1616 4750 1894 4750 
Q 2613 4750 3031 4423 
Q 3450 4097 3450 3541 
Q 3450 3153 3228 2886 
Q 3006 2619 2597 2516 
z
" transform="scale(0.015625)"/>
       </defs>
       <use xlink:href="#DejaVuSans-2212"/>
       <use xlink:href="#DejaVuSans-33" x="83.789062"/>
      </g>
     </g>
    </g>
    <g id="xtick_3">
     <g id="line2d_3">
      <g>
       <use xlink:href="#m674d7407f4" x="169.632" y="307.584" style="stroke: #000000; stroke-width: 0.8"/>
      </g>
     </g>
     <g id="text_3">
      <!-- −2 -->
      <g transform="translate(162.260906 322.182437) scale(0.1 -0.1)">
       <defs>
        <path id="DejaVuSans-32" d="M 1228 531 
L 3431 531 
L 3431 0 
L 469 0 
L 469 531 
Q 828 903 1448 1529 
Q 2069 2156 2228 2338 
Q 2531 2678 2651 2914 
Q 2772 3150 2772 3378 
Q 2772 3750 2511 3984 
Q 2250 4219 1831 4219 
Q 1534 4219 1204 4116 
Q 875 4013 500 3803 
L 500 4441 
Q 881 4594 1212 4672 
Q 1544 4750 1819 4750 
Q 2544 4750 2975 4387 
Q 3406 4025 3406 3419 
Q 3406 3131 3298 2873 
Q 3191 2616 2906 2266 
Q 2828 2175 2409 1742 
Q 1991 1309 1228 531 
z
" transform="scale(0.015625)"/>
       </defs>
       <use xlink:href="#DejaVuSans-2212"/>
       <use xlink:href="#DejaVuSans-32" x="83.789062"/>
      </g>
     </g>
    </g>
    <g id="xtick_4">
     <g id="line2d_4">
      <g>
       <use xlink:href="#m674d7407f4" x="202.896" y="307.584" style="stroke: #000000; stroke-width: 0.8"/>
      </g>
     </g>
     <g id="text_4">
      <!-- −1 -->
      <g transform="translate(195.524906 322.182437) scale(0.1 -0.1)">
       <defs>
        <path id="DejaVuSans-31" d="M 794 531 
L 1825 531 
L 1825 4091 
L 703 3866 
L 703 4441 
L 1819 4666 
L 2450 4666 
L 2450 531 
L 3481 531 
L 3481 0 
L 794 0 
L 794 531 
z
" transform="scale(0.015625)"/>
       </defs>
       <use xlink:href="#DejaVuSans-2212"/>
       <use xlink:href="#DejaVuSans-31" x="83.789062"/>
      </g>
     </g>
    </g>
    <g id="xtick_5">
     <g id="line2d_5">
      <g>
       <use xlink:href="#m674d7407f4" x="236.16" y="307.584" style="stroke: #000000; stroke-width: 0.8"/>
      </g>
     </g>
     <g id="text_5">
      <!-- 0 -->
      <g transform="translate(232.97875 322.182437) scale(0.1 -0.1)">
       <defs>
        <path id="DejaVuSans-30" d="M 2034 4250 
Q 1547 4250 1301 3770 
Q 1056 3291 1056 2328 
Q 1056 1369 1301 889 
Q 1547 409 2034 409 
Q 2525 409 2770 889 
Q 3016 1369 3016 2328 
Q 3016 3291 2770 3770 
Q 2525 4250 2034 4250 
z
M 2034 4750 
Q 2819 4750 3233 4129 
Q 3647 3509 3647 2328 
Q 3647 1150 3233 529 
Q 2819 -91 2034 -91 
Q 1250 -91 836 529 
Q 422 1150 422 2328 
Q 422 3509 836 4129 
Q 1250 4750 2034 4750 
z
" transform="scale(0.015625)"/>
       </defs>
       <use xlink:href="#DejaVuSans-30"/>
      </g>
     </g>
    </g>
    <g id="xtick_6">
     <g id="line2d_6">
      <g>
       <use xlink:href="#m674d7407f4" x="269.424" y="307.584" style="stroke: #000000; stroke-width: 0.8"/>
      </g>
     </g>
     <g id="text_6">
      <!-- 1 -->
      <g transform="translate(266.24275 322.182437) scale(0.1 -0.1)">
       <use xlink:href="#DejaVuSans-31"/>
      </g>
     </g>
    </g>
    <g id="xtick_7">
     <g id="line2d_7">
      <g>
       <use xlink:href="#m674d7407f4" x="302.688" y="307.584" style="stroke: #000000; stroke-width: 0.8"/>
      </g>
     </g>
     <g id="text_7">
      <!-- 2 -->
      <g transform="translate(299.50675 322.182437) scale(0.1 -0.1)">
       <use xlink:href="#DejaVuSans-32"/>
      </g>
     </g>
    </g>
    <g id="xtick_8">
     <g id="line2d_8">
      <g>
       <use xlink:href="#m674d7407f4" x="335.952" y="307.584" style="stroke: #000000; stroke-width: 0.8"/>
      </g>
     </g>
     <g id="text_8">
      <!-- 3 -->
      <g transform="translate(332.77075 322.182437) scale(0.1 -0.1)">
       <use xlink:href="#DejaVuSans-33"/>
      </g>
     </g>
    </g>
    <g id="xtick_9">
     <g id="line2d_9">
      <g>
       <use xlink:href="#m674d7407f4" x="369.216" y="307.584" style="stroke: #000000; stroke-width: 0.8"/>
      </g>
     </g>
     <g id="text_9">
      <!-- 4 -->
      <g transform="translate(366.03475 322.182437) scale(0.1 -0.1)">
       <use xlink:href="#DejaVuSans-34"/>
      </g>
     </g>
    </g>
   </g>
   <g id="matplotlib.axis_2">
    <g id="ytick_1">
     <g id="line2d_10">
      <defs>
       <path id="m02a914984d" d="M 0 0 
L -3.5 0 
" style="stroke: #000000; stroke-width: 0.8"/>
      </defs>
      <g>
       <use xlink:href="#m02a914984d" x="103.104" y="307.584" style="stroke: #000000; stroke-width: 0.8"/>
      </g>
     </g>
     <g id="text_10">
      <!-- −1 -->
      <g transform="translate(81.361813 311.383219) scale(0.1 -0.1)">
       <use xlink:href="#DejaVuSans-2212"/>
       <use xlink:href="#DejaVuSans-31" x="83.789062"/>
      </g>
     </g>
    </g>
    <g id="ytick_2">
     <g id="line2d_11">
      <g>
       <use xlink:href="#m02a914984d" x="103.104" y="274.32" style="stroke: #000000; stroke-width: 0.8"/>
      </g>
     </g>
     <g id="text_11">
      <!-- 0 -->
      <g transform="translate(89.7415 278.119219) scale(0.1 -0.1)">
       <use xlink:href="#DejaVuSans-30"/>
      </g>
     </g>
    </g>
    <g id="ytick_3">
     <g id="line2d_12">
      <g>
       <use xlink:href="#m02a914984d" x="103.104" y="241.056" style="stroke: #000000; stroke-width: 0.8"/>
      </g>
     </g>
     <g id="text_12">
      <!-- 1 -->
      <g transform="translate(89.7415 244.855219) scale(0.1 -0.1)">
       <use xlink:href="#DejaVuSans-31"/>
      </g>
     </g>
    </g>
    <g id="ytick_4">
     <g id="line2d_13">
      <g>
       <use xlink:href="#m02a914984d" x="103.104" y="207.792" style="stroke: #000000; stroke-width: 0.8"/>
      </g>
     </g>
     <g id="text_13">
      <!-- 2 -->
      <g transform="translate(89.7415 211.591219) scale(0.1 -0.1)">
       <use xlink:href="#DejaVuSans-32"/>
      </g>
     </g>
    </g>
    <g id="ytick_5">
     <g id="line2d_14">
      <g>
       <use xlink:href="#m02a914984d" x="103.104" y="174.528" style="stroke: #000000; stroke-width: 0.8"/>
      </g>
     </g>
     <g id="text_14">
      <!-- 3 -->
      <g transform="translate(89.7415 178.327219) scale(0.1 -0.1)">
       <use xlink:href="#DejaVuSans-33"/>
      </g>
     </g>
    </g>
    <g id="ytick_6">
     <g id="line2d_15">
      <g>
       <use xlink:href="#m02a914984d" x="103.104" y="141.264" style="stroke: #000000; stroke-width: 0.8"/>
      </g>
     </g>
     <g id="text_15">
      <!-- 4 -->
      <g transform="translate(89.7415 145.063219) scale(0.1 -0.1)">
       <use xlink:href="#DejaVuSans-34"/>
      </g>
     </g>
    </g>
    <g id="ytick_7">
     <g id="line2d_16">
      <g>
       <use xlink:href="#m02a914984d" x="103.104" y="108" style="stroke: #000000; stroke-width: 0.8"/>
      </g>
     </g>
     <g id="text_16">
      <!-- 5 -->
      <g transform="translate(89.7415 111.799219) scale(0.1 -0.1)">
       <defs>
        <path id="DejaVuSans-35" d="M 691 4666 
L 3169 4666 
L 3169 4134 
L 1269 4134 
L 1269 2991 
Q 1406 3038 1543 3061 
Q 1681 3084 1819 3084 
Q 2600 3084 3056 2656 
Q 3513 2228 3513 1497 
Q 3513 744 3044 326 
Q 2575 -91 1722 -91 
Q 1428 -91 1123 -41 
Q 819 9 494 109 
L 494 744 
Q 775 591 1075 516 
Q 1375 441 1709 441 
Q 2250 441 2565 725 
Q 2881 1009 2881 1497 
Q 2881 1984 2565 2268 
Q 2250 2553 1709 2553 
Q 1456 2553 1204 2497 
Q 953 2441 691 2322 
L 691 4666 
z
" transform="scale(0.015625)"/>
       </defs>
       <use xlink:href="#DejaVuSans-35"/>
      </g>
     </g>
    </g>
    <g id="ytick_8">
     <g id="line2d_17">
      <g>
       <use xlink:href="#m02a914984d" x="103.104" y="74.736" style="stroke: #000000; stroke-width: 0.8"/>
      </g>
     </g>
     <g id="text_17">
      <!-- 6 -->
      <g transform="translate(89.7415 78.535219) scale(0.1 -0.1)">
       <defs>
        <path id="DejaVuSans-36" d="M 2113 2584 
Q 1688 2584 1439 2293 
Q 1191 2003 1191 1497 
Q 1191 994 1439 701 
Q 1688 409 2113 409 
Q 2538 409 2786 701 
Q 3034 994 3034 1497 
Q 3034 2003 2786 2293 
Q 2538 2584 2113 2584 
z
M 3366 4563 
L 3366 3988 
Q 3128 4100 2886 4159 
Q 2644 4219 2406 4219 
Q 1781 4219 1451 3797 
Q 1122 3375 1075 2522 
Q 1259 2794 1537 2939 
Q 1816 3084 2150 3084 
Q 2853 3084 3261 2657 
Q 3669 2231 3669 1497 
Q 3669 778 3244 343 
Q 2819 -91 2113 -91 
Q 1303 -91 875 529 
Q 447 1150 447 2328 
Q 447 3434 972 4092 
Q 1497 4750 2381 4750 
Q 2619 4750 2861 4703 
Q 3103 4656 3366 4563 
z
" transform="scale(0.015625)"/>
       </defs>
       <use xlink:href="#DejaVuSans-36"/>
      </g>
     </g>
    </g>
    <g id="ytick_9">
     <g id="line2d_18">
      <g>
       <use xlink:href="#m02a914984d" x="103.104" y="41.472" style="stroke: #000000; stroke-width: 0.8"/>
      </g>
     </g>
     <g id="text_18">
      <!-- 7 -->
      <g transform="translate(89.7415 45.271219) scale(0.1 -0.1)">
       <defs>
        <path id="DejaVuSans-37" d="M 525 4666 
L 3525 4666 
L 3525 4397 
L 1831 0 
L 1172 0 
L 2766 4134 
L 525 4134 
L 525 4666 
z
" transform="scale(0.015625)"/>
       </defs>
       <use xlink:href="#DejaVuSans-37"/>
      </g>
     </g>
    </g>
   </g>
   <g id="line2d_19">
    <path d="M 103.104 291.464605 
L 109.42416 290.267724 
L 115.74432 288.85022 
L 122.06448 287.212085 
L 128.71728 285.253752 
L 135.37008 283.065884 
L 142.68816 280.415538 
L 150.67152 277.27341 
L 159.98544 273.358352 
L 189.92304 260.569149 
L 196.90848 257.953123 
L 202.896 255.941898 
L 208.55088 254.27897 
L 213.87312 252.953297 
L 218.86272 251.942499 
L 223.51968 251.215985 
L 228.17664 250.709145 
L 232.8336 250.428979 
L 237.49056 250.379374 
L 242.14752 250.561019 
L 246.80448 250.971391 
L 251.46144 251.604811 
L 256.1184 252.452559 
L 261.108 253.585504 
L 266.43024 255.030673 
L 272.08512 256.80632 
L 278.07264 258.918934 
L 285.05808 261.627909 
L 293.70672 265.24014 
L 326.63808 279.265134 
L 334.2888 282.130181 
L 341.27424 284.513361 
L 347.92704 286.553579 
L 354.57984 288.356652 
L 360.9 289.843992 
L 367.22016 291.110351 
L 368.88336 291.407075 
L 368.88336 291.407075 
" clip-path="url(#p4c691240b3)" style="fill: none; stroke: #1f77b4; stroke-width: 1.5; stroke-linecap: square"/>
   </g>
   <g id="line2d_20">
    <path d="M 99.55584 41.472 
L 99.55584 292.040804 
" clip-path="url(#p4c691240b3)" style="fill: none; stroke: #ff7f0e; stroke-width: 0.5; stroke-linecap: square"/>
   </g>
   <g id="line2d_21">
    <path d="M 99.55584 292.040804 
L 21.160829 41.472 
" clip-path="url(#p4c691240b3)" style="fill: none; stroke: #2ca02c; stroke-width: 0.5; stroke-linecap: square"/>
   </g>
   <g id="line2d_22">
    <path d="M 103.104 41.472 
L 103.104 291.464605 
" clip-path="url(#p4c691240b3)" style="fill: none; stroke: #d62728; stroke-width: 0.5; stroke-linecap: square"/>
   </g>
   <g id="line2d_23">
    <path d="M 103.104 291.464605 
L 14.462514 41.472 
" clip-path="url(#p4c691240b3)" style="fill: none; stroke: #9467bd; stroke-width: 0.5; stroke-linecap: square"/>
   </g>
   <g id="line2d_24">
    <path d="M 106.65216 41.472 
L 106.65216 290.81972 
" clip-path="url(#p4c691240b3)" style="fill: none; stroke: #8c564b; stroke-width: 0.5; stroke-linecap: square"/>
   </g>
   <g id="line2d_25">
    <path d="M 106.65216 290.81972 
L 7.521398 41.472 
" clip-path="url(#p4c691240b3)" style="fill: none; stroke: #e377c2; stroke-width: 0.5; stroke-linecap: square"/>
   </g>
   <g id="line2d_26">
    <path d="M 110.20032 41.472 
L 110.20032 290.105559 
" clip-path="url(#p4c691240b3)" style="fill: none; stroke: #7f7f7f; stroke-width: 0.5; stroke-linecap: square"/>
   </g>
   <g id="line2d_27">
    <path d="M 110.20032 290.105559 
L 0.342876 41.472 
" clip-path="url(#p4c691240b3)" style="fill: none; stroke: #bcbd22; stroke-width: 0.5; stroke-linecap: square"/>
   </g>
   <g id="line2d_28">
    <path d="M 113.74848 41.472 
L 113.74848 289.321755 
" clip-path="url(#p4c691240b3)" style="fill: none; stroke: #17becf; stroke-width: 0.5; stroke-linecap: square"/>
   </g>
   <g id="line2d_29">
    <path d="M 113.74848 289.321755 
L -1 53.89889 
" clip-path="url(#p4c691240b3)" style="fill: none; stroke: #1f77b4; stroke-width: 0.5; stroke-linecap: square"/>
   </g>
   <g id="line2d_30">
    <path d="M 117.29664 41.472 
L 117.29664 288.468235 
" clip-path="url(#p4c691240b3)" style="fill: none; stroke: #ff7f0e; stroke-width: 0.5; stroke-linecap: square"/>
   </g>
   <g id="line2d_31">
    <path d="M 117.29664 288.468235 
L -1 67.02396 
" clip-path="url(#p4c691240b3)" style="fill: none; stroke: #2ca02c; stroke-width: 0.5; stroke-linecap: square"/>
   </g>
   <g id="line2d_32">
    <path d="M 120.8448 41.472 
L 120.8448 287.545277 
" clip-path="url(#p4c691240b3)" style="fill: none; stroke: #d62728; stroke-width: 0.5; stroke-linecap: square"/>
   </g>
   <g id="line2d_33">
    <path d="M 120.8448 287.545277 
L -1 78.224077 
" clip-path="url(#p4c691240b3)" style="fill: none; stroke: #9467bd; stroke-width: 0.5; stroke-linecap: square"/>
   </g>
   <g id="line2d_34">
    <path d="M 124.39296 41.472 
L 124.39296 286.553579 
" clip-path="url(#p4c691240b3)" style="fill: none; stroke: #8c564b; stroke-width: 0.5; stroke-linecap: square"/>
   </g>
   <g id="line2d_35">
    <path d="M 124.39296 286.553579 
L -1 87.798925 
" clip-path="url(#p4c691240b3)" style="fill: none; stroke: #e377c2; stroke-width: 0.5; stroke-linecap: square"/>
   </g>
   <g id="line2d_36">
    <path d="M 127.94112 41.472 
L 127.94112 285.494315 
" clip-path="url(#p4c691240b3)" style="fill: none; stroke: #7f7f7f; stroke-width: 0.5; stroke-linecap: square"/>
   </g>
   <g id="line2d_37">
    <path d="M 127.94112 285.494315 
L -1 95.966525 
" clip-path="url(#p4c691240b3)" style="fill: none; stroke: #bcbd22; stroke-width: 0.5; stroke-linecap: square"/>
   </g>
   <g id="line2d_38">
    <path d="M 131.48928 41.472 
L 131.48928 284.369191 
" clip-path="url(#p4c691240b3)" style="fill: none; stroke: #17becf; stroke-width: 0.5; stroke-linecap: square"/>
   </g>
   <g id="line2d_39">
    <path d="M 131.48928 284.369191 
L -1 102.885767 
" clip-path="url(#p4c691240b3)" style="fill: none; stroke: #1f77b4; stroke-width: 0.5; stroke-linecap: square"/>
   </g>
   <g id="line2d_40">
    <path d="M 135.03744 41.472 
L 135.03744 283.180486 
" clip-path="url(#p4c691240b3)" style="fill: none; stroke: #ff7f0e; stroke-width: 0.5; stroke-linecap: square"/>
   </g>
   <g id="line2d_41">
    <path d="M 135.03744 283.180486 
L -1 108.671352 
" clip-path="url(#p4c691240b3)" style="fill: none; stroke: #2ca02c; stroke-width: 0.5; stroke-linecap: square"/>
   </g>
   <g id="line2d_42">
    <path d="M 138.5856 41.472 
L 138.5856 281.9311 
" clip-path="url(#p4c691240b3)" style="fill: none; stroke: #d62728; stroke-width: 0.5; stroke-linecap: square"/>
   </g>
   <g id="line2d_43">
    <path d="M 138.5856 281.9311 
L -1 113.403861 
" clip-path="url(#p4c691240b3)" style="fill: none; stroke: #9467bd; stroke-width: 0.5; stroke-linecap: square"/>
   </g>
   <g id="line2d_44">
    <path d="M 142.13376 41.472 
L 142.13376 280.624579 
" clip-path="url(#p4c691240b3)" style="fill: none; stroke: #8c564b; stroke-width: 0.5; stroke-linecap: square"/>
   </g>
   <g id="line2d_45">
    <path d="M 142.13376 280.624579 
L -1 117.1366 
" clip-path="url(#p4c691240b3)" style="fill: none; stroke: #e377c2; stroke-width: 0.5; stroke-linecap: square"/>
   </g>
   <g id="line2d_46">
    <path d="M 145.68192 41.472 
L 145.68192 279.265134 
" clip-path="url(#p4c691240b3)" style="fill: none; stroke: #7f7f7f; stroke-width: 0.5; stroke-linecap: square"/>
   </g>
   <g id="line2d_47">
    <path d="M 145.68192 279.265134 
L -1 119.90021 
" clip-path="url(#p4c691240b3)" style="fill: none; stroke: #bcbd22; stroke-width: 0.5; stroke-linecap: square"/>
   </g>
   <g id="line2d_48">
    <path d="M 149.23008 41.472 
L 149.23008 277.857661 
" clip-path="url(#p4c691240b3)" style="fill: none; stroke: #17becf; stroke-width: 0.5; stroke-linecap: square"/>
   </g>
   <g id="line2d_49">
    <path d="M 149.23008 277.857661 
L -1 121.705686 
" clip-path="url(#p4c691240b3)" style="fill: none; stroke: #1f77b4; stroke-width: 0.5; stroke-linecap: square"/>
   </g>
   <g id="line2d_50">
    <path d="M 152.77824 41.472 
L 152.77824 276.407731 
" clip-path="url(#p4c691240b3)" style="fill: none; stroke: #ff7f0e; stroke-width: 0.5; stroke-linecap: square"/>
   </g>
   <g id="line2d_51">
    <path d="M 152.77824 276.407731 
L -1 122.546181 
" clip-path="url(#p4c691240b3)" style="fill: none; stroke: #2ca02c; stroke-width: 0.5; stroke-linecap: square"/>
   </g>
   <g id="line2d_52">
    <path d="M 156.3264 41.472 
L 156.3264 274.921584 
" clip-path="url(#p4c691240b3)" style="fill: none; stroke: #d62728; stroke-width: 0.5; stroke-linecap: square"/>
   </g>
   <g id="line2d_53">
    <path d="M 156.3264 274.921584 
L -1 122.397802 
" clip-path="url(#p4c691240b3)" style="fill: none; stroke: #9467bd; stroke-width: 0.5; stroke-linecap: square"/>
   </g>
   <g id="line2d_54">
    <path d="M 159.87456 41.472 
L 159.87456 273.406103 
" clip-path="url(#p4c691240b3)" style="fill: none; stroke: #8c564b; stroke-width: 0.5; stroke-linecap: square"/>
   </g>
   <g id="line2d_55">
    <path d="M 159.87456 273.406103 
L -1 121.219483 
" clip-path="url(#p4c691240b3)" style="fill: none; stroke: #e377c2; stroke-width: 0.5; stroke-linecap: square"/>
   </g>
   <g id="line2d_56">
    <path d="M 163.42272 41.472 
L 163.42272 271.868781 
" clip-path="url(#p4c691240b3)" style="fill: none; stroke: #7f7f7f; stroke-width: 0.5; stroke-linecap: square"/>
   </g>
   <g id="line2d_57">
    <path d="M 163.42272 271.868781 
L -1 118.951949 
" clip-path="url(#p4c691240b3)" style="fill: none; stroke: #bcbd22; stroke-width: 0.5; stroke-linecap: square"/>
   </g>
   <g id="line2d_58">
    <path d="M 166.97088 41.472 
L 166.97088 270.317676 
" clip-path="url(#p4c691240b3)" style="fill: none; stroke: #17becf; stroke-width: 0.5; stroke-linecap: square"/>
   </g>
   <g id="line2d_59">
    <path d="M 166.97088 270.317676 
L -1 115.515608 
" clip-path="url(#p4c691240b3)" style="fill: none; stroke: #1f77b4; stroke-width: 0.5; stroke-linecap: square"/>
   </g>
   <g id="line2d_60">
    <path d="M 170.51904 41.472 
L 170.51904 268.76135 
" clip-path="url(#p4c691240b3)" style="fill: none; stroke: #ff7f0e; stroke-width: 0.5; stroke-linecap: square"/>
   </g>
   <g id="line2d_61">
    <path d="M 170.51904 268.76135 
L -1 110.807185 
" clip-path="url(#p4c691240b3)" style="fill: none; stroke: #2ca02c; stroke-width: 0.5; stroke-linecap: square"/>
   </g>
   <g id="line2d_62">
    <path d="M 174.0672 41.472 
L 174.0672 267.208806 
" clip-path="url(#p4c691240b3)" style="fill: none; stroke: #d62728; stroke-width: 0.5; stroke-linecap: square"/>
   </g>
   <g id="line2d_63">
    <path d="M 174.0672 267.208806 
L -1 104.694659 
" clip-path="url(#p4c691240b3)" style="fill: none; stroke: #9467bd; stroke-width: 0.5; stroke-linecap: square"/>
   </g>
   <g id="line2d_64">
    <path d="M 177.61536 41.472 
L 177.61536 265.66941 
" clip-path="url(#p4c691240b3)" style="fill: none; stroke: #8c564b; stroke-width: 0.5; stroke-linecap: square"/>
   </g>
   <g id="line2d_65">
    <path d="M 177.61536 265.66941 
L -1 97.009914 
" clip-path="url(#p4c691240b3)" style="fill: none; stroke: #e377c2; stroke-width: 0.5; stroke-linecap: square"/>
   </g>
   <g id="line2d_66">
    <path d="M 181.16352 41.472 
L 181.16352 264.152806 
" clip-path="url(#p4c691240b3)" style="fill: none; stroke: #7f7f7f; stroke-width: 0.5; stroke-linecap: square"/>
   </g>
   <g id="line2d_67">
    <path d="M 181.16352 264.152806 
L -1 87.538128 
" clip-path="url(#p4c691240b3)" style="fill: none; stroke: #bcbd22; stroke-width: 0.5; stroke-linecap: square"/>
   </g>
   <g id="line2d_68">
    <path d="M 184.71168 41.472 
L 184.71168 262.668822 
" clip-path="url(#p4c691240b3)" style="fill: none; stroke: #17becf; stroke-width: 0.5; stroke-linecap: square"/>
   </g>
   <g id="line2d_69">
    <path d="M 184.71168 262.668822 
L -1 76.002381 
" clip-path="url(#p4c691240b3)" style="fill: none; stroke: #1f77b4; stroke-width: 0.5; stroke-linecap: square"/>
   </g>
   <g id="line2d_70">
    <path d="M 188.25984 41.472 
L 188.25984 261.227376 
" clip-path="url(#p4c691240b3)" style="fill: none; stroke: #ff7f0e; stroke-width: 0.5; stroke-linecap: square"/>
   </g>
   <g id="line2d_71">
    <path d="M 188.25984 261.227376 
L -1 62.041068 
" clip-path="url(#p4c691240b3)" style="fill: none; stroke: #2ca02c; stroke-width: 0.5; stroke-linecap: square"/>
   </g>
   <g id="line2d_72">
    <path d="M 191.808 41.472 
L 191.808 259.838368 
" clip-path="url(#p4c691240b3)" style="fill: none; stroke: #d62728; stroke-width: 0.5; stroke-linecap: square"/>
   </g>
   <g id="line2d_73">
    <path d="M 191.808 259.838368 
L -1 45.174116 
" clip-path="url(#p4c691240b3)" style="fill: none; stroke: #9467bd; stroke-width: 0.5; stroke-linecap: square"/>
   </g>
   <g id="line2d_74">
    <path d="M 195.35616 41.472 
L 195.35616 258.511578 
" clip-path="url(#p4c691240b3)" style="fill: none; stroke: #8c564b; stroke-width: 0.5; stroke-linecap: square"/>
   </g>
   <g id="line2d_75">
    <path d="M 195.35616 258.511578 
L 13.045246 41.472 
" clip-path="url(#p4c691240b3)" style="fill: none; stroke: #e377c2; stroke-width: 0.5; stroke-linecap: square"/>
   </g>
   <g id="line2d_76">
    <path d="M 198.90432 41.472 
L 198.90432 257.256556 
" clip-path="url(#p4c691240b3)" style="fill: none; stroke: #7f7f7f; stroke-width: 0.5; stroke-linecap: square"/>
   </g>
   <g id="line2d_77">
    <path d="M 198.90432 257.256556 
L 31.310744 41.472 
" clip-path="url(#p4c691240b3)" style="fill: none; stroke: #bcbd22; stroke-width: 0.5; stroke-linecap: square"/>
   </g>
   <g id="line2d_78">
    <path d="M 202.45248 41.472 
L 202.45248 256.082517 
" clip-path="url(#p4c691240b3)" style="fill: none; stroke: #17becf; stroke-width: 0.5; stroke-linecap: square"/>
   </g>
   <g id="line2d_79">
    <path d="M 202.45248 256.082517 
L 50.23067 41.472 
" clip-path="url(#p4c691240b3)" style="fill: none; stroke: #1f77b4; stroke-width: 0.5; stroke-linecap: square"/>
   </g>
   <g id="line2d_80">
    <path d="M 206.00064 41.472 
L 206.00064 254.998231 
" clip-path="url(#p4c691240b3)" style="fill: none; stroke: #ff7f0e; stroke-width: 0.5; stroke-linecap: square"/>
   </g>
   <g id="line2d_81">
    <path d="M 206.00064 254.998231 
L 69.591637 41.472 
" clip-path="url(#p4c691240b3)" style="fill: none; stroke: #2ca02c; stroke-width: 0.5; stroke-linecap: square"/>
   </g>
   <g id="line2d_82">
    <path d="M 209.5488 41.472 
L 209.5488 254.011928 
" clip-path="url(#p4c691240b3)" style="fill: none; stroke: #d62728; stroke-width: 0.5; stroke-linecap: square"/>
   </g>
   <g id="line2d_83">
    <path d="M 209.5488 254.011928 
L 89.214821 41.472 
" clip-path="url(#p4c691240b3)" style="fill: none; stroke: #9467bd; stroke-width: 0.5; stroke-linecap: square"/>
   </g>
   <g id="line2d_84">
    <path d="M 213.09696 41.472 
L 213.09696 253.131194 
" clip-path="url(#p4c691240b3)" style="fill: none; stroke: #8c564b; stroke-width: 0.5; stroke-linecap: square"/>
   </g>
   <g id="line2d_85">
    <path d="M 213.09696 253.131194 
L 108.959394 41.472 
" clip-path="url(#p4c691240b3)" style="fill: none; stroke: #e377c2; stroke-width: 0.5; stroke-linecap: square"/>
   </g>
   <g id="line2d_86">
    <path d="M 216.64512 41.472 
L 216.64512 252.362883 
" clip-path="url(#p4c691240b3)" style="fill: none; stroke: #7f7f7f; stroke-width: 0.5; stroke-linecap: square"/>
   </g>
   <g id="line2d_87">
    <path d="M 216.64512 252.362883 
L 128.722647 41.472 
" clip-path="url(#p4c691240b3)" style="fill: none; stroke: #bcbd22; stroke-width: 0.5; stroke-linecap: square"/>
   </g>
   <g id="line2d_88">
    <path d="M 220.19328 41.472 
L 220.19328 251.713035 
" clip-path="url(#p4c691240b3)" style="fill: none; stroke: #17becf; stroke-width: 0.5; stroke-linecap: square"/>
   </g>
   <g id="line2d_89">
    <path d="M 220.19328 251.713035 
L 148.43759 41.472 
" clip-path="url(#p4c691240b3)" style="fill: none; stroke: #1f77b4; stroke-width: 0.5; stroke-linecap: square"/>
   </g>
   <g id="line2d_90">
    <path d="M 223.74144 41.472 
L 223.74144 251.186802 
" clip-path="url(#p4c691240b3)" style="fill: none; stroke: #ff7f0e; stroke-width: 0.5; stroke-linecap: square"/>
   </g>
   <g id="line2d_91">
    <path d="M 223.74144 251.186802 
L 168.068828 41.472 
" clip-path="url(#p4c691240b3)" style="fill: none; stroke: #2ca02c; stroke-width: 0.5; stroke-linecap: square"/>
   </g>
   <g id="line2d_92">
    <path d="M 227.2896 41.472 
L 227.2896 250.788382 
" clip-path="url(#p4c691240b3)" style="fill: none; stroke: #d62728; stroke-width: 0.5; stroke-linecap: square"/>
   </g>
   <g id="line2d_93">
    <path d="M 227.2896 250.788382 
L 187.607374 41.472 
" clip-path="url(#p4c691240b3)" style="fill: none; stroke: #9467bd; stroke-width: 0.5; stroke-linecap: square"/>
   </g>
   <g id="line2d_94">
    <path d="M 230.83776 41.472 
L 230.83776 250.520973 
" clip-path="url(#p4c691240b3)" style="fill: none; stroke: #8c564b; stroke-width: 0.5; stroke-linecap: square"/>
   </g>
   <g id="line2d_95">
    <path d="M 230.83776 250.520973 
L 207.064942 41.472 
" clip-path="url(#p4c691240b3)" style="fill: none; stroke: #e377c2; stroke-width: 0.5; stroke-linecap: square"/>
   </g>
   <g id="line2d_96">
    <path d="M 234.38592 41.472 
L 234.38592 250.386726 
" clip-path="url(#p4c691240b3)" style="fill: none; stroke: #7f7f7f; stroke-width: 0.5; stroke-linecap: square"/>
   </g>
   <g id="line2d_97">
    <path d="M 234.38592 250.386726 
L 226.468028 41.472 
" clip-path="url(#p4c691240b3)" style="fill: none; stroke: #bcbd22; stroke-width: 0.5; stroke-linecap: square"/>
   </g>
   <g id="line2d_98">
    <path d="M 237.93408 41.472 
L 237.93408 250.386726 
" clip-path="url(#p4c691240b3)" style="fill: none; stroke: #17becf; stroke-width: 0.5; stroke-linecap: square"/>
   </g>
   <g id="line2d_99">
    <path d="M 237.93408 250.386726 
L 245.851972 41.472 
" clip-path="url(#p4c691240b3)" style="fill: none; stroke: #1f77b4; stroke-width: 0.5; stroke-linecap: square"/>
   </g>
   <g id="line2d_100">
    <path d="M 241.48224 41.472 
L 241.48224 250.520973 
" clip-path="url(#p4c691240b3)" style="fill: none; stroke: #ff7f0e; stroke-width: 0.5; stroke-linecap: square"/>
   </g>
   <g id="line2d_101">
    <path d="M 241.48224 250.520973 
L 265.255058 41.472 
" clip-path="url(#p4c691240b3)" style="fill: none; stroke: #2ca02c; stroke-width: 0.5; stroke-linecap: square"/>
   </g>
   <g id="line2d_102">
    <path d="M 245.0304 41.472 
L 245.0304 250.788382 
" clip-path="url(#p4c691240b3)" style="fill: none; stroke: #d62728; stroke-width: 0.5; stroke-linecap: square"/>
   </g>
   <g id="line2d_103">
    <path d="M 245.0304 250.788382 
L 284.712626 41.472 
" clip-path="url(#p4c691240b3)" style="fill: none; stroke: #9467bd; stroke-width: 0.5; stroke-linecap: square"/>
   </g>
   <g id="line2d_104">
    <path d="M 248.57856 41.472 
L 248.57856 251.186802 
" clip-path="url(#p4c691240b3)" style="fill: none; stroke: #8c564b; stroke-width: 0.5; stroke-linecap: square"/>
   </g>
   <g id="line2d_105">
    <path d="M 248.57856 251.186802 
L 304.251172 41.472 
" clip-path="url(#p4c691240b3)" style="fill: none; stroke: #e377c2; stroke-width: 0.5; stroke-linecap: square"/>
   </g>
   <g id="line2d_106">
    <path d="M 252.12672 41.472 
L 252.12672 251.713035 
" clip-path="url(#p4c691240b3)" style="fill: none; stroke: #7f7f7f; stroke-width: 0.5; stroke-linecap: square"/>
   </g>
   <g id="line2d_107">
    <path d="M 252.12672 251.713035 
L 323.88241 41.472 
" clip-path="url(#p4c691240b3)" style="fill: none; stroke: #bcbd22; stroke-width: 0.5; stroke-linecap: square"/>
   </g>
   <g id="line2d_108">
    <path d="M 255.67488 41.472 
L 255.67488 252.362883 
" clip-path="url(#p4c691240b3)" style="fill: none; stroke: #17becf; stroke-width: 0.5; stroke-linecap: square"/>
   </g>
   <g id="line2d_109">
    <path d="M 255.67488 252.362883 
L 343.597353 41.472 
" clip-path="url(#p4c691240b3)" style="fill: none; stroke: #1f77b4; stroke-width: 0.5; stroke-linecap: square"/>
   </g>
   <g id="line2d_110">
    <path d="M 259.22304 41.472 
L 259.22304 253.131194 
" clip-path="url(#p4c691240b3)" style="fill: none; stroke: #ff7f0e; stroke-width: 0.5; stroke-linecap: square"/>
   </g>
   <g id="line2d_111">
    <path d="M 259.22304 253.131194 
L 363.360606 41.472 
" clip-path="url(#p4c691240b3)" style="fill: none; stroke: #2ca02c; stroke-width: 0.5; stroke-linecap: square"/>
   </g>
   <g id="line2d_112">
    <path d="M 262.7712 41.472 
L 262.7712 254.011928 
" clip-path="url(#p4c691240b3)" style="fill: none; stroke: #d62728; stroke-width: 0.5; stroke-linecap: square"/>
   </g>
   <g id="line2d_113">
    <path d="M 262.7712 254.011928 
L 383.105179 41.472 
" clip-path="url(#p4c691240b3)" style="fill: none; stroke: #9467bd; stroke-width: 0.5; stroke-linecap: square"/>
   </g>
   <g id="line2d_114">
    <path d="M 266.31936 41.472 
L 266.31936 254.998231 
" clip-path="url(#p4c691240b3)" style="fill: none; stroke: #8c564b; stroke-width: 0.5; stroke-linecap: square"/>
   </g>
   <g id="line2d_115">
    <path d="M 266.31936 254.998231 
L 402.728363 41.472 
" clip-path="url(#p4c691240b3)" style="fill: none; stroke: #e377c2; stroke-width: 0.5; stroke-linecap: square"/>
   </g>
   <g id="line2d_116">
    <path d="M 269.86752 41.472 
L 269.86752 256.082517 
" clip-path="url(#p4c691240b3)" style="fill: none; stroke: #7f7f7f; stroke-width: 0.5; stroke-linecap: square"/>
   </g>
   <g id="line2d_117">
    <path d="M 269.86752 256.082517 
L 422.08933 41.472 
" clip-path="url(#p4c691240b3)" style="fill: none; stroke: #bcbd22; stroke-width: 0.5; stroke-linecap: square"/>
   </g>
   <g id="line2d_118">
    <path d="M 273.41568 41.472 
L 273.41568 257.256556 
" clip-path="url(#p4c691240b3)" style="fill: none; stroke: #17becf; stroke-width: 0.5; stroke-linecap: square"/>
   </g>
   <g id="line2d_119">
    <path d="M 273.41568 257.256556 
L 441.009256 41.472 
" clip-path="url(#p4c691240b3)" style="fill: none; stroke: #1f77b4; stroke-width: 0.5; stroke-linecap: square"/>
   </g>
   <g id="line2d_120">
    <path d="M 276.96384 41.472 
L 276.96384 258.511578 
" clip-path="url(#p4c691240b3)" style="fill: none; stroke: #ff7f0e; stroke-width: 0.5; stroke-linecap: square"/>
   </g>
   <g id="line2d_121">
    <path d="M 276.96384 258.511578 
L 459.274754 41.472 
" clip-path="url(#p4c691240b3)" style="fill: none; stroke: #2ca02c; stroke-width: 0.5; stroke-linecap: square"/>
   </g>
   <g id="line2d_122">
    <path d="M 280.512 41.472 
L 280.512 259.838368 
" clip-path="url(#p4c691240b3)" style="fill: none; stroke: #d62728; stroke-width: 0.5; stroke-linecap: square"/>
   </g>
   <g id="line2d_123">
    <path d="M 280.512 259.838368 
L 461.8 57.999996 
" clip-path="url(#p4c691240b3)" style="fill: none; stroke: #9467bd; stroke-width: 0.5; stroke-linecap: square"/>
   </g>
   <g id="line2d_124">
    <path d="M 284.06016 41.472 
L 284.06016 261.227376 
" clip-path="url(#p4c691240b3)" style="fill: none; stroke: #8c564b; stroke-width: 0.5; stroke-linecap: square"/>
   </g>
   <g id="line2d_125">
    <path d="M 284.06016 261.227376 
L 461.8 74.165279 
" clip-path="url(#p4c691240b3)" style="fill: none; stroke: #e377c2; stroke-width: 0.5; stroke-linecap: square"/>
   </g>
   <g id="line2d_126">
    <path d="M 287.60832 41.472 
L 287.60832 262.668822 
" clip-path="url(#p4c691240b3)" style="fill: none; stroke: #7f7f7f; stroke-width: 0.5; stroke-linecap: square"/>
   </g>
   <g id="line2d_127">
    <path d="M 287.60832 262.668822 
L 461.8 87.581607 
" clip-path="url(#p4c691240b3)" style="fill: none; stroke: #bcbd22; stroke-width: 0.5; stroke-linecap: square"/>
   </g>
   <g id="line2d_128">
    <path d="M 291.15648 41.472 
L 291.15648 264.152806 
" clip-path="url(#p4c691240b3)" style="fill: none; stroke: #17becf; stroke-width: 0.5; stroke-linecap: square"/>
   </g>
   <g id="line2d_129">
    <path d="M 291.15648 264.152806 
L 461.8 98.70722 
" clip-path="url(#p4c691240b3)" style="fill: none; stroke: #1f77b4; stroke-width: 0.5; stroke-linecap: square"/>
   </g>
   <g id="line2d_130">
    <path d="M 294.70464 41.472 
L 294.70464 265.66941 
" clip-path="url(#p4c691240b3)" style="fill: none; stroke: #ff7f0e; stroke-width: 0.5; stroke-linecap: square"/>
   </g>
   <g id="line2d_131">
    <path d="M 294.70464 265.66941 
L 461.8 107.887799 
" clip-path="url(#p4c691240b3)" style="fill: none; stroke: #2ca02c; stroke-width: 0.5; stroke-linecap: square"/>
   </g>
   <g id="line2d_132">
    <path d="M 298.2528 41.472 
L 298.2528 267.208806 
" clip-path="url(#p4c691240b3)" style="fill: none; stroke: #d62728; stroke-width: 0.5; stroke-linecap: square"/>
   </g>
   <g id="line2d_133">
    <path d="M 298.2528 267.208806 
L 461.8 115.388627 
" clip-path="url(#p4c691240b3)" style="fill: none; stroke: #9467bd; stroke-width: 0.5; stroke-linecap: square"/>
   </g>
   <g id="line2d_134">
    <path d="M 301.80096 41.472 
L 301.80096 268.76135 
" clip-path="url(#p4c691240b3)" style="fill: none; stroke: #8c564b; stroke-width: 0.5; stroke-linecap: square"/>
   </g>
   <g id="line2d_135">
    <path d="M 301.80096 268.76135 
L 461.8 121.416107 
" clip-path="url(#p4c691240b3)" style="fill: none; stroke: #e377c2; stroke-width: 0.5; stroke-linecap: square"/>
   </g>
   <g id="line2d_136">
    <path d="M 305.34912 41.472 
L 305.34912 270.317676 
" clip-path="url(#p4c691240b3)" style="fill: none; stroke: #7f7f7f; stroke-width: 0.5; stroke-linecap: square"/>
   </g>
   <g id="line2d_137">
    <path d="M 305.34912 270.317676 
L 461.8 126.132448 
" clip-path="url(#p4c691240b3)" style="fill: none; stroke: #bcbd22; stroke-width: 0.5; stroke-linecap: square"/>
   </g>
   <g id="line2d_138">
    <path d="M 308.89728 41.472 
L 308.89728 271.868781 
" clip-path="url(#p4c691240b3)" style="fill: none; stroke: #17becf; stroke-width: 0.5; stroke-linecap: square"/>
   </g>
   <g id="line2d_139">
    <path d="M 308.89728 271.868781 
L 461.8 129.665808 
" clip-path="url(#p4c691240b3)" style="fill: none; stroke: #1f77b4; stroke-width: 0.5; stroke-linecap: square"/>
   </g>
   <g id="line2d_140">
    <path d="M 312.44544 41.472 
L 312.44544 273.406103 
" clip-path="url(#p4c691240b3)" style="fill: none; stroke: #ff7f0e; stroke-width: 0.5; stroke-linecap: square"/>
   </g>
   <g id="line2d_141">
    <path d="M 312.44544 273.406103 
L 461.8 132.117352 
" clip-path="url(#p4c691240b3)" style="fill: none; stroke: #2ca02c; stroke-width: 0.5; stroke-linecap: square"/>
   </g>
   <g id="line2d_142">
    <path d="M 315.9936 41.472 
L 315.9936 274.921584 
" clip-path="url(#p4c691240b3)" style="fill: none; stroke: #d62728; stroke-width: 0.5; stroke-linecap: square"/>
   </g>
   <g id="line2d_143">
    <path d="M 315.9936 274.921584 
L 461.8 133.566137 
" clip-path="url(#p4c691240b3)" style="fill: none; stroke: #9467bd; stroke-width: 0.5; stroke-linecap: square"/>
   </g>
   <g id="line2d_144">
    <path d="M 319.54176 41.472 
L 319.54176 276.407731 
" clip-path="url(#p4c691240b3)" style="fill: none; stroke: #8c564b; stroke-width: 0.5; stroke-linecap: square"/>
   </g>
   <g id="line2d_145">
    <path d="M 319.54176 276.407731 
L 461.8 134.072422 
" clip-path="url(#p4c691240b3)" style="fill: none; stroke: #e377c2; stroke-width: 0.5; stroke-linecap: square"/>
   </g>
   <g id="line2d_146">
    <path d="M 323.08992 41.472 
L 323.08992 277.857661 
" clip-path="url(#p4c691240b3)" style="fill: none; stroke: #7f7f7f; stroke-width: 0.5; stroke-linecap: square"/>
   </g>
   <g id="line2d_147">
    <path d="M 323.08992 277.857661 
L 461.8 133.679791 
" clip-path="url(#p4c691240b3)" style="fill: none; stroke: #bcbd22; stroke-width: 0.5; stroke-linecap: square"/>
   </g>
   <g id="line2d_148">
    <path d="M 326.63808 41.472 
L 326.63808 279.265134 
" clip-path="url(#p4c691240b3)" style="fill: none; stroke: #17becf; stroke-width: 0.5; stroke-linecap: square"/>
   </g>
   <g id="line2d_149">
    <path d="M 326.63808 279.265134 
L 461.8 132.416298 
" clip-path="url(#p4c691240b3)" style="fill: none; stroke: #1f77b4; stroke-width: 0.5; stroke-linecap: square"/>
   </g>
   <g id="line2d_150">
    <path d="M 330.18624 41.472 
L 330.18624 280.624579 
" clip-path="url(#p4c691240b3)" style="fill: none; stroke: #ff7f0e; stroke-width: 0.5; stroke-linecap: square"/>
   </g>
   <g id="line2d_151">
    <path d="M 330.18624 280.624579 
L 461.8 130.294793 
" clip-path="url(#p4c691240b3)" style="fill: none; stroke: #2ca02c; stroke-width: 0.5; stroke-linecap: square"/>
   </g>
   <g id="line2d_152">
    <path d="M 333.7344 41.472 
L 333.7344 281.9311 
" clip-path="url(#p4c691240b3)" style="fill: none; stroke: #d62728; stroke-width: 0.5; stroke-linecap: square"/>
   </g>
   <g id="line2d_153">
    <path d="M 333.7344 281.9311 
L 461.8 127.312415 
" clip-path="url(#p4c691240b3)" style="fill: none; stroke: #9467bd; stroke-width: 0.5; stroke-linecap: square"/>
   </g>
   <g id="line2d_154">
    <path d="M 337.28256 41.472 
L 337.28256 283.180486 
" clip-path="url(#p4c691240b3)" style="fill: none; stroke: #8c564b; stroke-width: 0.5; stroke-linecap: square"/>
   </g>
   <g id="line2d_155">
    <path d="M 337.28256 283.180486 
L 461.8 123.449234 
" clip-path="url(#p4c691240b3)" style="fill: none; stroke: #e377c2; stroke-width: 0.5; stroke-linecap: square"/>
   </g>
   <g id="line2d_156">
    <path d="M 340.83072 41.472 
L 340.83072 284.369191 
" clip-path="url(#p4c691240b3)" style="fill: none; stroke: #7f7f7f; stroke-width: 0.5; stroke-linecap: square"/>
   </g>
   <g id="line2d_157">
    <path d="M 340.83072 284.369191 
L 461.8 118.665829 
" clip-path="url(#p4c691240b3)" style="fill: none; stroke: #bcbd22; stroke-width: 0.5; stroke-linecap: square"/>
   </g>
   <g id="line2d_158">
    <path d="M 344.37888 41.472 
L 344.37888 285.494315 
" clip-path="url(#p4c691240b3)" style="fill: none; stroke: #17becf; stroke-width: 0.5; stroke-linecap: square"/>
   </g>
   <g id="line2d_159">
    <path d="M 344.37888 285.494315 
L 461.8 112.899526 
" clip-path="url(#p4c691240b3)" style="fill: none; stroke: #1f77b4; stroke-width: 0.5; stroke-linecap: square"/>
   </g>
   <g id="line2d_160">
    <path d="M 347.92704 41.472 
L 347.92704 286.553579 
" clip-path="url(#p4c691240b3)" style="fill: none; stroke: #ff7f0e; stroke-width: 0.5; stroke-linecap: square"/>
   </g>
   <g id="line2d_161">
    <path d="M 347.92704 286.553579 
L 461.8 106.058751 
" clip-path="url(#p4c691240b3)" style="fill: none; stroke: #2ca02c; stroke-width: 0.5; stroke-linecap: square"/>
   </g>
   <g id="line2d_162">
    <path d="M 351.4752 41.472 
L 351.4752 287.545277 
" clip-path="url(#p4c691240b3)" style="fill: none; stroke: #d62728; stroke-width: 0.5; stroke-linecap: square"/>
   </g>
   <g id="line2d_163">
    <path d="M 351.4752 287.545277 
L 461.8 98.014664 
" clip-path="url(#p4c691240b3)" style="fill: none; stroke: #9467bd; stroke-width: 0.5; stroke-linecap: square"/>
   </g>
   <g id="line2d_164">
    <path d="M 355.02336 41.472 
L 355.02336 288.468235 
" clip-path="url(#p4c691240b3)" style="fill: none; stroke: #8c564b; stroke-width: 0.5; stroke-linecap: square"/>
   </g>
   <g id="line2d_165">
    <path d="M 355.02336 288.468235 
L 461.8 88.588714 
" clip-path="url(#p4c691240b3)" style="fill: none; stroke: #e377c2; stroke-width: 0.5; stroke-linecap: square"/>
   </g>
   <g id="line2d_166">
    <path d="M 358.57152 41.472 
L 358.57152 289.321755 
" clip-path="url(#p4c691240b3)" style="fill: none; stroke: #7f7f7f; stroke-width: 0.5; stroke-linecap: square"/>
   </g>
   <g id="line2d_167">
    <path d="M 358.57152 289.321755 
L 461.8 77.533812 
" clip-path="url(#p4c691240b3)" style="fill: none; stroke: #bcbd22; stroke-width: 0.5; stroke-linecap: square"/>
   </g>
   <g id="line2d_168">
    <path d="M 362.11968 41.472 
L 362.11968 290.105559 
" clip-path="url(#p4c691240b3)" style="fill: none; stroke: #17becf; stroke-width: 0.5; stroke-linecap: square"/>
   </g>
   <g id="line2d_169">
    <path d="M 362.11968 290.105559 
L 461.8 64.505255 
" clip-path="url(#p4c691240b3)" style="fill: none; stroke: #1f77b4; stroke-width: 0.5; stroke-linecap: square"/>
   </g>
   <g id="line2d_170">
    <path d="M 365.66784 41.472 
L 365.66784 290.81972 
" clip-path="url(#p4c691240b3)" style="fill: none; stroke: #ff7f0e; stroke-width: 0.5; stroke-linecap: square"/>
   </g>
   <g id="line2d_171">
    <path d="M 365.66784 290.81972 
L 461.8 49.014508 
" clip-path="url(#p4c691240b3)" style="fill: none; stroke: #2ca02c; stroke-width: 0.5; stroke-linecap: square"/>
   </g>
   <g id="patch_3">
    <path d="M 103.104 307.584 
L 103.104 41.472 
" style="fill: none; stroke: #000000; stroke-width: 0.8; stroke-linejoin: miter; stroke-linecap: square"/>
   </g>
   <g id="patch_4">
    <path d="M 369.216 307.584 
L 369.216 41.472 
" style="fill: none; stroke: #000000; stroke-width: 0.8; stroke-linejoin: miter; stroke-linecap: square"/>
   </g>
   <g id="patch_5">
    <path d="M 103.104 307.584 
L 369.216 307.584 
" style="fill: none; stroke: #000000; stroke-width: 0.8; stroke-linejoin: miter; stroke-linecap: square"/>
   </g>
   <g id="patch_6">
    <path d="M 103.104 41.472 
L 369.216 41.472 
" style="fill: none; stroke: #000000; stroke-width: 0.8; stroke-linejoin: miter; stroke-linecap: square"/>
   </g>
  </g>
 </g>
 <defs>
  <clipPath id="p4c691240b3">
   <rect x="103.104" y="41.472" width="266.112" height="266.112"/>
  </clipPath>
 </defs>
</svg>
