<?xml version="1.0" encoding="utf-8" standalone="no"?>
<!DOCTYPE svg PUBLIC "-//W3C//DTD SVG 1.1//EN"
  "http://www.w3.org/Graphics/SVG/1.1/DTD/svg11.dtd">
<svg xmlns:xlink="http://www.w3.org/1999/xlink" width="460.8pt" height="345.6pt" viewBox="0 0 460.8 345.6" xmlns="http://www.w3.org/2000/svg" version="1.1">
 <metadata>
  <rdf:RDF xmlns:dc="http://purl.org/dc/elements/1.1/" xmlns:cc="http://creativecommons.org/ns#" xmlns:rdf="http://www.w3.org/1999/02/22-rdf-syntax-ns#">
   <cc:Work>
    <dc:type rdf:resource="http://purl.org/dc/dcmitype/StillImage"/>
    <dc:date>2024-09-28T13:54:02.605057</dc:date>
    <dc:format>image/svg+xml</dc:format>
    <dc:creator>
     <cc:Agent>
      <dc:title>Matplotlib v3.9.0, https://matplotlib.org/</dc:title>
     </cc:Agent>
    </dc:creator>
   </cc:Work>
  </rdf:RDF>
 </metadata>
 <defs>
  <style type="text/css">*{stroke-linejoin: round; stroke-linecap: butt}</style>
 </defs>
 <g id="figure_1">
  <g id="patch_1">
   <path d="M 0 345.6 
L 460.8 345.6 
L 460.8 0 
L 0 0 
z
" style="fill: #ffffff"/>
  </g>
  <g id="axes_1">
   <g id="patch_2">
    <path d="M 103.104 307.584 
L 369.216 307.584 
L 369.216 41.472 
L 103.104 41.472 
z
" style="fill: #ffffff"/>
   </g>
   <g id="matplotlib.axis_1">
    <g id="xtick_1">
     <g id="line2d_1">
      <defs>
       <path id="maf66cbc3a8" d="M 0 0 
L 0 3.5 
" style="stroke: #000000; stroke-width: 0.8"/>
      </defs>
      <g>
       <use xlink:href="#maf66cbc3a8" x="122.112" y="307.584" style="stroke: #000000; stroke-width: 0.8"/>
      </g>
     </g>
     <g id="text_1">
      <!-- 0 -->
      <g transform="translate(118.93075 322.182437) scale(0.1 -0.1)">
       <defs>
        <path id="DejaVuSans-30" d="M 2034 4250 
Q 1547 4250 1301 3770 
Q 1056 3291 1056 2328 
Q 1056 1369 1301 889 
Q 1547 409 2034 409 
Q 2525 409 2770 889 
Q 3016 1369 3016 2328 
Q 3016 3291 2770 3770 
Q 2525 4250 2034 4250 
z
M 2034 4750 
Q 2819 4750 3233 4129 
Q 3647 3509 3647 2328 
Q 3647 1150 3233 529 
Q 2819 -91 2034 -91 
Q 1250 -91 836 529 
Q 422 1150 422 2328 
Q 422 3509 836 4129 
Q 1250 4750 2034 4750 
z
" transform="scale(0.015625)"/>
       </defs>
       <use xlink:href="#DejaVuSans-30"/>
      </g>
     </g>
    </g>
    <g id="xtick_2">
     <g id="line2d_2">
      <g>
       <use xlink:href="#maf66cbc3a8" x="160.128" y="307.584" style="stroke: #000000; stroke-width: 0.8"/>
      </g>
     </g>
     <g id="text_2">
      <!-- 1 -->
      <g transform="translate(156.94675 322.182437) scale(0.1 -0.1)">
       <defs>
        <path id="DejaVuSans-31" d="M 794 531 
L 1825 531 
L 1825 4091 
L 703 3866 
L 703 4441 
L 1819 4666 
L 2450 4666 
L 2450 531 
L 3481 531 
L 3481 0 
L 794 0 
L 794 531 
z
" transform="scale(0.015625)"/>
       </defs>
       <use xlink:href="#DejaVuSans-31"/>
      </g>
     </g>
    </g>
    <g id="xtick_3">
     <g id="line2d_3">
      <g>
       <use xlink:href="#maf66cbc3a8" x="198.144" y="307.584" style="stroke: #000000; stroke-width: 0.8"/>
      </g>
     </g>
     <g id="text_3">
      <!-- 2 -->
      <g transform="translate(194.96275 322.182437) scale(0.1 -0.1)">
       <defs>
        <path id="DejaVuSans-32" d="M 1228 531 
L 3431 531 
L 3431 0 
L 469 0 
L 469 531 
Q 828 903 1448 1529 
Q 2069 2156 2228 2338 
Q 2531 2678 2651 2914 
Q 2772 3150 2772 3378 
Q 2772 3750 2511 3984 
Q 2250 4219 1831 4219 
Q 1534 4219 1204 4116 
Q 875 4013 500 3803 
L 500 4441 
Q 881 4594 1212 4672 
Q 1544 4750 1819 4750 
Q 2544 4750 2975 4387 
Q 3406 4025 3406 3419 
Q 3406 3131 3298 2873 
Q 3191 2616 2906 2266 
Q 2828 2175 2409 1742 
Q 1991 1309 1228 531 
z
" transform="scale(0.015625)"/>
       </defs>
       <use xlink:href="#DejaVuSans-32"/>
      </g>
     </g>
    </g>
    <g id="xtick_4">
     <g id="line2d_4">
      <g>
       <use xlink:href="#maf66cbc3a8" x="236.16" y="307.584" style="stroke: #000000; stroke-width: 0.8"/>
      </g>
     </g>
     <g id="text_4">
      <!-- 3 -->
      <g transform="translate(232.97875 322.182437) scale(0.1 -0.1)">
       <defs>
        <path id="DejaVuSans-33" d="M 2597 2516 
Q 3050 2419 3304 2112 
Q 3559 1806 3559 1356 
Q 3559 666 3084 287 
Q 2609 -91 1734 -91 
Q 1441 -91 1130 -33 
Q 819 25 488 141 
L 488 750 
Q 750 597 1062 519 
Q 1375 441 1716 441 
Q 2309 441 2620 675 
Q 2931 909 2931 1356 
Q 2931 1769 2642 2001 
Q 2353 2234 1838 2234 
L 1294 2234 
L 1294 2753 
L 1863 2753 
Q 2328 2753 2575 2939 
Q 2822 3125 2822 3475 
Q 2822 3834 2567 4026 
Q 2313 4219 1838 4219 
Q 1578 4219 1281 4162 
Q 984 4106 628 3988 
L 628 4550 
Q 988 4650 1302 4700 
Q 1616 4750 1894 4750 
Q 2613 4750 3031 4423 
Q 3450 4097 3450 3541 
Q 3450 3153 3228 2886 
Q 3006 2619 2597 2516 
z
" transform="scale(0.015625)"/>
       </defs>
       <use xlink:href="#DejaVuSans-33"/>
      </g>
     </g>
    </g>
    <g id="xtick_5">
     <g id="line2d_5">
      <g>
       <use xlink:href="#maf66cbc3a8" x="274.176" y="307.584" style="stroke: #000000; stroke-width: 0.8"/>
      </g>
     </g>
     <g id="text_5">
      <!-- 4 -->
      <g transform="translate(270.99475 322.182437) scale(0.1 -0.1)">
       <defs>
        <path id="DejaVuSans-34" d="M 2419 4116 
L 825 1625 
L 2419 1625 
L 2419 4116 
z
M 2253 4666 
L 3047 4666 
L 3047 1625 
L 3713 1625 
L 3713 1100 
L 3047 1100 
L 3047 0 
L 2419 0 
L 2419 1100 
L 313 1100 
L 313 1709 
L 2253 4666 
z
" transform="scale(0.015625)"/>
       </defs>
       <use xlink:href="#DejaVuSans-34"/>
      </g>
     </g>
    </g>
    <g id="xtick_6">
     <g id="line2d_6">
      <g>
       <use xlink:href="#maf66cbc3a8" x="312.192" y="307.584" style="stroke: #000000; stroke-width: 0.8"/>
      </g>
     </g>
     <g id="text_6">
      <!-- 5 -->
      <g transform="translate(309.01075 322.182437) scale(0.1 -0.1)">
       <defs>
        <path id="DejaVuSans-35" d="M 691 4666 
L 3169 4666 
L 3169 4134 
L 1269 4134 
L 1269 2991 
Q 1406 3038 1543 3061 
Q 1681 3084 1819 3084 
Q 2600 3084 3056 2656 
Q 3513 2228 3513 1497 
Q 3513 744 3044 326 
Q 2575 -91 1722 -91 
Q 1428 -91 1123 -41 
Q 819 9 494 109 
L 494 744 
Q 775 591 1075 516 
Q 1375 441 1709 441 
Q 2250 441 2565 725 
Q 2881 1009 2881 1497 
Q 2881 1984 2565 2268 
Q 2250 2553 1709 2553 
Q 1456 2553 1204 2497 
Q 953 2441 691 2322 
L 691 4666 
z
" transform="scale(0.015625)"/>
       </defs>
       <use xlink:href="#DejaVuSans-35"/>
      </g>
     </g>
    </g>
    <g id="xtick_7">
     <g id="line2d_7">
      <g>
       <use xlink:href="#maf66cbc3a8" x="350.208" y="307.584" style="stroke: #000000; stroke-width: 0.8"/>
      </g>
     </g>
     <g id="text_7">
      <!-- 6 -->
      <g transform="translate(347.02675 322.182437) scale(0.1 -0.1)">
       <defs>
        <path id="DejaVuSans-36" d="M 2113 2584 
Q 1688 2584 1439 2293 
Q 1191 2003 1191 1497 
Q 1191 994 1439 701 
Q 1688 409 2113 409 
Q 2538 409 2786 701 
Q 3034 994 3034 1497 
Q 3034 2003 2786 2293 
Q 2538 2584 2113 2584 
z
M 3366 4563 
L 3366 3988 
Q 3128 4100 2886 4159 
Q 2644 4219 2406 4219 
Q 1781 4219 1451 3797 
Q 1122 3375 1075 2522 
Q 1259 2794 1537 2939 
Q 1816 3084 2150 3084 
Q 2853 3084 3261 2657 
Q 3669 2231 3669 1497 
Q 3669 778 3244 343 
Q 2819 -91 2113 -91 
Q 1303 -91 875 529 
Q 447 1150 447 2328 
Q 447 3434 972 4092 
Q 1497 4750 2381 4750 
Q 2619 4750 2861 4703 
Q 3103 4656 3366 4563 
z
" transform="scale(0.015625)"/>
       </defs>
       <use xlink:href="#DejaVuSans-36"/>
      </g>
     </g>
    </g>
   </g>
   <g id="matplotlib.axis_2">
    <g id="ytick_1">
     <g id="line2d_8">
      <defs>
       <path id="mb6b2065dba" d="M 0 0 
L -3.5 0 
" style="stroke: #000000; stroke-width: 0.8"/>
      </defs>
      <g>
       <use xlink:href="#mb6b2065dba" x="103.104" y="288.576" style="stroke: #000000; stroke-width: 0.8"/>
      </g>
     </g>
     <g id="text_8">
      <!-- 0 -->
      <g transform="translate(89.7415 292.375219) scale(0.1 -0.1)">
       <use xlink:href="#DejaVuSans-30"/>
      </g>
     </g>
    </g>
    <g id="ytick_2">
     <g id="line2d_9">
      <g>
       <use xlink:href="#mb6b2065dba" x="103.104" y="250.56" style="stroke: #000000; stroke-width: 0.8"/>
      </g>
     </g>
     <g id="text_9">
      <!-- 1 -->
      <g transform="translate(89.7415 254.359219) scale(0.1 -0.1)">
       <use xlink:href="#DejaVuSans-31"/>
      </g>
     </g>
    </g>
    <g id="ytick_3">
     <g id="line2d_10">
      <g>
       <use xlink:href="#mb6b2065dba" x="103.104" y="212.544" style="stroke: #000000; stroke-width: 0.8"/>
      </g>
     </g>
     <g id="text_10">
      <!-- 2 -->
      <g transform="translate(89.7415 216.343219) scale(0.1 -0.1)">
       <use xlink:href="#DejaVuSans-32"/>
      </g>
     </g>
    </g>
    <g id="ytick_4">
     <g id="line2d_11">
      <g>
       <use xlink:href="#mb6b2065dba" x="103.104" y="174.528" style="stroke: #000000; stroke-width: 0.8"/>
      </g>
     </g>
     <g id="text_11">
      <!-- 3 -->
      <g transform="translate(89.7415 178.327219) scale(0.1 -0.1)">
       <use xlink:href="#DejaVuSans-33"/>
      </g>
     </g>
    </g>
    <g id="ytick_5">
     <g id="line2d_12">
      <g>
       <use xlink:href="#mb6b2065dba" x="103.104" y="136.512" style="stroke: #000000; stroke-width: 0.8"/>
      </g>
     </g>
     <g id="text_12">
      <!-- 4 -->
      <g transform="translate(89.7415 140.311219) scale(0.1 -0.1)">
       <use xlink:href="#DejaVuSans-34"/>
      </g>
     </g>
    </g>
    <g id="ytick_6">
     <g id="line2d_13">
      <g>
       <use xlink:href="#mb6b2065dba" x="103.104" y="98.496" style="stroke: #000000; stroke-width: 0.8"/>
      </g>
     </g>
     <g id="text_13">
      <!-- 5 -->
      <g transform="translate(89.7415 102.295219) scale(0.1 -0.1)">
       <use xlink:href="#DejaVuSans-35"/>
      </g>
     </g>
    </g>
    <g id="ytick_7">
     <g id="line2d_14">
      <g>
       <use xlink:href="#mb6b2065dba" x="103.104" y="60.48" style="stroke: #000000; stroke-width: 0.8"/>
      </g>
     </g>
     <g id="text_14">
      <!-- 6 -->
      <g transform="translate(89.7415 64.279219) scale(0.1 -0.1)">
       <use xlink:href="#DejaVuSans-36"/>
      </g>
     </g>
    </g>
   </g>
   <g id="line2d_15">
    <path d="M 103.104 272.531668 
L 106.9056 271.349639 
L 110.7072 270.402996 
L 114.12864 269.769012 
L 117.55008 269.353101 
L 120.97152 269.16256 
L 124.39296 269.200743 
L 127.8144 269.466978 
L 131.23584 269.95658 
L 134.65728 270.660979 
L 138.45888 271.680575 
L 142.26048 272.928586 
L 146.44224 274.5341 
L 151.00416 276.518312 
L 156.70656 279.256134 
L 165.07008 283.56142 
L 176.47488 289.415236 
L 182.55744 292.295005 
L 187.87968 294.588615 
L 192.82176 296.495452 
L 197.76384 298.170125 
L 202.70592 299.606423 
L 207.648 300.807024 
L 212.59008 301.781299 
L 217.91232 302.593002 
L 223.23456 303.176865 
L 228.93696 303.569474 
L 234.63936 303.736678 
L 240.34176 303.685999 
L 246.04416 303.415111 
L 251.74656 302.912247 
L 257.0688 302.21682 
L 262.01088 301.35896 
L 266.95296 300.281718 
L 271.89504 298.973149 
L 276.83712 297.426673 
L 281.7792 295.643467 
L 287.10144 293.471125 
L 292.80384 290.885562 
L 299.26656 287.701833 
L 311.05152 281.58027 
L 318.65472 277.766371 
L 323.97696 275.334297 
L 328.53888 273.486057 
L 332.72064 272.032099 
L 336.52224 270.941497 
L 340.32384 270.094926 
L 343.74528 269.556717 
L 347.16672 269.240301 
L 350.58816 269.151239 
L 354.0096 269.291102 
L 357.43104 269.657424 
L 360.85248 270.243774 
L 364.27392 271.039919 
L 368.07552 272.153734 
L 368.83584 272.403545 
L 368.83584 272.403545 
" clip-path="url(#pa85e32aa38)" style="fill: none; stroke: #1f77b4; stroke-width: 1.5; stroke-linecap: square"/>
   </g>
   <g id="line2d_16">
    <path d="M 99.55584 41.472 
L 99.55584 273.825498 
" clip-path="url(#pa85e32aa38)" style="fill: none; stroke: #ff7f0e; stroke-width: 0.5; stroke-linecap: square"/>
   </g>
   <g id="line2d_17">
    <path d="M 99.55584 273.825498 
L -1 163.903003 
" clip-path="url(#pa85e32aa38)" style="fill: none; stroke: #2ca02c; stroke-width: 0.5; stroke-linecap: square"/>
   </g>
   <g id="line2d_18">
    <path d="M 103.104 41.472 
L 103.104 272.531668 
" clip-path="url(#pa85e32aa38)" style="fill: none; stroke: #d62728; stroke-width: 0.5; stroke-linecap: square"/>
   </g>
   <g id="line2d_19">
    <path d="M 103.104 272.531668 
L -1 137.03983 
" clip-path="url(#pa85e32aa38)" style="fill: none; stroke: #9467bd; stroke-width: 0.5; stroke-linecap: square"/>
   </g>
   <g id="line2d_20">
    <path d="M 106.65216 41.472 
L 106.65216 271.421368 
" clip-path="url(#pa85e32aa38)" style="fill: none; stroke: #8c564b; stroke-width: 0.5; stroke-linecap: square"/>
   </g>
   <g id="line2d_21">
    <path d="M 106.65216 271.421368 
L -1 97.956879 
" clip-path="url(#pa85e32aa38)" style="fill: none; stroke: #e377c2; stroke-width: 0.5; stroke-linecap: square"/>
   </g>
   <g id="line2d_22">
    <path d="M 110.20032 41.472 
L 110.20032 270.51484 
" clip-path="url(#pa85e32aa38)" style="fill: none; stroke: #7f7f7f; stroke-width: 0.5; stroke-linecap: square"/>
   </g>
   <g id="line2d_23">
    <path d="M 110.20032 270.51484 
L 1.574547 41.472 
" clip-path="url(#pa85e32aa38)" style="fill: none; stroke: #bcbd22; stroke-width: 0.5; stroke-linecap: square"/>
   </g>
   <g id="line2d_24">
    <path d="M 113.74848 41.472 
L 113.74848 269.828856 
" clip-path="url(#pa85e32aa38)" style="fill: none; stroke: #17becf; stroke-width: 0.5; stroke-linecap: square"/>
   </g>
   <g id="line2d_25">
    <path d="M 113.74848 269.828856 
L 38.284078 41.472 
" clip-path="url(#pa85e32aa38)" style="fill: none; stroke: #1f77b4; stroke-width: 0.5; stroke-linecap: square"/>
   </g>
   <g id="line2d_26">
    <path d="M 117.29664 41.472 
L 117.29664 269.376248 
" clip-path="url(#pa85e32aa38)" style="fill: none; stroke: #ff7f0e; stroke-width: 0.5; stroke-linecap: square"/>
   </g>
   <g id="line2d_27">
    <path d="M 117.29664 269.376248 
L 74.177268 41.472 
" clip-path="url(#pa85e32aa38)" style="fill: none; stroke: #2ca02c; stroke-width: 0.5; stroke-linecap: square"/>
   </g>
   <g id="line2d_28">
    <path d="M 120.8448 41.472 
L 120.8448 269.165547 
" clip-path="url(#pa85e32aa38)" style="fill: none; stroke: #d62728; stroke-width: 0.5; stroke-linecap: square"/>
   </g>
   <g id="line2d_29">
    <path d="M 120.8448 269.165547 
L 109.539597 41.472 
" clip-path="url(#pa85e32aa38)" style="fill: none; stroke: #9467bd; stroke-width: 0.5; stroke-linecap: square"/>
   </g>
   <g id="line2d_30">
    <path d="M 124.39296 41.472 
L 124.39296 269.200743 
" clip-path="url(#pa85e32aa38)" style="fill: none; stroke: #8c564b; stroke-width: 0.5; stroke-linecap: square"/>
   </g>
   <g id="line2d_31">
    <path d="M 124.39296 269.200743 
L 144.755076 41.472 
" clip-path="url(#pa85e32aa38)" style="fill: none; stroke: #e377c2; stroke-width: 0.5; stroke-linecap: square"/>
   </g>
   <g id="line2d_32">
    <path d="M 127.94112 41.472 
L 127.94112 269.481169 
" clip-path="url(#pa85e32aa38)" style="fill: none; stroke: #7f7f7f; stroke-width: 0.5; stroke-linecap: square"/>
   </g>
   <g id="line2d_33">
    <path d="M 127.94112 269.481169 
L 180.23276 41.472 
" clip-path="url(#pa85e32aa38)" style="fill: none; stroke: #bcbd22; stroke-width: 0.5; stroke-linecap: square"/>
   </g>
   <g id="line2d_34">
    <path d="M 131.48928 41.472 
L 131.48928 270.001521 
" clip-path="url(#pa85e32aa38)" style="fill: none; stroke: #17becf; stroke-width: 0.5; stroke-linecap: square"/>
   </g>
   <g id="line2d_35">
    <path d="M 131.48928 270.001521 
L 216.336351 41.472 
" clip-path="url(#pa85e32aa38)" style="fill: none; stroke: #1f77b4; stroke-width: 0.5; stroke-linecap: square"/>
   </g>
   <g id="line2d_36">
    <path d="M 135.03744 41.472 
L 135.03744 270.752007 
" clip-path="url(#pa85e32aa38)" style="fill: none; stroke: #ff7f0e; stroke-width: 0.5; stroke-linecap: square"/>
   </g>
   <g id="line2d_37">
    <path d="M 135.03744 270.752007 
L 253.308357 41.472 
" clip-path="url(#pa85e32aa38)" style="fill: none; stroke: #2ca02c; stroke-width: 0.5; stroke-linecap: square"/>
   </g>
   <g id="line2d_38">
    <path d="M 138.5856 41.472 
L 138.5856 271.718628 
" clip-path="url(#pa85e32aa38)" style="fill: none; stroke: #d62728; stroke-width: 0.5; stroke-linecap: square"/>
   </g>
   <g id="line2d_39">
    <path d="M 138.5856 271.718628 
L 291.182787 41.472 
" clip-path="url(#pa85e32aa38)" style="fill: none; stroke: #9467bd; stroke-width: 0.5; stroke-linecap: square"/>
   </g>
   <g id="line2d_40">
    <path d="M 142.13376 41.472 
L 142.13376 272.883569 
" clip-path="url(#pa85e32aa38)" style="fill: none; stroke: #8c564b; stroke-width: 0.5; stroke-linecap: square"/>
   </g>
   <g id="line2d_41">
    <path d="M 142.13376 272.883569 
L 329.687524 41.472 
" clip-path="url(#pa85e32aa38)" style="fill: none; stroke: #e377c2; stroke-width: 0.5; stroke-linecap: square"/>
   </g>
   <g id="line2d_42">
    <path d="M 145.68192 41.472 
L 145.68192 274.225697 
" clip-path="url(#pa85e32aa38)" style="fill: none; stroke: #7f7f7f; stroke-width: 0.5; stroke-linecap: square"/>
   </g>
   <g id="line2d_43">
    <path d="M 145.68192 274.225697 
L 368.150517 41.472 
" clip-path="url(#pa85e32aa38)" style="fill: none; stroke: #bcbd22; stroke-width: 0.5; stroke-linecap: square"/>
   </g>
   <g id="line2d_44">
    <path d="M 149.23008 41.472 
L 149.23008 275.721142 
" clip-path="url(#pa85e32aa38)" style="fill: none; stroke: #17becf; stroke-width: 0.5; stroke-linecap: square"/>
   </g>
   <g id="line2d_45">
    <path d="M 149.23008 275.721142 
L 405.441974 41.472 
" clip-path="url(#pa85e32aa38)" style="fill: none; stroke: #1f77b4; stroke-width: 0.5; stroke-linecap: square"/>
   </g>
   <g id="line2d_46">
    <path d="M 152.77824 41.472 
L 152.77824 277.343952 
" clip-path="url(#pa85e32aa38)" style="fill: none; stroke: #ff7f0e; stroke-width: 0.5; stroke-linecap: square"/>
   </g>
   <g id="line2d_47">
    <path d="M 152.77824 277.343952 
L 440.000663 41.472 
" clip-path="url(#pa85e32aa38)" style="fill: none; stroke: #2ca02c; stroke-width: 0.5; stroke-linecap: square"/>
   </g>
   <g id="line2d_48">
    <path d="M 156.3264 41.472 
L 156.3264 279.066779 
" clip-path="url(#pa85e32aa38)" style="fill: none; stroke: #d62728; stroke-width: 0.5; stroke-linecap: square"/>
   </g>
   <g id="line2d_49">
    <path d="M 156.3264 279.066779 
L 461.8 47.676408 
" clip-path="url(#pa85e32aa38)" style="fill: none; stroke: #9467bd; stroke-width: 0.5; stroke-linecap: square"/>
   </g>
   <g id="line2d_50">
    <path d="M 159.87456 41.472 
L 159.87456 280.861595 
" clip-path="url(#pa85e32aa38)" style="fill: none; stroke: #8c564b; stroke-width: 0.5; stroke-linecap: square"/>
   </g>
   <g id="line2d_51">
    <path d="M 159.87456 280.861595 
L 461.8 64.282979 
" clip-path="url(#pa85e32aa38)" style="fill: none; stroke: #e377c2; stroke-width: 0.5; stroke-linecap: square"/>
   </g>
   <g id="line2d_52">
    <path d="M 163.42272 41.472 
L 163.42272 282.7004 
" clip-path="url(#pa85e32aa38)" style="fill: none; stroke: #7f7f7f; stroke-width: 0.5; stroke-linecap: square"/>
   </g>
   <g id="line2d_53">
    <path d="M 163.42272 282.7004 
L 461.8 74.671054 
" clip-path="url(#pa85e32aa38)" style="fill: none; stroke: #bcbd22; stroke-width: 0.5; stroke-linecap: square"/>
   </g>
   <g id="line2d_54">
    <path d="M 166.97088 41.472 
L 166.97088 284.555903 
" clip-path="url(#pa85e32aa38)" style="fill: none; stroke: #17becf; stroke-width: 0.5; stroke-linecap: square"/>
   </g>
   <g id="line2d_55">
    <path d="M 166.97088 284.555903 
L 461.8 79.669215 
" clip-path="url(#pa85e32aa38)" style="fill: none; stroke: #1f77b4; stroke-width: 0.5; stroke-linecap: square"/>
   </g>
   <g id="line2d_56">
    <path d="M 170.51904 41.472 
L 170.51904 286.402156 
" clip-path="url(#pa85e32aa38)" style="fill: none; stroke: #ff7f0e; stroke-width: 0.5; stroke-linecap: square"/>
   </g>
   <g id="line2d_57">
    <path d="M 170.51904 286.402156 
L 461.8 79.806099 
" clip-path="url(#pa85e32aa38)" style="fill: none; stroke: #2ca02c; stroke-width: 0.5; stroke-linecap: square"/>
   </g>
   <g id="line2d_58">
    <path d="M 174.0672 41.472 
L 174.0672 288.21511 
" clip-path="url(#pa85e32aa38)" style="fill: none; stroke: #d62728; stroke-width: 0.5; stroke-linecap: square"/>
   </g>
   <g id="line2d_59">
    <path d="M 174.0672 288.21511 
L 461.8 75.392632 
" clip-path="url(#pa85e32aa38)" style="fill: none; stroke: #9467bd; stroke-width: 0.5; stroke-linecap: square"/>
   </g>
   <g id="line2d_60">
    <path d="M 177.61536 41.472 
L 177.61536 289.973095 
" clip-path="url(#pa85e32aa38)" style="fill: none; stroke: #8c564b; stroke-width: 0.5; stroke-linecap: square"/>
   </g>
   <g id="line2d_61">
    <path d="M 177.61536 289.973095 
L 461.8 66.563099 
" clip-path="url(#pa85e32aa38)" style="fill: none; stroke: #e377c2; stroke-width: 0.5; stroke-linecap: square"/>
   </g>
   <g id="line2d_62">
    <path d="M 181.16352 41.472 
L 181.16352 291.657189 
" clip-path="url(#pa85e32aa38)" style="fill: none; stroke: #7f7f7f; stroke-width: 0.5; stroke-linecap: square"/>
   </g>
   <g id="line2d_63">
    <path d="M 181.16352 291.657189 
L 461.8 53.289501 
" clip-path="url(#pa85e32aa38)" style="fill: none; stroke: #bcbd22; stroke-width: 0.5; stroke-linecap: square"/>
   </g>
   <g id="line2d_64">
    <path d="M 184.71168 41.472 
L 184.71168 293.251483 
" clip-path="url(#pa85e32aa38)" style="fill: none; stroke: #17becf; stroke-width: 0.5; stroke-linecap: square"/>
   </g>
   <g id="line2d_65">
    <path d="M 184.71168 293.251483 
L 455.249607 41.472 
" clip-path="url(#pa85e32aa38)" style="fill: none; stroke: #1f77b4; stroke-width: 0.5; stroke-linecap: square"/>
   </g>
   <g id="line2d_66">
    <path d="M 188.25984 41.472 
L 188.25984 294.743224 
" clip-path="url(#pa85e32aa38)" style="fill: none; stroke: #ff7f0e; stroke-width: 0.5; stroke-linecap: square"/>
   </g>
   <g id="line2d_67">
    <path d="M 188.25984 294.743224 
L 433.663671 41.472 
" clip-path="url(#pa85e32aa38)" style="fill: none; stroke: #2ca02c; stroke-width: 0.5; stroke-linecap: square"/>
   </g>
   <g id="line2d_68">
    <path d="M 191.808 41.472 
L 191.808 296.122847 
" clip-path="url(#pa85e32aa38)" style="fill: none; stroke: #d62728; stroke-width: 0.5; stroke-linecap: square"/>
   </g>
   <g id="line2d_69">
    <path d="M 191.808 296.122847 
L 411.97075 41.472 
" clip-path="url(#pa85e32aa38)" style="fill: none; stroke: #9467bd; stroke-width: 0.5; stroke-linecap: square"/>
   </g>
   <g id="line2d_70">
    <path d="M 195.35616 41.472 
L 195.35616 297.383883 
" clip-path="url(#pa85e32aa38)" style="fill: none; stroke: #8c564b; stroke-width: 0.5; stroke-linecap: square"/>
   </g>
   <g id="line2d_71">
    <path d="M 195.35616 297.383883 
L 390.880028 41.472 
" clip-path="url(#pa85e32aa38)" style="fill: none; stroke: #e377c2; stroke-width: 0.5; stroke-linecap: square"/>
   </g>
   <g id="line2d_72">
    <path d="M 198.90432 41.472 
L 198.90432 298.522767 
" clip-path="url(#pa85e32aa38)" style="fill: none; stroke: #7f7f7f; stroke-width: 0.5; stroke-linecap: square"/>
   </g>
   <g id="line2d_73">
    <path d="M 198.90432 298.522767 
L 370.846458 41.472 
" clip-path="url(#pa85e32aa38)" style="fill: none; stroke: #bcbd22; stroke-width: 0.5; stroke-linecap: square"/>
   </g>
   <g id="line2d_74">
    <path d="M 202.45248 41.472 
L 202.45248 299.538555 
" clip-path="url(#pa85e32aa38)" style="fill: none; stroke: #17becf; stroke-width: 0.5; stroke-linecap: square"/>
   </g>
   <g id="line2d_75">
    <path d="M 202.45248 299.538555 
L 352.131679 41.472 
" clip-path="url(#pa85e32aa38)" style="fill: none; stroke: #1f77b4; stroke-width: 0.5; stroke-linecap: square"/>
   </g>
   <g id="line2d_76">
    <path d="M 206.00064 41.472 
L 206.00064 300.432545 
" clip-path="url(#pa85e32aa38)" style="fill: none; stroke: #ff7f0e; stroke-width: 0.5; stroke-linecap: square"/>
   </g>
   <g id="line2d_77">
    <path d="M 206.00064 300.432545 
L 334.858348 41.472 
" clip-path="url(#pa85e32aa38)" style="fill: none; stroke: #2ca02c; stroke-width: 0.5; stroke-linecap: square"/>
   </g>
   <g id="line2d_78">
    <path d="M 209.5488 41.472 
L 209.5488 301.207854 
" clip-path="url(#pa85e32aa38)" style="fill: none; stroke: #d62728; stroke-width: 0.5; stroke-linecap: square"/>
   </g>
   <g id="line2d_79">
    <path d="M 209.5488 301.207854 
L 319.051899 41.472 
" clip-path="url(#pa85e32aa38)" style="fill: none; stroke: #9467bd; stroke-width: 0.5; stroke-linecap: square"/>
   </g>
   <g id="line2d_80">
    <path d="M 213.09696 41.472 
L 213.09696 301.868942 
" clip-path="url(#pa85e32aa38)" style="fill: none; stroke: #8c564b; stroke-width: 0.5; stroke-linecap: square"/>
   </g>
   <g id="line2d_81">
    <path d="M 213.09696 301.868942 
L 304.669342 41.472 
" clip-path="url(#pa85e32aa38)" style="fill: none; stroke: #e377c2; stroke-width: 0.5; stroke-linecap: square"/>
   </g>
   <g id="line2d_82">
    <path d="M 216.64512 41.472 
L 216.64512 302.421115 
" clip-path="url(#pa85e32aa38)" style="fill: none; stroke: #7f7f7f; stroke-width: 0.5; stroke-linecap: square"/>
   </g>
   <g id="line2d_83">
    <path d="M 216.64512 302.421115 
L 291.617405 41.472 
" clip-path="url(#pa85e32aa38)" style="fill: none; stroke: #bcbd22; stroke-width: 0.5; stroke-linecap: square"/>
   </g>
   <g id="line2d_84">
    <path d="M 220.19328 41.472 
L 220.19328 302.870037 
" clip-path="url(#pa85e32aa38)" style="fill: none; stroke: #17becf; stroke-width: 0.5; stroke-linecap: square"/>
   </g>
   <g id="line2d_85">
    <path d="M 220.19328 302.870037 
L 279.763182 41.472 
" clip-path="url(#pa85e32aa38)" style="fill: none; stroke: #1f77b4; stroke-width: 0.5; stroke-linecap: square"/>
   </g>
   <g id="line2d_86">
    <path d="M 223.74144 41.472 
L 223.74144 303.221255 
" clip-path="url(#pa85e32aa38)" style="fill: none; stroke: #ff7f0e; stroke-width: 0.5; stroke-linecap: square"/>
   </g>
   <g id="line2d_87">
    <path d="M 223.74144 303.221255 
L 268.940406 41.472 
" clip-path="url(#pa85e32aa38)" style="fill: none; stroke: #2ca02c; stroke-width: 0.5; stroke-linecap: square"/>
   </g>
   <g id="line2d_88">
    <path d="M 227.2896 41.472 
L 227.2896 303.479773 
" clip-path="url(#pa85e32aa38)" style="fill: none; stroke: #d62728; stroke-width: 0.5; stroke-linecap: square"/>
   </g>
   <g id="line2d_89">
    <path d="M 227.2896 303.479773 
L 258.953895 41.472 
" clip-path="url(#pa85e32aa38)" style="fill: none; stroke: #9467bd; stroke-width: 0.5; stroke-linecap: square"/>
   </g>
   <g id="line2d_90">
    <path d="M 230.83776 41.472 
L 230.83776 303.649687 
" clip-path="url(#pa85e32aa38)" style="fill: none; stroke: #8c564b; stroke-width: 0.5; stroke-linecap: square"/>
   </g>
   <g id="line2d_91">
    <path d="M 230.83776 303.649687 
L 249.584018 41.472 
" clip-path="url(#pa85e32aa38)" style="fill: none; stroke: #e377c2; stroke-width: 0.5; stroke-linecap: square"/>
   </g>
   <g id="line2d_92">
    <path d="M 234.38592 41.472 
L 234.38592 303.733894 
" clip-path="url(#pa85e32aa38)" style="fill: none; stroke: #7f7f7f; stroke-width: 0.5; stroke-linecap: square"/>
   </g>
   <g id="line2d_93">
    <path d="M 234.38592 303.733894 
L 240.592204 41.472 
" clip-path="url(#pa85e32aa38)" style="fill: none; stroke: #bcbd22; stroke-width: 0.5; stroke-linecap: square"/>
   </g>
   <g id="line2d_94">
    <path d="M 237.93408 41.472 
L 237.93408 303.733894 
" clip-path="url(#pa85e32aa38)" style="fill: none; stroke: #17becf; stroke-width: 0.5; stroke-linecap: square"/>
   </g>
   <g id="line2d_95">
    <path d="M 237.93408 303.733894 
L 231.727796 41.472 
" clip-path="url(#pa85e32aa38)" style="fill: none; stroke: #1f77b4; stroke-width: 0.5; stroke-linecap: square"/>
   </g>
   <g id="line2d_96">
    <path d="M 241.48224 41.472 
L 241.48224 303.649687 
" clip-path="url(#pa85e32aa38)" style="fill: none; stroke: #ff7f0e; stroke-width: 0.5; stroke-linecap: square"/>
   </g>
   <g id="line2d_97">
    <path d="M 241.48224 303.649687 
L 222.735982 41.472 
" clip-path="url(#pa85e32aa38)" style="fill: none; stroke: #2ca02c; stroke-width: 0.5; stroke-linecap: square"/>
   </g>
   <g id="line2d_98">
    <path d="M 245.0304 41.472 
L 245.0304 303.479773 
" clip-path="url(#pa85e32aa38)" style="fill: none; stroke: #d62728; stroke-width: 0.5; stroke-linecap: square"/>
   </g>
   <g id="line2d_99">
    <path d="M 245.0304 303.479773 
L 213.366105 41.472 
" clip-path="url(#pa85e32aa38)" style="fill: none; stroke: #9467bd; stroke-width: 0.5; stroke-linecap: square"/>
   </g>
   <g id="line2d_100">
    <path d="M 248.57856 41.472 
L 248.57856 303.221255 
" clip-path="url(#pa85e32aa38)" style="fill: none; stroke: #8c564b; stroke-width: 0.5; stroke-linecap: square"/>
   </g>
   <g id="line2d_101">
    <path d="M 248.57856 303.221255 
L 203.379594 41.472 
" clip-path="url(#pa85e32aa38)" style="fill: none; stroke: #e377c2; stroke-width: 0.5; stroke-linecap: square"/>
   </g>
   <g id="line2d_102">
    <path d="M 252.12672 41.472 
L 252.12672 302.870037 
" clip-path="url(#pa85e32aa38)" style="fill: none; stroke: #7f7f7f; stroke-width: 0.5; stroke-linecap: square"/>
   </g>
   <g id="line2d_103">
    <path d="M 252.12672 302.870037 
L 192.556818 41.472 
" clip-path="url(#pa85e32aa38)" style="fill: none; stroke: #bcbd22; stroke-width: 0.5; stroke-linecap: square"/>
   </g>
   <g id="line2d_104">
    <path d="M 255.67488 41.472 
L 255.67488 302.421115 
" clip-path="url(#pa85e32aa38)" style="fill: none; stroke: #17becf; stroke-width: 0.5; stroke-linecap: square"/>
   </g>
   <g id="line2d_105">
    <path d="M 255.67488 302.421115 
L 180.702595 41.472 
" clip-path="url(#pa85e32aa38)" style="fill: none; stroke: #1f77b4; stroke-width: 0.5; stroke-linecap: square"/>
   </g>
   <g id="line2d_106">
    <path d="M 259.22304 41.472 
L 259.22304 301.868942 
" clip-path="url(#pa85e32aa38)" style="fill: none; stroke: #ff7f0e; stroke-width: 0.5; stroke-linecap: square"/>
   </g>
   <g id="line2d_107">
    <path d="M 259.22304 301.868942 
L 167.650658 41.472 
" clip-path="url(#pa85e32aa38)" style="fill: none; stroke: #2ca02c; stroke-width: 0.5; stroke-linecap: square"/>
   </g>
   <g id="line2d_108">
    <path d="M 262.7712 41.472 
L 262.7712 301.207854 
" clip-path="url(#pa85e32aa38)" style="fill: none; stroke: #d62728; stroke-width: 0.5; stroke-linecap: square"/>
   </g>
   <g id="line2d_109">
    <path d="M 262.7712 301.207854 
L 153.268101 41.472 
" clip-path="url(#pa85e32aa38)" style="fill: none; stroke: #9467bd; stroke-width: 0.5; stroke-linecap: square"/>
   </g>
   <g id="line2d_110">
    <path d="M 266.31936 41.472 
L 266.31936 300.432545 
" clip-path="url(#pa85e32aa38)" style="fill: none; stroke: #8c564b; stroke-width: 0.5; stroke-linecap: square"/>
   </g>
   <g id="line2d_111">
    <path d="M 266.31936 300.432545 
L 137.461652 41.472 
" clip-path="url(#pa85e32aa38)" style="fill: none; stroke: #e377c2; stroke-width: 0.5; stroke-linecap: square"/>
   </g>
   <g id="line2d_112">
    <path d="M 269.86752 41.472 
L 269.86752 299.538555 
" clip-path="url(#pa85e32aa38)" style="fill: none; stroke: #7f7f7f; stroke-width: 0.5; stroke-linecap: square"/>
   </g>
   <g id="line2d_113">
    <path d="M 269.86752 299.538555 
L 120.188321 41.472 
" clip-path="url(#pa85e32aa38)" style="fill: none; stroke: #bcbd22; stroke-width: 0.5; stroke-linecap: square"/>
   </g>
   <g id="line2d_114">
    <path d="M 273.41568 41.472 
L 273.41568 298.522767 
" clip-path="url(#pa85e32aa38)" style="fill: none; stroke: #17becf; stroke-width: 0.5; stroke-linecap: square"/>
   </g>
   <g id="line2d_115">
    <path d="M 273.41568 298.522767 
L 101.473542 41.472 
" clip-path="url(#pa85e32aa38)" style="fill: none; stroke: #1f77b4; stroke-width: 0.5; stroke-linecap: square"/>
   </g>
   <g id="line2d_116">
    <path d="M 276.96384 41.472 
L 276.96384 297.383883 
" clip-path="url(#pa85e32aa38)" style="fill: none; stroke: #ff7f0e; stroke-width: 0.5; stroke-linecap: square"/>
   </g>
   <g id="line2d_117">
    <path d="M 276.96384 297.383883 
L 81.439972 41.472 
" clip-path="url(#pa85e32aa38)" style="fill: none; stroke: #2ca02c; stroke-width: 0.5; stroke-linecap: square"/>
   </g>
   <g id="line2d_118">
    <path d="M 280.512 41.472 
L 280.512 296.122847 
" clip-path="url(#pa85e32aa38)" style="fill: none; stroke: #d62728; stroke-width: 0.5; stroke-linecap: square"/>
   </g>
   <g id="line2d_119">
    <path d="M 280.512 296.122847 
L 60.34925 41.472 
" clip-path="url(#pa85e32aa38)" style="fill: none; stroke: #9467bd; stroke-width: 0.5; stroke-linecap: square"/>
   </g>
   <g id="line2d_120">
    <path d="M 284.06016 41.472 
L 284.06016 294.743224 
" clip-path="url(#pa85e32aa38)" style="fill: none; stroke: #8c564b; stroke-width: 0.5; stroke-linecap: square"/>
   </g>
   <g id="line2d_121">
    <path d="M 284.06016 294.743224 
L 38.656329 41.472 
" clip-path="url(#pa85e32aa38)" style="fill: none; stroke: #e377c2; stroke-width: 0.5; stroke-linecap: square"/>
   </g>
   <g id="line2d_122">
    <path d="M 287.60832 41.472 
L 287.60832 293.251483 
" clip-path="url(#pa85e32aa38)" style="fill: none; stroke: #7f7f7f; stroke-width: 0.5; stroke-linecap: square"/>
   </g>
   <g id="line2d_123">
    <path d="M 287.60832 293.251483 
L 17.070393 41.472 
" clip-path="url(#pa85e32aa38)" style="fill: none; stroke: #bcbd22; stroke-width: 0.5; stroke-linecap: square"/>
   </g>
   <g id="line2d_124">
    <path d="M 291.15648 41.472 
L 291.15648 291.657189 
" clip-path="url(#pa85e32aa38)" style="fill: none; stroke: #17becf; stroke-width: 0.5; stroke-linecap: square"/>
   </g>
   <g id="line2d_125">
    <path d="M 291.15648 291.657189 
L -1 43.504616 
" clip-path="url(#pa85e32aa38)" style="fill: none; stroke: #1f77b4; stroke-width: 0.5; stroke-linecap: square"/>
   </g>
   <g id="line2d_126">
    <path d="M 294.70464 41.472 
L 294.70464 289.973095 
" clip-path="url(#pa85e32aa38)" style="fill: none; stroke: #ff7f0e; stroke-width: 0.5; stroke-linecap: square"/>
   </g>
   <g id="line2d_127">
    <path d="M 294.70464 289.973095 
L -1 57.506723 
" clip-path="url(#pa85e32aa38)" style="fill: none; stroke: #2ca02c; stroke-width: 0.5; stroke-linecap: square"/>
   </g>
   <g id="line2d_128">
    <path d="M 298.2528 41.472 
L 298.2528 288.21511 
" clip-path="url(#pa85e32aa38)" style="fill: none; stroke: #d62728; stroke-width: 0.5; stroke-linecap: square"/>
   </g>
   <g id="line2d_129">
    <path d="M 298.2528 288.21511 
L -1 66.871828 
" clip-path="url(#pa85e32aa38)" style="fill: none; stroke: #9467bd; stroke-width: 0.5; stroke-linecap: square"/>
   </g>
   <g id="line2d_130">
    <path d="M 301.80096 41.472 
L 301.80096 286.402156 
" clip-path="url(#pa85e32aa38)" style="fill: none; stroke: #8c564b; stroke-width: 0.5; stroke-linecap: square"/>
   </g>
   <g id="line2d_131">
    <path d="M 301.80096 286.402156 
L -1 71.63534 
" clip-path="url(#pa85e32aa38)" style="fill: none; stroke: #e377c2; stroke-width: 0.5; stroke-linecap: square"/>
   </g>
   <g id="line2d_132">
    <path d="M 305.34912 41.472 
L 305.34912 284.555903 
" clip-path="url(#pa85e32aa38)" style="fill: none; stroke: #7f7f7f; stroke-width: 0.5; stroke-linecap: square"/>
   </g>
   <g id="line2d_133">
    <path d="M 305.34912 284.555903 
L -1 71.663579 
" clip-path="url(#pa85e32aa38)" style="fill: none; stroke: #bcbd22; stroke-width: 0.5; stroke-linecap: square"/>
   </g>
   <g id="line2d_134">
    <path d="M 308.89728 41.472 
L 308.89728 282.7004 
" clip-path="url(#pa85e32aa38)" style="fill: none; stroke: #17becf; stroke-width: 0.5; stroke-linecap: square"/>
   </g>
   <g id="line2d_135">
    <path d="M 308.89728 282.7004 
L -1 66.639283 
" clip-path="url(#pa85e32aa38)" style="fill: none; stroke: #1f77b4; stroke-width: 0.5; stroke-linecap: square"/>
   </g>
   <g id="line2d_136">
    <path d="M 312.44544 41.472 
L 312.44544 280.861595 
" clip-path="url(#pa85e32aa38)" style="fill: none; stroke: #ff7f0e; stroke-width: 0.5; stroke-linecap: square"/>
   </g>
   <g id="line2d_137">
    <path d="M 312.44544 280.861595 
L -1 56.019397 
" clip-path="url(#pa85e32aa38)" style="fill: none; stroke: #2ca02c; stroke-width: 0.5; stroke-linecap: square"/>
   </g>
   <g id="line2d_138">
    <path d="M 315.9936 41.472 
L 315.9936 279.066779 
" clip-path="url(#pa85e32aa38)" style="fill: none; stroke: #d62728; stroke-width: 0.5; stroke-linecap: square"/>
   </g>
   <g id="line2d_139">
    <path d="M 315.9936 279.066779 
L 2.329154 41.472 
" clip-path="url(#pa85e32aa38)" style="fill: none; stroke: #9467bd; stroke-width: 0.5; stroke-linecap: square"/>
   </g>
   <g id="line2d_140">
    <path d="M 319.54176 41.472 
L 319.54176 277.343952 
" clip-path="url(#pa85e32aa38)" style="fill: none; stroke: #8c564b; stroke-width: 0.5; stroke-linecap: square"/>
   </g>
   <g id="line2d_141">
    <path d="M 319.54176 277.343952 
L 32.319337 41.472 
" clip-path="url(#pa85e32aa38)" style="fill: none; stroke: #e377c2; stroke-width: 0.5; stroke-linecap: square"/>
   </g>
   <g id="line2d_142">
    <path d="M 323.08992 41.472 
L 323.08992 275.721142 
" clip-path="url(#pa85e32aa38)" style="fill: none; stroke: #7f7f7f; stroke-width: 0.5; stroke-linecap: square"/>
   </g>
   <g id="line2d_143">
    <path d="M 323.08992 275.721142 
L 66.878026 41.472 
" clip-path="url(#pa85e32aa38)" style="fill: none; stroke: #bcbd22; stroke-width: 0.5; stroke-linecap: square"/>
   </g>
   <g id="line2d_144">
    <path d="M 326.63808 41.472 
L 326.63808 274.225697 
" clip-path="url(#pa85e32aa38)" style="fill: none; stroke: #17becf; stroke-width: 0.5; stroke-linecap: square"/>
   </g>
   <g id="line2d_145">
    <path d="M 326.63808 274.225697 
L 104.169483 41.472 
" clip-path="url(#pa85e32aa38)" style="fill: none; stroke: #1f77b4; stroke-width: 0.5; stroke-linecap: square"/>
   </g>
   <g id="line2d_146">
    <path d="M 330.18624 41.472 
L 330.18624 272.883569 
" clip-path="url(#pa85e32aa38)" style="fill: none; stroke: #ff7f0e; stroke-width: 0.5; stroke-linecap: square"/>
   </g>
   <g id="line2d_147">
    <path d="M 330.18624 272.883569 
L 142.632476 41.472 
" clip-path="url(#pa85e32aa38)" style="fill: none; stroke: #2ca02c; stroke-width: 0.5; stroke-linecap: square"/>
   </g>
   <g id="line2d_148">
    <path d="M 333.7344 41.472 
L 333.7344 271.718628 
" clip-path="url(#pa85e32aa38)" style="fill: none; stroke: #d62728; stroke-width: 0.5; stroke-linecap: square"/>
   </g>
   <g id="line2d_149">
    <path d="M 333.7344 271.718628 
L 181.137213 41.472 
" clip-path="url(#pa85e32aa38)" style="fill: none; stroke: #9467bd; stroke-width: 0.5; stroke-linecap: square"/>
   </g>
   <g id="line2d_150">
    <path d="M 337.28256 41.472 
L 337.28256 270.752007 
" clip-path="url(#pa85e32aa38)" style="fill: none; stroke: #8c564b; stroke-width: 0.5; stroke-linecap: square"/>
   </g>
   <g id="line2d_151">
    <path d="M 337.28256 270.752007 
L 219.011643 41.472 
" clip-path="url(#pa85e32aa38)" style="fill: none; stroke: #e377c2; stroke-width: 0.5; stroke-linecap: square"/>
   </g>
   <g id="line2d_152">
    <path d="M 340.83072 41.472 
L 340.83072 270.001521 
" clip-path="url(#pa85e32aa38)" style="fill: none; stroke: #7f7f7f; stroke-width: 0.5; stroke-linecap: square"/>
   </g>
   <g id="line2d_153">
    <path d="M 340.83072 270.001521 
L 255.983649 41.472 
" clip-path="url(#pa85e32aa38)" style="fill: none; stroke: #bcbd22; stroke-width: 0.5; stroke-linecap: square"/>
   </g>
   <g id="line2d_154">
    <path d="M 344.37888 41.472 
L 344.37888 269.481169 
" clip-path="url(#pa85e32aa38)" style="fill: none; stroke: #17becf; stroke-width: 0.5; stroke-linecap: square"/>
   </g>
   <g id="line2d_155">
    <path d="M 344.37888 269.481169 
L 292.08724 41.472 
" clip-path="url(#pa85e32aa38)" style="fill: none; stroke: #1f77b4; stroke-width: 0.5; stroke-linecap: square"/>
   </g>
   <g id="line2d_156">
    <path d="M 347.92704 41.472 
L 347.92704 269.200743 
" clip-path="url(#pa85e32aa38)" style="fill: none; stroke: #ff7f0e; stroke-width: 0.5; stroke-linecap: square"/>
   </g>
   <g id="line2d_157">
    <path d="M 347.92704 269.200743 
L 327.564924 41.472 
" clip-path="url(#pa85e32aa38)" style="fill: none; stroke: #2ca02c; stroke-width: 0.5; stroke-linecap: square"/>
   </g>
   <g id="line2d_158">
    <path d="M 351.4752 41.472 
L 351.4752 269.165547 
" clip-path="url(#pa85e32aa38)" style="fill: none; stroke: #d62728; stroke-width: 0.5; stroke-linecap: square"/>
   </g>
   <g id="line2d_159">
    <path d="M 351.4752 269.165547 
L 362.780403 41.472 
" clip-path="url(#pa85e32aa38)" style="fill: none; stroke: #9467bd; stroke-width: 0.5; stroke-linecap: square"/>
   </g>
   <g id="line2d_160">
    <path d="M 355.02336 41.472 
L 355.02336 269.376248 
" clip-path="url(#pa85e32aa38)" style="fill: none; stroke: #8c564b; stroke-width: 0.5; stroke-linecap: square"/>
   </g>
   <g id="line2d_161">
    <path d="M 355.02336 269.376248 
L 398.142732 41.472 
" clip-path="url(#pa85e32aa38)" style="fill: none; stroke: #e377c2; stroke-width: 0.5; stroke-linecap: square"/>
   </g>
   <g id="line2d_162">
    <path d="M 358.57152 41.472 
L 358.57152 269.828856 
" clip-path="url(#pa85e32aa38)" style="fill: none; stroke: #7f7f7f; stroke-width: 0.5; stroke-linecap: square"/>
   </g>
   <g id="line2d_163">
    <path d="M 358.57152 269.828856 
L 434.035922 41.472 
" clip-path="url(#pa85e32aa38)" style="fill: none; stroke: #bcbd22; stroke-width: 0.5; stroke-linecap: square"/>
   </g>
   <g id="line2d_164">
    <path d="M 362.11968 41.472 
L 362.11968 270.51484 
" clip-path="url(#pa85e32aa38)" style="fill: none; stroke: #17becf; stroke-width: 0.5; stroke-linecap: square"/>
   </g>
   <g id="line2d_165">
    <path d="M 362.11968 270.51484 
L 461.8 60.333933 
" clip-path="url(#pa85e32aa38)" style="fill: none; stroke: #1f77b4; stroke-width: 0.5; stroke-linecap: square"/>
   </g>
   <g id="line2d_166">
    <path d="M 365.66784 41.472 
L 365.66784 271.421368 
" clip-path="url(#pa85e32aa38)" style="fill: none; stroke: #ff7f0e; stroke-width: 0.5; stroke-linecap: square"/>
   </g>
   <g id="line2d_167">
    <path d="M 365.66784 271.421368 
L 461.8 116.519543 
" clip-path="url(#pa85e32aa38)" style="fill: none; stroke: #2ca02c; stroke-width: 0.5; stroke-linecap: square"/>
   </g>
   <g id="patch_3">
    <path d="M 103.104 307.584 
L 103.104 41.472 
" style="fill: none; stroke: #000000; stroke-width: 0.8; stroke-linejoin: miter; stroke-linecap: square"/>
   </g>
   <g id="patch_4">
    <path d="M 369.216 307.584 
L 369.216 41.472 
" style="fill: none; stroke: #000000; stroke-width: 0.8; stroke-linejoin: miter; stroke-linecap: square"/>
   </g>
   <g id="patch_5">
    <path d="M 103.104 307.584 
L 369.216 307.584 
" style="fill: none; stroke: #000000; stroke-width: 0.8; stroke-linejoin: miter; stroke-linecap: square"/>
   </g>
   <g id="patch_6">
    <path d="M 103.104 41.472 
L 369.216 41.472 
" style="fill: none; stroke: #000000; stroke-width: 0.8; stroke-linejoin: miter; stroke-linecap: square"/>
   </g>
  </g>
 </g>
 <defs>
  <clipPath id="pa85e32aa38">
   <rect x="103.104" y="41.472" width="266.112" height="266.112"/>
  </clipPath>
 </defs>
</svg>
