<?xml version="1.0" encoding="utf-8" standalone="no"?>
<!DOCTYPE svg PUBLIC "-//W3C//DTD SVG 1.1//EN"
  "http://www.w3.org/Graphics/SVG/1.1/DTD/svg11.dtd">
<svg xmlns:xlink="http://www.w3.org/1999/xlink" width="1080pt" height="720pt" viewBox="0 0 1080 720" xmlns="http://www.w3.org/2000/svg" version="1.1">
 <metadata>
  <rdf:RDF xmlns:dc="http://purl.org/dc/elements/1.1/" xmlns:cc="http://creativecommons.org/ns#" xmlns:rdf="http://www.w3.org/1999/02/22-rdf-syntax-ns#">
   <cc:Work>
    <dc:type rdf:resource="http://purl.org/dc/dcmitype/StillImage"/>
    <dc:date>2024-02-19T13:41:01.916960</dc:date>
    <dc:format>image/svg+xml</dc:format>
    <dc:creator>
     <cc:Agent>
      <dc:title>Matplotlib v3.8.3, https://matplotlib.org/</dc:title>
     </cc:Agent>
    </dc:creator>
   </cc:Work>
  </rdf:RDF>
 </metadata>
 <defs>
  <style type="text/css">*{stroke-linejoin: round; stroke-linecap: butt}</style>
 </defs>
 <g id="figure_1">
  <g id="patch_1">
   <path d="M 0 720 
L 1080 720 
L 1080 0 
L 0 0 
z
" style="fill: #ffffff"/>
  </g>
  <g id="axes_1">
   <g id="patch_2">
    <path d="M 135 640.8 
L 972 640.8 
L 972 86.4 
L 135 86.4 
z
" style="fill: #ffffff"/>
   </g>
   <g id="matplotlib.axis_1">
    <g id="xtick_1">
     <g id="line2d_1">
      <path d="M 242.219008 640.8 
L 242.219008 86.4 
" clip-path="url(#p20da540640)" style="fill: none; stroke: #b0b0b0; stroke-width: 0.8; stroke-linecap: square"/>
     </g>
     <g id="line2d_2">
      <defs>
       <path id="m8963dd5a7e" d="M 0 0 
L 0 3.5 
" style="stroke: #000000; stroke-width: 0.8"/>
      </defs>
      <g>
       <use xlink:href="#m8963dd5a7e" x="242.219008" y="640.8" style="stroke: #000000; stroke-width: 0.8"/>
      </g>
     </g>
     <g id="text_1">
      <!-- 500 -->
      <g transform="translate(232.675258 655.398438) scale(0.1 -0.1)">
       <defs>
        <path id="DejaVuSans-35" d="M 691 4666 
L 3169 4666 
L 3169 4134 
L 1269 4134 
L 1269 2991 
Q 1406 3038 1543 3061 
Q 1681 3084 1819 3084 
Q 2600 3084 3056 2656 
Q 3513 2228 3513 1497 
Q 3513 744 3044 326 
Q 2575 -91 1722 -91 
Q 1428 -91 1123 -41 
Q 819 9 494 109 
L 494 744 
Q 775 591 1075 516 
Q 1375 441 1709 441 
Q 2250 441 2565 725 
Q 2881 1009 2881 1497 
Q 2881 1984 2565 2268 
Q 2250 2553 1709 2553 
Q 1456 2553 1204 2497 
Q 953 2441 691 2322 
L 691 4666 
z
" transform="scale(0.015625)"/>
        <path id="DejaVuSans-30" d="M 2034 4250 
Q 1547 4250 1301 3770 
Q 1056 3291 1056 2328 
Q 1056 1369 1301 889 
Q 1547 409 2034 409 
Q 2525 409 2770 889 
Q 3016 1369 3016 2328 
Q 3016 3291 2770 3770 
Q 2525 4250 2034 4250 
z
M 2034 4750 
Q 2819 4750 3233 4129 
Q 3647 3509 3647 2328 
Q 3647 1150 3233 529 
Q 2819 -91 2034 -91 
Q 1250 -91 836 529 
Q 422 1150 422 2328 
Q 422 3509 836 4129 
Q 1250 4750 2034 4750 
z
" transform="scale(0.015625)"/>
       </defs>
       <use xlink:href="#DejaVuSans-35"/>
       <use xlink:href="#DejaVuSans-30" x="63.623047"/>
       <use xlink:href="#DejaVuSans-30" x="127.246094"/>
      </g>
     </g>
    </g>
    <g id="xtick_2">
     <g id="line2d_3">
      <path d="M 380.566116 640.8 
L 380.566116 86.4 
" clip-path="url(#p20da540640)" style="fill: none; stroke: #b0b0b0; stroke-width: 0.8; stroke-linecap: square"/>
     </g>
     <g id="line2d_4">
      <g>
       <use xlink:href="#m8963dd5a7e" x="380.566116" y="640.8" style="stroke: #000000; stroke-width: 0.8"/>
      </g>
     </g>
     <g id="text_2">
      <!-- 1000 -->
      <g transform="translate(367.841116 655.398438) scale(0.1 -0.1)">
       <defs>
        <path id="DejaVuSans-31" d="M 794 531 
L 1825 531 
L 1825 4091 
L 703 3866 
L 703 4441 
L 1819 4666 
L 2450 4666 
L 2450 531 
L 3481 531 
L 3481 0 
L 794 0 
L 794 531 
z
" transform="scale(0.015625)"/>
       </defs>
       <use xlink:href="#DejaVuSans-31"/>
       <use xlink:href="#DejaVuSans-30" x="63.623047"/>
       <use xlink:href="#DejaVuSans-30" x="127.246094"/>
       <use xlink:href="#DejaVuSans-30" x="190.869141"/>
      </g>
     </g>
    </g>
    <g id="xtick_3">
     <g id="line2d_5">
      <path d="M 518.913223 640.8 
L 518.913223 86.4 
" clip-path="url(#p20da540640)" style="fill: none; stroke: #b0b0b0; stroke-width: 0.8; stroke-linecap: square"/>
     </g>
     <g id="line2d_6">
      <g>
       <use xlink:href="#m8963dd5a7e" x="518.913223" y="640.8" style="stroke: #000000; stroke-width: 0.8"/>
      </g>
     </g>
     <g id="text_3">
      <!-- 1500 -->
      <g transform="translate(506.188223 655.398438) scale(0.1 -0.1)">
       <use xlink:href="#DejaVuSans-31"/>
       <use xlink:href="#DejaVuSans-35" x="63.623047"/>
       <use xlink:href="#DejaVuSans-30" x="127.246094"/>
       <use xlink:href="#DejaVuSans-30" x="190.869141"/>
      </g>
     </g>
    </g>
    <g id="xtick_4">
     <g id="line2d_7">
      <path d="M 657.260331 640.8 
L 657.260331 86.4 
" clip-path="url(#p20da540640)" style="fill: none; stroke: #b0b0b0; stroke-width: 0.8; stroke-linecap: square"/>
     </g>
     <g id="line2d_8">
      <g>
       <use xlink:href="#m8963dd5a7e" x="657.260331" y="640.8" style="stroke: #000000; stroke-width: 0.8"/>
      </g>
     </g>
     <g id="text_4">
      <!-- 2000 -->
      <g transform="translate(644.535331 655.398438) scale(0.1 -0.1)">
       <defs>
        <path id="DejaVuSans-32" d="M 1228 531 
L 3431 531 
L 3431 0 
L 469 0 
L 469 531 
Q 828 903 1448 1529 
Q 2069 2156 2228 2338 
Q 2531 2678 2651 2914 
Q 2772 3150 2772 3378 
Q 2772 3750 2511 3984 
Q 2250 4219 1831 4219 
Q 1534 4219 1204 4116 
Q 875 4013 500 3803 
L 500 4441 
Q 881 4594 1212 4672 
Q 1544 4750 1819 4750 
Q 2544 4750 2975 4387 
Q 3406 4025 3406 3419 
Q 3406 3131 3298 2873 
Q 3191 2616 2906 2266 
Q 2828 2175 2409 1742 
Q 1991 1309 1228 531 
z
" transform="scale(0.015625)"/>
       </defs>
       <use xlink:href="#DejaVuSans-32"/>
       <use xlink:href="#DejaVuSans-30" x="63.623047"/>
       <use xlink:href="#DejaVuSans-30" x="127.246094"/>
       <use xlink:href="#DejaVuSans-30" x="190.869141"/>
      </g>
     </g>
    </g>
    <g id="xtick_5">
     <g id="line2d_9">
      <path d="M 795.607438 640.8 
L 795.607438 86.4 
" clip-path="url(#p20da540640)" style="fill: none; stroke: #b0b0b0; stroke-width: 0.8; stroke-linecap: square"/>
     </g>
     <g id="line2d_10">
      <g>
       <use xlink:href="#m8963dd5a7e" x="795.607438" y="640.8" style="stroke: #000000; stroke-width: 0.8"/>
      </g>
     </g>
     <g id="text_5">
      <!-- 2500 -->
      <g transform="translate(782.882438 655.398438) scale(0.1 -0.1)">
       <use xlink:href="#DejaVuSans-32"/>
       <use xlink:href="#DejaVuSans-35" x="63.623047"/>
       <use xlink:href="#DejaVuSans-30" x="127.246094"/>
       <use xlink:href="#DejaVuSans-30" x="190.869141"/>
      </g>
     </g>
    </g>
    <g id="xtick_6">
     <g id="line2d_11">
      <path d="M 933.954545 640.8 
L 933.954545 86.4 
" clip-path="url(#p20da540640)" style="fill: none; stroke: #b0b0b0; stroke-width: 0.8; stroke-linecap: square"/>
     </g>
     <g id="line2d_12">
      <g>
       <use xlink:href="#m8963dd5a7e" x="933.954545" y="640.8" style="stroke: #000000; stroke-width: 0.8"/>
      </g>
     </g>
     <g id="text_6">
      <!-- 3000 -->
      <g transform="translate(921.229545 655.398438) scale(0.1 -0.1)">
       <defs>
        <path id="DejaVuSans-33" d="M 2597 2516 
Q 3050 2419 3304 2112 
Q 3559 1806 3559 1356 
Q 3559 666 3084 287 
Q 2609 -91 1734 -91 
Q 1441 -91 1130 -33 
Q 819 25 488 141 
L 488 750 
Q 750 597 1062 519 
Q 1375 441 1716 441 
Q 2309 441 2620 675 
Q 2931 909 2931 1356 
Q 2931 1769 2642 2001 
Q 2353 2234 1838 2234 
L 1294 2234 
L 1294 2753 
L 1863 2753 
Q 2328 2753 2575 2939 
Q 2822 3125 2822 3475 
Q 2822 3834 2567 4026 
Q 2313 4219 1838 4219 
Q 1578 4219 1281 4162 
Q 984 4106 628 3988 
L 628 4550 
Q 988 4650 1302 4700 
Q 1616 4750 1894 4750 
Q 2613 4750 3031 4423 
Q 3450 4097 3450 3541 
Q 3450 3153 3228 2886 
Q 3006 2619 2597 2516 
z
" transform="scale(0.015625)"/>
       </defs>
       <use xlink:href="#DejaVuSans-33"/>
       <use xlink:href="#DejaVuSans-30" x="63.623047"/>
       <use xlink:href="#DejaVuSans-30" x="127.246094"/>
       <use xlink:href="#DejaVuSans-30" x="190.869141"/>
      </g>
     </g>
    </g>
    <g id="text_7">
     <!-- wavelength [nm] -->
     <g transform="translate(510.84375 669.076563) scale(0.1 -0.1)">
      <defs>
       <path id="DejaVuSans-77" d="M 269 3500 
L 844 3500 
L 1563 769 
L 2278 3500 
L 2956 3500 
L 3675 769 
L 4391 3500 
L 4966 3500 
L 4050 0 
L 3372 0 
L 2619 2869 
L 1863 0 
L 1184 0 
L 269 3500 
z
" transform="scale(0.015625)"/>
       <path id="DejaVuSans-61" d="M 2194 1759 
Q 1497 1759 1228 1600 
Q 959 1441 959 1056 
Q 959 750 1161 570 
Q 1363 391 1709 391 
Q 2188 391 2477 730 
Q 2766 1069 2766 1631 
L 2766 1759 
L 2194 1759 
z
M 3341 1997 
L 3341 0 
L 2766 0 
L 2766 531 
Q 2569 213 2275 61 
Q 1981 -91 1556 -91 
Q 1019 -91 701 211 
Q 384 513 384 1019 
Q 384 1609 779 1909 
Q 1175 2209 1959 2209 
L 2766 2209 
L 2766 2266 
Q 2766 2663 2505 2880 
Q 2244 3097 1772 3097 
Q 1472 3097 1187 3025 
Q 903 2953 641 2809 
L 641 3341 
Q 956 3463 1253 3523 
Q 1550 3584 1831 3584 
Q 2591 3584 2966 3190 
Q 3341 2797 3341 1997 
z
" transform="scale(0.015625)"/>
       <path id="DejaVuSans-76" d="M 191 3500 
L 800 3500 
L 1894 563 
L 2988 3500 
L 3597 3500 
L 2284 0 
L 1503 0 
L 191 3500 
z
" transform="scale(0.015625)"/>
       <path id="DejaVuSans-65" d="M 3597 1894 
L 3597 1613 
L 953 1613 
Q 991 1019 1311 708 
Q 1631 397 2203 397 
Q 2534 397 2845 478 
Q 3156 559 3463 722 
L 3463 178 
Q 3153 47 2828 -22 
Q 2503 -91 2169 -91 
Q 1331 -91 842 396 
Q 353 884 353 1716 
Q 353 2575 817 3079 
Q 1281 3584 2069 3584 
Q 2775 3584 3186 3129 
Q 3597 2675 3597 1894 
z
M 3022 2063 
Q 3016 2534 2758 2815 
Q 2500 3097 2075 3097 
Q 1594 3097 1305 2825 
Q 1016 2553 972 2059 
L 3022 2063 
z
" transform="scale(0.015625)"/>
       <path id="DejaVuSans-6c" d="M 603 4863 
L 1178 4863 
L 1178 0 
L 603 0 
L 603 4863 
z
" transform="scale(0.015625)"/>
       <path id="DejaVuSans-6e" d="M 3513 2113 
L 3513 0 
L 2938 0 
L 2938 2094 
Q 2938 2591 2744 2837 
Q 2550 3084 2163 3084 
Q 1697 3084 1428 2787 
Q 1159 2491 1159 1978 
L 1159 0 
L 581 0 
L 581 3500 
L 1159 3500 
L 1159 2956 
Q 1366 3272 1645 3428 
Q 1925 3584 2291 3584 
Q 2894 3584 3203 3211 
Q 3513 2838 3513 2113 
z
" transform="scale(0.015625)"/>
       <path id="DejaVuSans-67" d="M 2906 1791 
Q 2906 2416 2648 2759 
Q 2391 3103 1925 3103 
Q 1463 3103 1205 2759 
Q 947 2416 947 1791 
Q 947 1169 1205 825 
Q 1463 481 1925 481 
Q 2391 481 2648 825 
Q 2906 1169 2906 1791 
z
M 3481 434 
Q 3481 -459 3084 -895 
Q 2688 -1331 1869 -1331 
Q 1566 -1331 1297 -1286 
Q 1028 -1241 775 -1147 
L 775 -588 
Q 1028 -725 1275 -790 
Q 1522 -856 1778 -856 
Q 2344 -856 2625 -561 
Q 2906 -266 2906 331 
L 2906 616 
Q 2728 306 2450 153 
Q 2172 0 1784 0 
Q 1141 0 747 490 
Q 353 981 353 1791 
Q 353 2603 747 3093 
Q 1141 3584 1784 3584 
Q 2172 3584 2450 3431 
Q 2728 3278 2906 2969 
L 2906 3500 
L 3481 3500 
L 3481 434 
z
" transform="scale(0.015625)"/>
       <path id="DejaVuSans-74" d="M 1172 4494 
L 1172 3500 
L 2356 3500 
L 2356 3053 
L 1172 3053 
L 1172 1153 
Q 1172 725 1289 603 
Q 1406 481 1766 481 
L 2356 481 
L 2356 0 
L 1766 0 
Q 1100 0 847 248 
Q 594 497 594 1153 
L 594 3053 
L 172 3053 
L 172 3500 
L 594 3500 
L 594 4494 
L 1172 4494 
z
" transform="scale(0.015625)"/>
       <path id="DejaVuSans-68" d="M 3513 2113 
L 3513 0 
L 2938 0 
L 2938 2094 
Q 2938 2591 2744 2837 
Q 2550 3084 2163 3084 
Q 1697 3084 1428 2787 
Q 1159 2491 1159 1978 
L 1159 0 
L 581 0 
L 581 4863 
L 1159 4863 
L 1159 2956 
Q 1366 3272 1645 3428 
Q 1925 3584 2291 3584 
Q 2894 3584 3203 3211 
Q 3513 2838 3513 2113 
z
" transform="scale(0.015625)"/>
       <path id="DejaVuSans-20" transform="scale(0.015625)"/>
       <path id="DejaVuSans-5b" d="M 550 4863 
L 1875 4863 
L 1875 4416 
L 1125 4416 
L 1125 -397 
L 1875 -397 
L 1875 -844 
L 550 -844 
L 550 4863 
z
" transform="scale(0.015625)"/>
       <path id="DejaVuSans-6d" d="M 3328 2828 
Q 3544 3216 3844 3400 
Q 4144 3584 4550 3584 
Q 5097 3584 5394 3201 
Q 5691 2819 5691 2113 
L 5691 0 
L 5113 0 
L 5113 2094 
Q 5113 2597 4934 2840 
Q 4756 3084 4391 3084 
Q 3944 3084 3684 2787 
Q 3425 2491 3425 1978 
L 3425 0 
L 2847 0 
L 2847 2094 
Q 2847 2600 2669 2842 
Q 2491 3084 2119 3084 
Q 1678 3084 1418 2786 
Q 1159 2488 1159 1978 
L 1159 0 
L 581 0 
L 581 3500 
L 1159 3500 
L 1159 2956 
Q 1356 3278 1631 3431 
Q 1906 3584 2284 3584 
Q 2666 3584 2933 3390 
Q 3200 3197 3328 2828 
z
" transform="scale(0.015625)"/>
       <path id="DejaVuSans-5d" d="M 1947 4863 
L 1947 -844 
L 622 -844 
L 622 -397 
L 1369 -397 
L 1369 4416 
L 622 4416 
L 622 4863 
L 1947 4863 
z
" transform="scale(0.015625)"/>
      </defs>
      <use xlink:href="#DejaVuSans-77"/>
      <use xlink:href="#DejaVuSans-61" x="81.787109"/>
      <use xlink:href="#DejaVuSans-76" x="143.066406"/>
      <use xlink:href="#DejaVuSans-65" x="202.246094"/>
      <use xlink:href="#DejaVuSans-6c" x="263.769531"/>
      <use xlink:href="#DejaVuSans-65" x="291.552734"/>
      <use xlink:href="#DejaVuSans-6e" x="353.076172"/>
      <use xlink:href="#DejaVuSans-67" x="416.455078"/>
      <use xlink:href="#DejaVuSans-74" x="479.931641"/>
      <use xlink:href="#DejaVuSans-68" x="519.140625"/>
      <use xlink:href="#DejaVuSans-20" x="582.519531"/>
      <use xlink:href="#DejaVuSans-5b" x="614.306641"/>
      <use xlink:href="#DejaVuSans-6e" x="653.320312"/>
      <use xlink:href="#DejaVuSans-6d" x="716.699219"/>
      <use xlink:href="#DejaVuSans-5d" x="814.111328"/>
     </g>
    </g>
   </g>
   <g id="matplotlib.axis_2">
    <g id="ytick_1">
     <g id="line2d_13">
      <path d="M 135 546.986705 
L 972 546.986705 
" clip-path="url(#p20da540640)" style="fill: none; stroke: #b0b0b0; stroke-width: 0.8; stroke-linecap: square"/>
     </g>
     <g id="line2d_14">
      <defs>
       <path id="mb6c00ed596" d="M 0 0 
L -3.5 0 
" style="stroke: #000000; stroke-width: 0.8"/>
      </defs>
      <g>
       <use xlink:href="#mb6c00ed596" x="135" y="546.986705" style="stroke: #000000; stroke-width: 0.8"/>
      </g>
     </g>
     <g id="text_8">
      <!-- 20 -->
      <g transform="translate(115.275 550.785924) scale(0.1 -0.1)">
       <use xlink:href="#DejaVuSans-32"/>
       <use xlink:href="#DejaVuSans-30" x="63.623047"/>
      </g>
     </g>
    </g>
    <g id="ytick_2">
     <g id="line2d_15">
      <path d="M 135 451.04217 
L 972 451.04217 
" clip-path="url(#p20da540640)" style="fill: none; stroke: #b0b0b0; stroke-width: 0.8; stroke-linecap: square"/>
     </g>
     <g id="line2d_16">
      <g>
       <use xlink:href="#mb6c00ed596" x="135" y="451.04217" style="stroke: #000000; stroke-width: 0.8"/>
      </g>
     </g>
     <g id="text_9">
      <!-- 40 -->
      <g transform="translate(115.275 454.841389) scale(0.1 -0.1)">
       <defs>
        <path id="DejaVuSans-34" d="M 2419 4116 
L 825 1625 
L 2419 1625 
L 2419 4116 
z
M 2253 4666 
L 3047 4666 
L 3047 1625 
L 3713 1625 
L 3713 1100 
L 3047 1100 
L 3047 0 
L 2419 0 
L 2419 1100 
L 313 1100 
L 313 1709 
L 2253 4666 
z
" transform="scale(0.015625)"/>
       </defs>
       <use xlink:href="#DejaVuSans-34"/>
       <use xlink:href="#DejaVuSans-30" x="63.623047"/>
      </g>
     </g>
    </g>
    <g id="ytick_3">
     <g id="line2d_17">
      <path d="M 135 355.097635 
L 972 355.097635 
" clip-path="url(#p20da540640)" style="fill: none; stroke: #b0b0b0; stroke-width: 0.8; stroke-linecap: square"/>
     </g>
     <g id="line2d_18">
      <g>
       <use xlink:href="#mb6c00ed596" x="135" y="355.097635" style="stroke: #000000; stroke-width: 0.8"/>
      </g>
     </g>
     <g id="text_10">
      <!-- 60 -->
      <g transform="translate(115.275 358.896854) scale(0.1 -0.1)">
       <defs>
        <path id="DejaVuSans-36" d="M 2113 2584 
Q 1688 2584 1439 2293 
Q 1191 2003 1191 1497 
Q 1191 994 1439 701 
Q 1688 409 2113 409 
Q 2538 409 2786 701 
Q 3034 994 3034 1497 
Q 3034 2003 2786 2293 
Q 2538 2584 2113 2584 
z
M 3366 4563 
L 3366 3988 
Q 3128 4100 2886 4159 
Q 2644 4219 2406 4219 
Q 1781 4219 1451 3797 
Q 1122 3375 1075 2522 
Q 1259 2794 1537 2939 
Q 1816 3084 2150 3084 
Q 2853 3084 3261 2657 
Q 3669 2231 3669 1497 
Q 3669 778 3244 343 
Q 2819 -91 2113 -91 
Q 1303 -91 875 529 
Q 447 1150 447 2328 
Q 447 3434 972 4092 
Q 1497 4750 2381 4750 
Q 2619 4750 2861 4703 
Q 3103 4656 3366 4563 
z
" transform="scale(0.015625)"/>
       </defs>
       <use xlink:href="#DejaVuSans-36"/>
       <use xlink:href="#DejaVuSans-30" x="63.623047"/>
      </g>
     </g>
    </g>
    <g id="ytick_4">
     <g id="line2d_19">
      <path d="M 135 259.1531 
L 972 259.1531 
" clip-path="url(#p20da540640)" style="fill: none; stroke: #b0b0b0; stroke-width: 0.8; stroke-linecap: square"/>
     </g>
     <g id="line2d_20">
      <g>
       <use xlink:href="#mb6c00ed596" x="135" y="259.1531" style="stroke: #000000; stroke-width: 0.8"/>
      </g>
     </g>
     <g id="text_11">
      <!-- 80 -->
      <g transform="translate(115.275 262.952319) scale(0.1 -0.1)">
       <defs>
        <path id="DejaVuSans-38" d="M 2034 2216 
Q 1584 2216 1326 1975 
Q 1069 1734 1069 1313 
Q 1069 891 1326 650 
Q 1584 409 2034 409 
Q 2484 409 2743 651 
Q 3003 894 3003 1313 
Q 3003 1734 2745 1975 
Q 2488 2216 2034 2216 
z
M 1403 2484 
Q 997 2584 770 2862 
Q 544 3141 544 3541 
Q 544 4100 942 4425 
Q 1341 4750 2034 4750 
Q 2731 4750 3128 4425 
Q 3525 4100 3525 3541 
Q 3525 3141 3298 2862 
Q 3072 2584 2669 2484 
Q 3125 2378 3379 2068 
Q 3634 1759 3634 1313 
Q 3634 634 3220 271 
Q 2806 -91 2034 -91 
Q 1263 -91 848 271 
Q 434 634 434 1313 
Q 434 1759 690 2068 
Q 947 2378 1403 2484 
z
M 1172 3481 
Q 1172 3119 1398 2916 
Q 1625 2713 2034 2713 
Q 2441 2713 2670 2916 
Q 2900 3119 2900 3481 
Q 2900 3844 2670 4047 
Q 2441 4250 2034 4250 
Q 1625 4250 1398 4047 
Q 1172 3844 1172 3481 
z
" transform="scale(0.015625)"/>
       </defs>
       <use xlink:href="#DejaVuSans-38"/>
       <use xlink:href="#DejaVuSans-30" x="63.623047"/>
      </g>
     </g>
    </g>
    <g id="ytick_5">
     <g id="line2d_21">
      <path d="M 135 163.208565 
L 972 163.208565 
" clip-path="url(#p20da540640)" style="fill: none; stroke: #b0b0b0; stroke-width: 0.8; stroke-linecap: square"/>
     </g>
     <g id="line2d_22">
      <g>
       <use xlink:href="#mb6c00ed596" x="135" y="163.208565" style="stroke: #000000; stroke-width: 0.8"/>
      </g>
     </g>
     <g id="text_12">
      <!-- 100 -->
      <g transform="translate(108.9125 167.007784) scale(0.1 -0.1)">
       <use xlink:href="#DejaVuSans-31"/>
       <use xlink:href="#DejaVuSans-30" x="63.623047"/>
       <use xlink:href="#DejaVuSans-30" x="127.246094"/>
      </g>
     </g>
    </g>
    <g id="text_13">
     <!-- %R -->
     <g transform="translate(102.832812 371.825) rotate(-90) scale(0.1 -0.1)">
      <defs>
       <path id="DejaVuSans-25" d="M 4653 2053 
Q 4381 2053 4226 1822 
Q 4072 1591 4072 1178 
Q 4072 772 4226 539 
Q 4381 306 4653 306 
Q 4919 306 5073 539 
Q 5228 772 5228 1178 
Q 5228 1588 5073 1820 
Q 4919 2053 4653 2053 
z
M 4653 2450 
Q 5147 2450 5437 2106 
Q 5728 1763 5728 1178 
Q 5728 594 5436 251 
Q 5144 -91 4653 -91 
Q 4153 -91 3862 251 
Q 3572 594 3572 1178 
Q 3572 1766 3864 2108 
Q 4156 2450 4653 2450 
z
M 1428 4353 
Q 1159 4353 1004 4120 
Q 850 3888 850 3481 
Q 850 3069 1003 2837 
Q 1156 2606 1428 2606 
Q 1700 2606 1854 2837 
Q 2009 3069 2009 3481 
Q 2009 3884 1853 4118 
Q 1697 4353 1428 4353 
z
M 4250 4750 
L 4750 4750 
L 1831 -91 
L 1331 -91 
L 4250 4750 
z
M 1428 4750 
Q 1922 4750 2215 4408 
Q 2509 4066 2509 3481 
Q 2509 2891 2217 2550 
Q 1925 2209 1428 2209 
Q 931 2209 642 2551 
Q 353 2894 353 3481 
Q 353 4063 643 4406 
Q 934 4750 1428 4750 
z
" transform="scale(0.015625)"/>
       <path id="DejaVuSans-52" d="M 2841 2188 
Q 3044 2119 3236 1894 
Q 3428 1669 3622 1275 
L 4263 0 
L 3584 0 
L 2988 1197 
Q 2756 1666 2539 1819 
Q 2322 1972 1947 1972 
L 1259 1972 
L 1259 0 
L 628 0 
L 628 4666 
L 2053 4666 
Q 2853 4666 3247 4331 
Q 3641 3997 3641 3322 
Q 3641 2881 3436 2590 
Q 3231 2300 2841 2188 
z
M 1259 4147 
L 1259 2491 
L 2053 2491 
Q 2509 2491 2742 2702 
Q 2975 2913 2975 3322 
Q 2975 3731 2742 3939 
Q 2509 4147 2053 4147 
L 1259 4147 
z
" transform="scale(0.015625)"/>
      </defs>
      <use xlink:href="#DejaVuSans-25"/>
      <use xlink:href="#DejaVuSans-52" x="95.019531"/>
     </g>
    </g>
   </g>
   <g id="line2d_23">
    <path d="M 933.954545 443.841533 
L 933.401157 271.6422 
L 933.124463 387.240494 
L 932.847769 447.064789 
L 932.571074 279.157056 
L 932.29438 465.899181 
L 932.017686 382.067644 
L 931.464298 428.894334 
L 930.910909 325.298222 
L 930.634215 365.385288 
L 930.357521 335.929836 
L 930.080826 257.139224 
L 929.527438 411.892003 
L 929.250744 292.077907 
L 928.97405 295.893141 
L 928.697355 315.134338 
L 928.420661 276.254254 
L 928.143967 274.786303 
L 927.867273 326.678864 
L 927.590579 318.337926 
L 927.313884 269.560684 
L 927.03719 248.043203 
L 926.760496 275.951549 
L 926.483802 277.26503 
L 926.207107 299.660883 
L 925.930413 311.557046 
L 925.653719 273.785601 
L 925.377025 261.564666 
L 925.100331 261.280191 
L 924.823636 252.761275 
L 924.546942 275.1365 
L 924.270248 235.574731 
L 923.993554 217.904146 
L 923.71686 229.395423 
L 923.440165 277.432933 
L 923.163471 213.679228 
L 922.886777 256.669576 
L 922.610083 278.121815 
L 922.056694 194.461058 
L 921.78 289.017276 
L 921.503306 244.262508 
L 921.226612 235.934043 
L 920.949917 248.154978 
L 920.673223 236.485724 
L 920.396529 217.588489 
L 920.119835 303.849821 
L 919.84314 227.338372 
L 919.566446 240.967293 
L 919.289752 244.025046 
L 919.013058 229.71204 
L 918.736364 230.310734 
L 918.459669 184.13071 
L 918.182975 216.760967 
L 917.906281 192.367069 
L 917.629587 209.768529 
L 917.352893 238.958215 
L 917.076198 194.968125 
L 916.799504 199.213671 
L 916.52281 239.789574 
L 916.246116 198.561248 
L 915.969421 200.160644 
L 915.692727 240.231399 
L 915.416033 184.142224 
L 915.139339 189.847565 
L 914.58595 243.171139 
L 914.309256 260.241111 
L 914.032562 289.946499 
L 913.755868 225.746173 
L 913.479174 233.508086 
L 913.202479 226.465277 
L 912.925785 186.853137 
L 912.649091 212.381099 
L 912.372397 249.479972 
L 912.095702 244.7264 
L 911.819008 193.758265 
L 911.542314 204.282421 
L 911.26562 228.917619 
L 910.988926 168.39053 
L 910.435537 249.556728 
L 910.158843 201.553278 
L 909.882149 209.619815 
L 909.605455 250.2624 
L 909.32876 201.89724 
L 909.052066 177.476477 
L 908.775372 215.664321 
L 908.498678 210.585017 
L 908.221983 186.515891 
L 907.945289 216.037545 
L 907.668595 179.625155 
L 907.391901 176.304035 
L 907.115207 216.282683 
L 906.838512 177.928856 
L 906.561818 154.999551 
L 906.285124 228.153901 
L 906.00843 209.743104 
L 905.731736 204.029607 
L 905.455041 223.089468 
L 905.178347 223.412322 
L 904.901653 187.178868 
L 904.624959 220.721078 
L 904.348264 233.230806 
L 903.794876 160.352297 
L 903.518182 196.009123 
L 903.241488 206.821113 
L 902.964793 226.746394 
L 902.688099 217.176407 
L 902.411405 195.096211 
L 902.134711 162.238566 
L 901.858017 185.098791 
L 901.581322 195.515969 
L 901.304628 176.62305 
L 901.027934 187.009526 
L 900.75124 206.81008 
L 900.474545 181.033141 
L 900.197851 192.724462 
L 899.921157 230.007549 
L 899.644463 225.609452 
L 899.367769 231.204937 
L 898.81438 157.722937 
L 898.537686 207.616493 
L 898.260992 235.699938 
L 897.707603 150.713229 
L 897.430909 188.228022 
L 897.154215 202.638411 
L 896.877521 160.928443 
L 896.600826 193.371608 
L 896.324132 198.389507 
L 896.047438 159.027303 
L 895.770744 189.90849 
L 895.49405 200.087246 
L 895.217355 174.614452 
L 894.940661 189.677744 
L 894.663967 211.464349 
L 894.387273 206.525604 
L 894.110579 207.940306 
L 893.833884 198.058019 
L 893.55719 173.710174 
L 893.003802 216.364716 
L 892.727107 200.23596 
L 892.450413 197.595087 
L 892.173719 192.404487 
L 891.897025 192.120491 
L 891.620331 194.254298 
L 891.343636 214.617086 
L 891.066942 203.860265 
L 890.790248 185.693167 
L 890.513554 194.982037 
L 890.23686 224.479705 
L 889.960165 188.977349 
L 889.683471 180.393671 
L 889.406777 198.287326 
L 889.130083 181.838116 
L 888.853388 180.017568 
L 888.576694 206.30781 
L 888.3 199.282271 
L 888.023306 156.615257 
L 887.469917 210.965917 
L 887.193223 181.205841 
L 886.916529 198.120383 
L 886.639835 201.692398 
L 886.36314 159.198084 
L 886.086446 169.069337 
L 885.809752 198.12518 
L 885.256364 134.79699 
L 884.979669 179.28839 
L 884.702975 201.894361 
L 884.426281 186.320644 
L 884.149587 187.454229 
L 883.872893 156.650277 
L 883.596198 166.098415 
L 883.319504 186.879042 
L 883.04281 192.531134 
L 882.489421 173.059191 
L 882.212727 207.211607 
L 881.936033 185.99971 
L 881.659339 148.628834 
L 881.382645 174.137607 
L 881.10595 181.521978 
L 880.829256 162.035164 
L 880.552562 161.154393 
L 880.275868 167.842207 
L 879.999174 159.492154 
L 879.722479 186.048162 
L 879.445785 155.659649 
L 879.169091 146.224943 
L 878.892397 215.844697 
L 878.615702 192.599255 
L 878.339008 155.153062 
L 878.062314 154.224319 
L 877.78562 228.108327 
L 877.232231 174.165431 
L 876.955537 231.708166 
L 876.678843 175.3609 
L 876.402149 150.339525 
L 876.125455 199.296663 
L 875.84876 196.112744 
L 875.572066 137.07951 
L 875.295372 194.883694 
L 875.018678 178.327505 
L 874.741983 134.056778 
L 874.465289 209.975769 
L 874.188595 206.928571 
L 873.911901 157.448055 
L 873.635207 147.30384 
L 873.358512 214.874697 
L 872.805124 178.038712 
L 872.52843 217.866248 
L 872.251736 179.999818 
L 871.698347 228.955997 
L 871.421653 198.192341 
L 871.144959 153.379527 
L 870.868264 188.518734 
L 870.59157 244.163686 
L 870.314876 188.238096 
L 870.038182 188.43862 
L 869.761488 201.541765 
L 869.484793 167.983725 
L 869.208099 156.967373 
L 868.931405 155.960435 
L 868.654711 174.818334 
L 868.101322 156.357646 
L 867.824628 183.426477 
L 867.547934 165.371635 
L 867.27124 177.525409 
L 866.994545 221.760157 
L 866.717851 161.351559 
L 866.441157 169.41138 
L 866.164463 212.313938 
L 865.887769 145.000211 
L 865.611074 194.530138 
L 865.33438 207.567082 
L 865.057686 145.686695 
L 864.780992 140.773375 
L 864.504298 188.017903 
L 864.227603 149.804634 
L 863.950909 155.463443 
L 863.674215 194.85683 
L 863.397521 164.443851 
L 863.120826 150.325133 
L 862.844132 199.178171 
L 862.567438 191.665714 
L 862.290744 197.338915 
L 861.737355 247.555805 
L 861.460661 179.195323 
L 861.183967 170.531532 
L 860.907273 200.006173 
L 860.630579 163.203288 
L 860.353884 155.938368 
L 860.07719 212.087029 
L 859.800496 147.825298 
L 859.523802 156.572562 
L 859.247107 190.243337 
L 858.693719 142.101727 
L 858.417025 218.619413 
L 857.863636 156.057339 
L 857.586942 191.39611 
L 857.310248 169.317354 
L 857.033554 137.587057 
L 856.75686 188.11049 
L 856.480165 185.586189 
L 856.203471 152.179261 
L 855.926777 209.640443 
L 855.650083 194.079199 
L 855.373388 157.445177 
L 855.096694 201.604609 
L 854.82 190.394929 
L 854.543306 188.510099 
L 854.266612 151.380523 
L 853.989917 199.844027 
L 853.436529 167.527988 
L 853.159835 202.131824 
L 852.88314 152.973682 
L 852.606446 144.680236 
L 852.329752 191.066061 
L 852.053058 174.419205 
L 851.776364 151.084534 
L 851.222975 208.27899 
L 850.946281 165.79475 
L 850.669587 182.192631 
L 850.392893 177.468322 
L 850.116198 175.128714 
L 849.839504 170.325731 
L 849.56281 211.65288 
L 849.286116 200.635569 
L 849.009421 151.941799 
L 848.732727 181.020668 
L 848.456033 182.586483 
L 848.179339 141.24878 
L 847.902645 196.623169 
L 847.349256 111.6 
L 847.072562 184.656966 
L 846.795868 204.784211 
L 846.519174 163.205687 
L 846.242479 171.708771 
L 845.965785 196.729187 
L 845.689091 151.517724 
L 845.412397 142.637577 
L 845.135702 178.701689 
L 844.859008 189.415815 
L 844.582314 188.92314 
L 844.30562 138.968179 
L 844.028926 188.623793 
L 843.752231 171.581645 
L 843.475537 132.924632 
L 842.922149 176.257022 
L 842.645455 143.833526 
L 842.36876 200.77229 
L 842.092066 188.770588 
L 841.815372 125.026478 
L 841.538678 165.303994 
L 841.261983 186.268834 
L 840.985289 162.238566 
L 840.708595 149.67367 
L 840.431901 171.844533 
L 840.155207 157.702308 
L 839.878512 158.710206 
L 839.601818 160.584003 
L 839.325124 173.49238 
L 839.04843 136.694293 
L 838.771736 170.710469 
L 838.218347 139.302066 
L 837.941653 173.275546 
L 837.664959 165.306393 
L 837.388264 163.58179 
L 837.11157 174.221079 
L 836.834876 208.479514 
L 836.558182 165.447911 
L 836.281488 160.507727 
L 836.004793 162.828625 
L 835.728099 150.65998 
L 835.451405 155.688433 
L 835.174711 171.374884 
L 834.898017 201.747086 
L 834.621322 192.783948 
L 834.067934 161.299749 
L 833.79124 140.243761 
L 833.514545 172.224953 
L 833.237851 180.175397 
L 832.961157 174.005204 
L 832.684463 217.002747 
L 832.407769 193.275184 
L 832.131074 160.012653 
L 831.577686 190.845868 
L 831.300992 170.059005 
L 831.024298 180.133181 
L 830.747603 164.863129 
L 830.470909 121.988395 
L 829.917521 196.207249 
L 829.640826 155.647177 
L 829.364132 159.196165 
L 829.087438 177.239494 
L 828.53405 185.318024 
L 828.257355 170.399129 
L 827.980661 138.739351 
L 827.703967 179.820402 
L 827.427273 169.019926 
L 827.150579 143.924194 
L 826.59719 174.881177 
L 826.320496 158.068817 
L 826.043802 157.539682 
L 825.767107 190.175216 
L 825.213719 138.139698 
L 824.937025 184.798484 
L 824.383636 129.732078 
L 824.106942 181.127646 
L 823.830248 185.425962 
L 823.553554 170.394331 
L 823.27686 183.952254 
L 823.000165 180.3433 
L 822.723471 173.847855 
L 822.446777 188.240974 
L 822.170083 192.260571 
L 821.893388 166.206832 
L 821.616694 168.00963 
L 821.34 188.108091 
L 821.063306 164.582011 
L 820.509917 194.297473 
L 820.233223 172.521422 
L 819.679835 205.312385 
L 819.40314 173.64829 
L 819.126446 178.372599 
L 818.849752 201.329728 
L 818.573058 196.276329 
L 818.296364 178.782762 
L 818.019669 188.971592 
L 817.742975 186.849778 
L 817.466281 204.496377 
L 817.189587 235.081096 
L 816.636198 154.134611 
L 816.359504 206.797127 
L 816.08281 187.482533 
L 815.806116 152.879177 
L 815.529421 196.804983 
L 815.252727 221.006513 
L 814.976033 171.078896 
L 814.422645 222.328628 
L 814.14595 177.07447 
L 813.869256 189.887382 
L 813.592562 215.249841 
L 813.315868 187.373636 
L 813.039174 220.616498 
L 812.762479 229.426605 
L 812.485785 182.633496 
L 812.209091 172.320418 
L 811.932397 210.368662 
L 811.655702 220.234639 
L 811.379008 189.069455 
L 811.102314 230.690674 
L 810.82562 217.435937 
L 810.548926 225.727943 
L 810.272231 262.78652 
L 809.995537 216.299953 
L 809.718843 214.785949 
L 809.442149 222.548341 
L 809.165455 226.521884 
L 808.88876 228.199474 
L 808.612066 245.681528 
L 808.335372 236.767801 
L 808.058678 220.401582 
L 807.781983 257.576732 
L 807.505289 253.782605 
L 807.228595 232.648902 
L 806.951901 259.132952 
L 806.675207 252.208635 
L 806.398512 234.628238 
L 806.121818 266.052472 
L 805.845124 250.271515 
L 805.56843 256.844675 
L 805.291736 283.114768 
L 805.015041 285.835755 
L 804.738347 247.954934 
L 804.461653 288.639254 
L 804.184959 286.387436 
L 803.908264 280.501239 
L 803.63157 286.232006 
L 803.354876 284.217171 
L 803.078182 290.613793 
L 802.801488 316.517378 
L 802.524793 323.116923 
L 802.248099 279.161853 
L 801.694711 326.568528 
L 801.141322 315.142973 
L 800.864628 345.249408 
L 800.587934 327.472325 
L 800.31124 347.615401 
L 800.034545 334.423987 
L 799.757851 348.021726 
L 799.481157 349.193688 
L 799.204463 381.758703 
L 798.927769 347.139995 
L 798.651074 343.964231 
L 798.37438 371.12517 
L 798.097686 364.110185 
L 797.820992 345.926777 
L 797.544298 356.687916 
L 797.267603 390.657078 
L 796.990909 377.165358 
L 796.437521 387.000632 
L 796.160826 381.111557 
L 795.884132 396.166214 
L 795.607438 425.681631 
L 795.330744 394.419543 
L 795.05405 383.118716 
L 794.777355 423.757463 
L 794.500661 421.717203 
L 794.223967 421.096921 
L 793.947273 427.613954 
L 793.670579 428.076406 
L 793.393884 414.408628 
L 793.11719 434.59104 
L 792.563802 421.836174 
L 792.287107 448.383067 
L 792.010413 446.121655 
L 791.733719 439.837288 
L 791.457025 449.90043 
L 791.180331 453.967999 
L 790.903636 453.843751 
L 790.626942 457.889252 
L 790.350248 475.595336 
L 790.073554 468.674857 
L 789.79686 466.1779 
L 789.520165 465.219414 
L 789.243471 470.398021 
L 788.966777 473.326248 
L 788.690083 482.764312 
L 788.413388 480.904427 
L 788.136694 477.831323 
L 787.86 481.451311 
L 787.583306 478.607035 
L 787.306612 483.965058 
L 787.029917 474.444961 
L 786.753223 490.916719 
L 786.476529 481.265658 
L 786.199835 490.021556 
L 785.92314 494.670549 
L 785.646446 490.649993 
L 785.369752 488.277285 
L 785.093058 504.097099 
L 784.816364 496.102521 
L 784.539669 497.663059 
L 784.262975 506.670332 
L 783.986281 496.783247 
L 783.709587 501.288323 
L 783.432893 509.841778 
L 783.156198 502.338436 
L 782.879504 508.802699 
L 782.60281 511.179245 
L 782.326116 502.847422 
L 782.049421 511.294379 
L 781.772727 511.558226 
L 781.496033 506.821444 
L 781.219339 508.156992 
L 780.942645 506.011193 
L 780.66595 510.735502 
L 780.389256 508.668377 
L 780.112562 514.650518 
L 779.559174 508.340726 
L 779.282479 509.905102 
L 779.005785 508.949974 
L 778.729091 504.957242 
L 778.452397 508.471211 
L 778.175702 507.165406 
L 777.622314 510.376669 
L 777.34562 515.263604 
L 777.068926 507.976617 
L 776.792231 512.334417 
L 776.515537 512.682216 
L 776.238843 508.121973 
L 775.962149 509.725206 
L 775.685455 508.924069 
L 775.40876 505.472464 
L 775.132066 507.990529 
L 774.855372 513.255005 
L 774.301983 505.910451 
L 774.025289 510.371392 
L 773.748595 506.083151 
L 773.471901 509.525161 
L 773.195207 508.430914 
L 772.918512 505.705609 
L 772.641818 509.695463 
L 772.365124 508.780632 
L 772.08843 508.803179 
L 771.811736 508.275484 
L 771.535041 513.492948 
L 770.981653 505.629334 
L 770.704959 507.245039 
L 770.428264 509.73432 
L 770.15157 506.889565 
L 769.874876 510.466857 
L 769.321488 506.347478 
L 769.044793 507.643689 
L 768.768099 510.864067 
L 768.491405 508.815652 
L 768.214711 509.869123 
L 767.938017 511.728528 
L 767.661322 511.031491 
L 767.384628 512.370397 
L 767.107934 510.827608 
L 766.83124 511.315486 
L 766.554545 510.726387 
L 766.277851 511.686792 
L 766.001157 511.487227 
L 765.724463 511.039646 
L 765.447769 515.347076 
L 764.89438 511.000788 
L 764.617686 510.541214 
L 764.064298 513.467043 
L 763.787603 516.483539 
L 763.234215 512.078245 
L 762.957521 513.296261 
L 762.680826 512.838606 
L 762.404132 512.980604 
L 762.127438 512.90001 
L 761.850744 514.179431 
L 761.57405 512.590589 
L 761.020661 517.406045 
L 760.743967 517.699156 
L 760.467273 519.277444 
L 760.190579 520.003744 
L 759.913884 516.318994 
L 759.63719 516.993964 
L 759.360496 517.100942 
L 758.807107 513.276593 
L 758.253719 518.115555 
L 757.977025 518.791005 
L 757.700331 520.913298 
L 757.423636 521.606977 
L 756.593554 518.929645 
L 756.31686 521.23903 
L 756.040165 521.433317 
L 755.763471 518.100684 
L 755.486777 517.476085 
L 755.210083 520.032527 
L 754.933388 518.646608 
L 754.38 523.743662 
L 754.103306 519.503873 
L 753.826612 518.41922 
L 753.549917 521.972046 
L 753.273223 522.850418 
L 752.996529 523.215007 
L 752.719835 523.312871 
L 752.44314 523.282168 
L 752.166446 522.512693 
L 751.889752 521.308589 
L 751.059669 524.361545 
L 750.782975 525.128621 
L 750.506281 524.571183 
L 749.952893 525.87363 
L 749.676198 525.450035 
L 749.12281 529.115596 
L 748.846116 526.734733 
L 748.016033 524.445496 
L 747.739339 526.352394 
L 747.462645 526.559154 
L 747.18595 524.963117 
L 746.909256 527.248516 
L 746.632562 527.872155 
L 746.355868 524.71606 
L 746.079174 526.419075 
L 745.802479 526.597052 
L 745.525785 524.603325 
L 744.972397 527.698975 
L 744.695702 526.75632 
L 744.419008 527.379 
L 744.142314 528.632515 
L 743.312231 530.431476 
L 743.035537 529.235047 
L 742.482149 529.227851 
L 742.205455 528.838796 
L 741.92876 528.181096 
L 741.652066 530.782633 
L 741.375372 530.351362 
L 741.098678 529.393835 
L 740.821983 531.590965 
L 740.545289 532.615173 
L 740.268595 531.053676 
L 739.991901 531.110283 
L 739.715207 532.150802 
L 739.438512 532.115782 
L 739.161818 531.693626 
L 738.885124 530.936144 
L 738.60843 531.930609 
L 738.055041 529.959428 
L 737.778347 530.248701 
L 737.501653 530.289957 
L 737.224959 531.457123 
L 736.948264 529.512327 
L 736.67157 530.83972 
L 736.394876 531.445609 
L 736.118182 529.429815 
L 735.841488 530.746653 
L 735.564793 531.51325 
L 735.288099 530.677573 
L 735.011405 531.986736 
L 734.734711 532.528343 
L 734.458017 532.161835 
L 734.181322 530.430516 
L 733.627934 528.133124 
L 733.074545 529.221615 
L 732.797851 529.540151 
L 732.521157 529.016773 
L 732.244463 530.367193 
L 731.967769 528.808094 
L 731.691074 528.536571 
L 731.41438 528.967842 
L 731.137686 527.045113 
L 730.860992 526.784144 
L 730.584298 529.263831 
L 730.307603 528.508747 
L 730.030909 526.945331 
L 729.754215 526.872413 
L 729.477521 526.200322 
L 729.200826 526.5486 
L 728.924132 526.240618 
L 728.647438 524.731411 
L 728.370744 524.928097 
L 728.09405 525.360807 
L 727.817355 524.851821 
L 726.987273 520.655207 
L 726.710579 520.731483 
L 726.433884 520.537675 
L 726.15719 520.490662 
L 725.880496 516.930161 
L 725.603802 516.563173 
L 725.327107 516.860601 
L 725.050413 514.749821 
L 724.773719 515.124964 
L 724.497025 514.279693 
L 724.220331 514.944109 
L 723.943636 514.599188 
L 723.666942 514.89038 
L 723.390248 512.576198 
L 723.113554 512.737384 
L 722.83686 512.495124 
L 722.560165 510.629963 
L 722.283471 510.809859 
L 722.006777 510.279285 
L 721.730083 510.902925 
L 721.453388 510.463499 
L 721.176694 511.210427 
L 720.9 510.069647 
L 720.623306 510.273049 
L 720.346612 511.03293 
L 720.069917 511.36154 
L 719.793223 509.042081 
L 719.516529 509.941561 
L 719.239835 509.746314 
L 718.96314 508.613688 
L 718.686446 509.969385 
L 718.409752 509.473351 
L 718.133058 509.695463 
L 717.856364 509.638856 
L 717.579669 509.073742 
L 717.302975 509.727125 
L 717.026281 511.440694 
L 716.749587 511.712217 
L 716.472893 508.560439 
L 715.919504 511.133671 
L 715.64281 510.471654 
L 715.366116 510.624206 
L 715.089421 511.541915 
L 714.812727 509.658524 
L 714.259339 513.052562 
L 713.982645 511.705501 
L 713.70595 512.756573 
L 713.152562 511.448849 
L 712.875868 511.515531 
L 712.599174 513.632547 
L 712.322479 511.237292 
L 712.045785 515.090904 
L 711.769091 513.934292 
L 711.492397 513.818679 
L 711.215702 514.488372 
L 710.939008 516.314197 
L 710.662314 513.699228 
L 710.38562 513.874807 
L 710.108926 516.08297 
L 709.832231 515.124964 
L 709.555537 515.977911 
L 709.278843 514.834732 
L 708.725455 514.383313 
L 708.44876 515.960161 
L 708.172066 515.093782 
L 707.618678 515.916027 
L 707.341983 515.510661 
L 707.065289 515.453574 
L 706.788595 516.909053 
L 706.511901 517.178177 
L 706.235207 515.182531 
L 705.958512 516.315156 
L 705.681818 516.397668 
L 705.405124 515.362907 
L 705.12843 515.104816 
L 704.851736 516.057545 
L 704.575041 513.704026 
L 704.021653 516.86108 
L 703.744959 514.75078 
L 703.468264 514.792516 
L 703.19157 514.988723 
L 702.638182 513.845064 
L 702.084793 514.258585 
L 701.808099 513.985623 
L 701.531405 513.1605 
L 700.978017 512.498962 
L 700.701322 513.62775 
L 700.147934 511.294858 
L 699.87124 511.814398 
L 699.594545 509.592323 
L 699.317851 509.305448 
L 699.041157 510.773879 
L 698.211074 507.250316 
L 697.93438 506.685203 
L 697.657686 505.476302 
L 697.380992 506.393532 
L 697.104298 505.619259 
L 696.827603 505.898938 
L 696.550909 506.513462 
L 696.274215 505.191826 
L 695.997521 505.614942 
L 695.720826 505.382756 
L 695.444132 503.382313 
L 695.167438 504.648301 
L 694.61405 502.465083 
L 694.337355 502.162378 
L 693.783967 500.357661 
L 693.230579 500.846978 
L 692.953884 500.251163 
L 692.67719 498.6983 
L 692.400496 498.747232 
L 691.847107 497.443346 
L 691.570413 499.721549 
L 691.293719 498.537593 
L 691.017025 496.621581 
L 690.740331 497.002001 
L 690.463636 497.166066 
L 690.186942 495.289871 
L 689.633554 494.777047 
L 689.35686 493.97639 
L 689.080165 495.367106 
L 688.803471 494.918565 
L 688.526777 494.18411 
L 688.250083 494.379837 
L 687.973388 494.838931 
L 687.696694 493.624274 
L 687.42 493.327325 
L 687.143306 494.059382 
L 686.866612 493.046208 
L 686.589917 493.637226 
L 686.313223 494.577483 
L 686.036529 493.791697 
L 685.759835 494.264224 
L 685.48314 495.347437 
L 684.929752 493.400243 
L 684.653058 493.047167 
L 684.376364 493.203077 
L 684.099669 493.694313 
L 683.546281 492.493567 
L 683.269587 492.603903 
L 682.992893 493.057721 
L 682.439504 493.311494 
L 682.16281 493.961998 
L 681.886116 493.004472 
L 681.609421 492.752138 
L 681.332727 493.804649 
L 681.056033 493.85454 
L 680.779339 493.645381 
L 680.502645 494.964619 
L 680.22595 494.683981 
L 679.949256 494.078571 
L 679.672562 494.770811 
L 679.395868 494.325148 
L 679.119174 494.442201 
L 678.842479 495.456814 
L 678.565785 495.434267 
L 678.289091 495.605049 
L 678.012397 497.023109 
L 677.735702 497.572871 
L 677.459008 496.93484 
L 676.90562 498.798083 
L 676.628926 497.931224 
L 676.352231 498.163889 
L 676.075537 499.750812 
L 675.798843 499.970525 
L 675.522149 499.80646 
L 675.245455 501.136731 
L 674.96876 501.429841 
L 674.692066 501.521468 
L 674.415372 502.292383 
L 673.861983 502.424786 
L 673.308595 503.604904 
L 673.031901 503.320908 
L 672.755207 502.708782 
L 672.478512 503.027318 
L 672.201818 504.085586 
L 671.925124 503.723395 
L 671.64843 502.990379 
L 671.371736 503.180349 
L 671.095041 502.973589 
L 669.988264 500.779817 
L 669.71157 500.67092 
L 669.434876 500.142745 
L 668.881488 498.198909 
L 668.604793 498.112559 
L 668.328099 497.545047 
L 668.051405 496.392753 
L 667.774711 495.891443 
L 667.498017 494.873471 
L 666.944628 494.049788 
L 666.39124 491.925576 
L 666.114545 491.749038 
L 665.561157 490.450428 
L 665.284463 490.536778 
L 664.731074 488.968565 
L 664.45438 488.853432 
L 664.177686 488.370351 
L 663.900992 487.153774 
L 663.624298 486.933102 
L 663.347603 486.863062 
L 663.070909 486.568992 
L 662.794215 486.452899 
L 662.240826 485.571649 
L 661.964132 485.635932 
L 661.687438 484.99838 
L 661.410744 485.219053 
L 660.857355 485.313558 
L 660.580661 484.900517 
L 660.303967 484.902915 
L 660.027273 484.468766 
L 659.750579 484.580062 
L 659.19719 485.298207 
L 658.920496 485.095284 
L 658.643802 485.579804 
L 658.090413 485.76018 
L 657.813719 486.0365 
L 657.537025 486.08879 
L 657.260331 486.017311 
L 656.983636 487.011776 
L 656.706942 487.03912 
L 656.430248 487.197909 
L 656.153554 487.701138 
L 655.323471 488.431755 
L 655.046777 489.048199 
L 654.770083 489.123515 
L 653.94 490.658628 
L 653.663306 490.791511 
L 652.556529 493.001114 
L 652.279835 492.882143 
L 651.726446 494.384634 
L 651.449752 494.319871 
L 651.173058 494.823101 
L 650.896364 495.688041 
L 650.619669 495.836275 
L 650.342975 496.505008 
L 650.066281 497.770517 
L 649.512893 498.471391 
L 649.236198 499.074883 
L 648.959504 499.072964 
L 647.852727 501.353565 
L 647.299339 502.692951 
L 647.022645 503.008129 
L 646.74595 503.75074 
L 646.192562 504.506303 
L 645.639174 505.649482 
L 645.362479 505.996801 
L 644.809091 506.862701 
L 643.979008 507.518961 
L 643.702314 508.33449 
L 643.42562 508.802699 
L 643.148926 509.006581 
L 642.595537 509.945878 
L 642.318843 510.110903 
L 642.042149 509.975141 
L 641.765455 510.708157 
L 641.48876 511.116401 
L 641.212066 510.512431 
L 640.658678 511.79425 
L 640.381983 511.51601 
L 640.105289 511.531841 
L 639.828595 510.884695 
L 639.551901 510.886135 
L 639.275207 511.192677 
L 638.998512 511.141827 
L 638.721818 510.804102 
L 638.16843 510.681293 
L 637.891736 510.292238 
L 637.338347 510.022634 
L 637.061653 508.631918 
L 636.784959 508.892887 
L 636.23157 507.516083 
L 635.678182 506.821444 
L 635.401488 505.216772 
L 635.124793 504.599369 
L 634.571405 502.397442 
L 634.294711 501.914361 
L 632.081157 489.515449 
L 630.697686 479.234512 
L 630.144298 474.287612 
L 629.590909 469.41267 
L 629.314215 466.244102 
L 629.037521 464.479202 
L 627.100661 447.75511 
L 626.270579 441.688537 
L 624.333719 430.033195 
L 624.057025 429.060797 
L 622.673554 421.552178 
L 622.120165 419.223604 
L 621.843471 417.626128 
L 621.566777 416.989536 
L 620.46 412.760301 
L 619.906612 412.296889 
L 619.353223 410.797755 
L 619.076529 410.752182 
L 618.52314 409.902113 
L 618.246446 409.744764 
L 617.969752 409.767311 
L 617.693058 409.569185 
L 617.416364 409.823438 
L 617.139669 409.757237 
L 616.862975 409.50922 
L 616.309587 410.020604 
L 616.032893 409.951524 
L 615.756198 410.04507 
L 615.479504 409.989422 
L 615.20281 409.588374 
L 614.926116 409.709264 
L 614.649421 410.056584 
L 614.372727 409.76827 
L 613.819339 410.034037 
L 613.542645 410.015807 
L 613.26595 410.256148 
L 612.989256 410.728675 
L 612.712562 410.620258 
L 611.882479 411.29139 
L 611.605785 411.323531 
L 611.052397 411.871854 
L 610.775702 411.938056 
L 609.668926 412.835137 
L 609.392231 412.803955 
L 608.838843 413.360913 
L 608.562149 413.260651 
L 608.285455 413.477006 
L 608.00876 413.839197 
L 607.732066 413.859345 
L 606.625289 414.61299 
L 606.348595 414.904181 
L 605.795207 414.909458 
L 605.518512 415.239507 
L 604.68843 415.575313 
L 604.411736 415.70196 
L 603.858347 416.156257 
L 603.581653 416.205189 
L 601.921488 417.147844 
L 601.644793 417.178067 
L 601.091405 417.707681 
L 600.814711 417.680336 
L 599.984628 418.045405 
L 599.43124 418.382171 
L 598.601157 418.613397 
L 597.217686 419.273495 
L 596.940992 419.605943 
L 596.664298 419.737867 
L 596.110909 420.333683 
L 595.834215 420.438262 
L 593.897355 422.639709 
L 592.513884 424.35136 
L 591.960496 424.92223 
L 591.683802 425.118436 
L 591.130413 425.922452 
L 590.023636 426.563841 
L 589.470248 426.974963 
L 589.193554 426.962011 
L 588.363471 427.761229 
L 587.533388 428.445793 
L 585.596529 431.418155 
L 585.319835 432.211616 
L 584.766446 433.060725 
L 584.489752 433.819167 
L 583.936364 434.680749 
L 583.659669 435.516425 
L 583.106281 436.077701 
L 582.829587 436.602518 
L 581.72281 437.405094 
L 581.446116 437.247745 
L 580.892727 437.177225 
L 580.062645 436.429817 
L 578.679174 433.781269 
L 576.742314 428.839166 
L 576.46562 427.916179 
L 576.188926 427.4993 
L 575.635537 426.107625 
L 573.698678 423.447562 
L 573.145289 423.155411 
L 572.038512 422.526975 
L 571.761818 422.415199 
L 571.485124 421.868315 
L 571.20843 421.833296 
L 570.931736 421.557455 
L 570.378347 420.785102 
L 570.101653 420.498707 
L 569.548264 419.398703 
L 569.27157 419.036512 
L 567.611405 415.032267 
L 567.334711 414.468113 
L 566.781322 413.025108 
L 560.140661 395.728707 
L 559.863967 395.353563 
L 559.310579 394.257877 
L 559.033884 394.031927 
L 558.75719 393.471132 
L 557.927107 392.667116 
L 557.650413 392.179238 
L 557.373719 392.214738 
L 556.820331 391.792582 
L 556.266942 391.748927 
L 555.713554 391.858784 
L 555.160165 391.648665 
L 554.330083 391.76188 
L 554.053388 392.070821 
L 553.5 392.010856 
L 553.223306 392.363932 
L 552.669917 392.362493 
L 552.393223 392.726602 
L 551.56314 393.07536 
L 551.009752 393.239426 
L 550.733058 393.562279 
L 550.179669 393.631839 
L 549.902975 393.814613 
L 549.626281 394.157615 
L 549.349587 394.280424 
L 548.796198 394.71985 
L 548.519504 394.906462 
L 548.24281 395.302713 
L 547.689421 395.614533 
L 547.136033 396.322123 
L 546.859339 396.541836 
L 546.582645 396.907865 
L 546.029256 397.283967 
L 544.092397 399.548258 
L 543.262314 400.040454 
L 542.432231 400.683282 
L 542.155537 400.709187 
L 541.325455 401.296368 
L 541.04876 401.270943 
L 540.218678 401.56933 
L 539.111901 401.954068 
L 538.558512 401.65616 
L 537.451736 401.614904 
L 535.79157 401.65616 
L 534.408099 402.068721 
L 531.917851 404.16463 
L 530.53438 405.609554 
L 529.980992 405.986137 
L 529.150909 406.809341 
L 528.320826 407.458885 
L 526.660661 408.779082 
L 525.27719 409.881965 
L 524.447107 410.723398 
L 523.893719 411.271241 
L 523.063636 412.119391 
L 521.403471 413.713989 
L 521.126777 413.81713 
L 520.296694 414.667198 
L 519.743306 415.141644 
L 519.189917 415.33929 
L 518.08314 415.656866 
L 517.806446 415.647751 
L 517.253058 415.842519 
L 516.976364 415.622326 
L 515.592893 415.337851 
L 515.039504 414.974701 
L 514.76281 414.861966 
L 514.209421 414.417263 
L 513.932727 414.31844 
L 513.656033 414.013816 
L 513.102645 413.656902 
L 512.549256 412.959865 
L 511.442479 411.853145 
L 510.889091 411.163304 
L 510.612397 410.860599 
L 510.059008 410.005733 
L 509.782314 409.770669 
L 508.675537 408.062377 
L 507.845455 406.852516 
L 504.801818 402.325853 
L 504.24843 401.213856 
L 503.971736 400.863178 
L 503.418347 399.717121 
L 503.141653 399.356849 
L 502.588264 398.190164 
L 502.034876 397.014363 
L 501.758182 396.36194 
L 501.481488 395.994953 
L 499.267934 390.539546 
L 497.884463 386.217245 
L 496.500992 381.078936 
L 495.117521 374.902026 
L 493.457355 366.520792 
L 491.79719 357.586916 
L 490.137025 349.400449 
L 487.093388 336.534766 
L 486.54 334.673922 
L 485.986612 332.807321 
L 484.326446 327.759679 
L 483.496364 325.641224 
L 483.219669 325.161981 
L 482.666281 323.787096 
L 480.729421 319.757425 
L 479.34595 316.500588 
L 479.069256 316.019426 
L 478.515868 314.729452 
L 476.02562 309.287478 
L 474.918843 307.149834 
L 474.365455 306.11843 
L 472.151901 302.477814 
L 470.215041 300.303711 
L 469.108264 299.445487 
L 468.001488 298.871259 
L 467.448099 298.694721 
L 467.171405 298.492758 
L 466.618017 298.380023 
L 466.064628 298.23035 
L 464.404463 298.086433 
L 463.297686 298.286477 
L 463.020992 298.184297 
L 461.360826 298.649628 
L 460.25405 299.090972 
L 458.593884 299.764023 
L 456.657025 300.411649 
L 456.380331 300.421723 
L 455.826942 300.743137 
L 453.613388 301.336554 
L 453.336694 301.304893 
L 452.229917 301.760629 
L 449.739669 303.138393 
L 449.186281 303.650736 
L 448.632893 304.18035 
L 448.356198 304.323787 
L 446.419339 306.415378 
L 445.86595 307.091307 
L 444.759174 308.512726 
L 443.929091 309.59546 
L 441.992231 312.797609 
L 441.438843 313.547895 
L 440.60876 315.000975 
L 439.501983 316.607086 
L 437.565124 318.95389 
L 433.691405 322.346488 
L 432.584628 322.904406 
L 432.307934 322.755692 
L 431.477851 322.816617 
L 430.924463 322.792631 
L 430.09438 322.252463 
L 429.540992 321.809679 
L 428.434215 320.814254 
L 427.880826 319.99153 
L 426.77405 318.444424 
L 426.497355 317.787204 
L 425.943967 317.108876 
L 425.390579 316.042933 
L 425.113884 315.707606 
L 424.560496 314.45505 
L 424.007107 313.414052 
L 423.453719 312.670002 
L 422.623636 311.49756 
L 422.070248 310.630222 
L 421.793554 310.586567 
L 421.240165 309.610331 
L 420.963471 309.567156 
L 420.410083 308.968942 
L 419.856694 308.612508 
L 418.749917 307.795061 
L 418.196529 307.385377 
L 417.919835 306.917168 
L 417.64314 306.82746 
L 417.089752 306.304082 
L 416.813058 306.355893 
L 416.536364 305.723618 
L 414.876198 304.616898 
L 414.599504 304.271018 
L 414.32281 304.437002 
L 414.046116 304.227843 
L 412.939339 304.06042 
L 412.662645 304.237437 
L 411.555868 304.378476 
L 411.279174 304.286369 
L 411.002479 304.566527 
L 410.449091 304.680221 
L 409.895702 305.055364 
L 409.619008 305.024182 
L 408.235537 306.027283 
L 407.958843 306.112193 
L 407.405455 306.703212 
L 407.12876 306.605348 
L 406.575372 307.310541 
L 406.298678 307.253933 
L 405.745289 307.860303 
L 405.191901 308.175481 
L 404.915207 308.586603 
L 404.361818 308.854768 
L 402.701653 310.346226 
L 402.424959 310.764544 
L 401.87157 311.008723 
L 401.318182 311.72351 
L 400.488099 312.433499 
L 400.211405 312.719894 
L 399.934711 313.201535 
L 399.381322 313.610739 
L 398.827934 314.168656 
L 397.997851 315.133378 
L 397.721157 315.314234 
L 396.61438 316.61812 
L 396.337686 316.72126 
L 395.507603 317.762738 
L 395.230909 318.020829 
L 394.954215 318.485201 
L 394.400826 318.921748 
L 394.124132 319.377485 
L 393.570744 319.69698 
L 393.29405 320.18102 
L 393.017355 320.343167 
L 392.187273 321.39184 
L 391.080496 322.340252 
L 390.803802 322.881859 
L 389.973719 323.760711 
L 387.483471 326.285491 
L 387.206777 326.690377 
L 386.930083 326.657276 
L 386.653388 326.928799 
L 385.823306 328.175599 
L 384.716529 329.327893 
L 384.439835 329.414243 
L 383.886446 330.032605 
L 383.609752 330.086814 
L 382.502975 331.255418 
L 382.226281 331.749533 
L 381.949587 331.785512 
L 381.672893 331.935665 
L 381.396198 332.277707 
L 381.119504 332.299295 
L 380.012727 333.822414 
L 379.736033 334.080025 
L 379.459339 334.117923 
L 378.90595 334.786177 
L 378.629256 334.812082 
L 378.075868 335.66407 
L 377.799174 335.517274 
L 377.245785 336.327526 
L 376.692397 336.538604 
L 376.415702 336.991462 
L 376.139008 337.042313 
L 375.862314 337.318633 
L 375.58562 338.028143 
L 375.308926 338.345719 
L 375.032231 338.349077 
L 374.478843 338.988068 
L 374.202149 339.207781 
L 373.925455 339.616025 
L 373.372066 339.989729 
L 373.095372 340.416682 
L 372.818678 340.583146 
L 371.988595 341.506612 
L 371.711901 341.668758 
L 371.435207 342.144164 
L 371.158512 342.359559 
L 370.881818 342.131691 
L 370.32843 343.107926 
L 370.051736 343.231215 
L 369.775041 343.576136 
L 369.498347 344.212728 
L 369.221653 344.26118 
L 368.944959 344.620972 
L 368.668264 344.700126 
L 368.39157 344.95198 
L 368.114876 345.813083 
L 367.561488 346.290407 
L 367.284793 346.107153 
L 367.008099 346.831054 
L 366.454711 347.262325 
L 366.178017 348.143096 
L 365.624628 347.8591 
L 365.07124 348.506725 
L 364.794545 348.817106 
L 364.517851 349.424915 
L 364.241157 349.465211 
L 363.964463 349.737214 
L 363.687769 350.489419 
L 363.411074 350.836259 
L 363.13438 350.951872 
L 361.750909 352.790169 
L 361.474215 352.506653 
L 360.920826 353.901207 
L 360.644132 353.61961 
L 360.367438 354.311849 
L 360.090744 355.752457 
L 359.81405 355.03767 
L 359.537355 354.72633 
L 359.260661 356.408717 
L 358.707273 355.542338 
L 358.430579 356.997817 
L 357.87719 356.607802 
L 357.600496 358.163543 
L 357.047107 357.16428 
L 356.770413 358.699393 
L 356.493719 358.377019 
L 356.217025 358.350155 
L 355.940331 360.456137 
L 355.663636 358.524774 
L 355.386942 359.100441 
L 355.110248 360.722384 
L 354.833554 361.6281 
L 354.55686 360.377943 
L 354.280165 360.655222 
L 354.003471 361.948555 
L 353.726777 361.536473 
L 353.450083 361.636255 
L 352.896694 362.445068 
L 352.343306 363.243326 
L 352.066612 362.64799 
L 351.789917 363.27211 
L 351.513223 364.564003 
L 351.236529 364.381708 
L 350.959835 363.065829 
L 350.68314 363.016417 
L 350.406446 362.636957 
L 350.129752 365.65777 
L 349.853058 364.737183 
L 349.576364 364.5688 
L 349.299669 365.488908 
L 349.022975 363.991694 
L 348.746281 366.530386 
L 348.469587 364.488686 
L 348.192893 364.611495 
L 347.916198 366.466103 
L 347.639504 363.807 
L 347.36281 363.902465 
L 347.086116 368.483817 
L 346.809421 363.877999 
L 346.532727 363.574335 
L 346.256033 367.626552 
L 345.979339 366.786558 
L 345.702645 364.433518 
L 345.42595 365.928334 
L 345.149256 366.196019 
L 344.872562 366.307795 
L 344.595868 368.915567 
L 344.319174 369.047491 
L 343.765785 365.690871 
L 343.489091 367.708585 
L 343.212397 365.15694 
L 342.935702 367.343516 
L 342.382314 363.909661 
L 342.10562 364.653231 
L 341.828926 366.121662 
L 341.552231 360.290153 
L 341.275537 361.179559 
L 340.998843 400.238579 
L 340.722149 402.552762 
L 340.445455 400.066359 
L 339.892066 403.235887 
L 339.615372 403.184556 
L 339.338678 404.790668 
L 338.785289 404.484125 
L 338.508595 406.53494 
L 338.231901 405.80672 
L 337.955207 407.354306 
L 337.678512 407.637342 
L 337.401818 406.865948 
L 336.84843 409.733251 
L 336.571736 410.125184 
L 336.295041 410.96326 
L 336.018347 412.582803 
L 335.741653 412.299287 
L 335.464959 413.097546 
L 335.188264 413.250577 
L 334.91157 415.365195 
L 334.358182 416.131312 
L 334.081488 417.238512 
L 333.804793 417.541697 
L 333.528099 418.874846 
L 332.974711 420.322649 
L 332.698017 420.581219 
L 332.144628 422.840713 
L 331.314545 425.430256 
L 330.761157 426.550409 
L 330.207769 428.270694 
L 329.100992 432.196745 
L 328.824298 432.634731 
L 328.547603 433.772634 
L 328.270909 434.272025 
L 327.717521 436.357859 
L 326.887438 438.928213 
L 326.610744 440.183168 
L 326.33405 440.66385 
L 326.057355 441.696213 
L 325.780661 442.297785 
L 324.950579 445.54119 
L 323.290413 450.654554 
L 323.013719 451.255647 
L 318.863306 464.595775 
L 318.309917 466.325655 
L 317.756529 468.380787 
L 317.20314 469.833867 
L 316.373058 472.551975 
L 315.266281 476.144139 
L 314.712893 477.566037 
L 313.052727 482.662131 
L 311.392562 487.304407 
L 310.839174 488.90764 
L 309.732397 492.128019 
L 308.072231 497.26345 
L 304.475207 506.982631 
L 303.645124 508.716349 
L 302.261653 511.980382 
L 298.387934 522.365418 
L 297.557851 524.526089 
L 296.17438 527.467269 
L 294.237521 530.370071 
L 292.300661 533.517531 
L 290.363802 538.668314 
L 288.426942 544.421628 
L 287.320165 546.784742 
L 286.490083 547.897698 
L 285.66 548.479122 
L 285.106612 548.698835 
L 284.553223 548.757841 
L 283.446446 549.374285 
L 282.893058 549.822825 
L 282.062975 551.219298 
L 281.509587 552.365356 
L 279.849421 557.293067 
L 278.742645 560.803198 
L 277.635868 563.218601 
L 276.805785 563.903166 
L 276.529091 563.944422 
L 276.252397 563.845599 
L 275.699008 563.269452 
L 275.422314 562.94516 
L 274.592231 561.089592 
L 272.932066 556.02516 
L 271.548595 551.703818 
L 270.165124 548.317935 
L 269.611736 547.458272 
L 269.058347 546.840869 
L 268.504959 546.743006 
L 268.228264 546.737249 
L 267.674876 547.028441 
L 266.844793 548.278598 
L 266.014711 550.26465 
L 264.63124 555.134795 
L 263.247769 560.760982 
L 261.864298 566.608322 
L 260.480826 571.726483 
L 259.37405 575.042326 
L 258.543967 577.390569 
L 256.607107 581.108899 
L 254.946942 583.366954 
L 253.286777 584.984099 
L 252.733388 585.357323 
L 251.903306 585.932511 
L 250.519835 586.547995 
L 249.689752 586.752836 
L 248.582975 586.774904 
L 245.262645 586.40024 
L 244.432562 586.477955 
L 242.772397 586.909706 
L 241.942314 587.081926 
L 241.388926 587.270937 
L 240.835537 587.491609 
L 240.282149 587.66335 
L 238.621983 588.467365 
L 237.791901 589.002256 
L 236.685124 589.754461 
L 236.40843 589.820663 
L 235.578347 589.728556 
L 234.748264 589.681543 
L 230.044463 589.94683 
L 225.89405 590.790662 
L 225.340661 590.962403 
L 224.233884 591.149015 
L 223.680496 591.238723 
L 222.297025 591.401829 
L 221.190248 591.664237 
L 220.360165 591.717007 
L 219.806777 591.751547 
L 219.253388 591.908416 
L 218.7 591.959746 
L 218.146612 592.028347 
L 217.039835 591.947274 
L 216.209752 591.841735 
L 215.379669 591.681507 
L 212.059339 590.952329 
L 211.50595 590.77675 
L 209.292397 590.226029 
L 208.462314 590.227947 
L 207.908926 590.002958 
L 207.632231 590.214995 
L 207.355537 590.25865 
L 206.802149 589.930519 
L 206.525455 590.235623 
L 205.972066 590.345 
L 205.695372 589.896939 
L 205.418678 589.857602 
L 205.141983 589.979931 
L 204.588595 589.281934 
L 204.311901 589.680584 
L 203.481818 589.963141 
L 202.92843 589.697374 
L 202.375041 589.766934 
L 202.098347 589.728076 
L 201.821653 589.916128 
L 201.544959 589.82546 
L 201.268264 590.076835 
L 200.99157 589.408581 
L 200.714876 589.648442 
L 200.438182 590.242339 
L 200.161488 589.761177 
L 199.884793 589.811068 
L 199.608099 590.151672 
L 199.331405 589.887344 
L 199.054711 589.789961 
L 198.778017 590.218833 
L 198.501322 590.236582 
L 198.224628 590.011593 
L 197.67124 590.991186 
L 197.394545 590.980632 
L 197.117851 591.155731 
L 196.564463 592.059529 
L 196.287769 591.669994 
L 195.457686 592.327214 
L 195.180992 592.272046 
L 194.904298 593.14658 
L 194.627603 593.042001 
L 194.074215 593.964507 
L 193.797521 593.739997 
L 193.520826 594.137208 
L 193.244132 595.216584 
L 192.967438 595.541356 
L 192.690744 595.573497 
L 192.41405 595.899709 
L 191.860661 599.23666 
L 191.030579 602.10732 
L 189.647107 609.830375 
L 188.540331 613.564057 
L 188.263636 614.051935 
L 187.986942 614.23375 
L 187.710248 614.673176 
L 186.603471 615.419624 
L 186.050083 615.352463 
L 185.773388 615.036806 
L 185.496694 615.041123 
L 185.22 615.476711 
L 184.943306 615.434016 
L 184.666612 615.6 
L 184.389917 615.553467 
L 183.836529 615.345747 
L 183.559835 615.255559 
L 183.28314 615.497339 
L 183.006446 615.422023 
L 182.729752 615.099649 
L 182.176364 615.138027 
L 180.792893 615.025772 
L 180.516198 614.71827 
L 180.239504 615.105406 
L 179.686116 614.701479 
L 178.302645 614.833403 
L 177.472562 614.466895 
L 177.195868 614.766722 
L 176.919174 614.851633 
L 176.365785 614.768641 
L 176.089091 614.581069 
L 175.812397 615.053596 
L 175.535702 615.024333 
L 175.259008 614.780154 
L 174.70562 615.391321 
L 174.428926 615.269471 
L 174.152231 615.382686 
L 173.875537 615.231573 
L 173.045455 615.242607 
L 173.045455 615.242607 
" clip-path="url(#p20da540640)" style="fill: none; stroke: #1f77b4; stroke-width: 1.5; stroke-linecap: square"/>
   </g>
   <g id="patch_3">
    <path d="M 135 640.8 
L 135 86.4 
" style="fill: none; stroke: #000000; stroke-width: 0.8; stroke-linejoin: miter; stroke-linecap: square"/>
   </g>
   <g id="patch_4">
    <path d="M 972 640.8 
L 972 86.4 
" style="fill: none; stroke: #000000; stroke-width: 0.8; stroke-linejoin: miter; stroke-linecap: square"/>
   </g>
   <g id="patch_5">
    <path d="M 135 640.8 
L 972 640.8 
" style="fill: none; stroke: #000000; stroke-width: 0.8; stroke-linejoin: miter; stroke-linecap: square"/>
   </g>
   <g id="patch_6">
    <path d="M 135 86.4 
L 972 86.4 
" style="fill: none; stroke: #000000; stroke-width: 0.8; stroke-linejoin: miter; stroke-linecap: square"/>
   </g>
   <g id="legend_1">
    <g id="patch_7">
     <path d="M 916.55 109.078125 
L 965 109.078125 
Q 967 109.078125 967 107.078125 
L 967 93.4 
Q 967 91.4 965 91.4 
L 916.55 91.4 
Q 914.55 91.4 914.55 93.4 
L 914.55 107.078125 
Q 914.55 109.078125 916.55 109.078125 
z
" style="fill: #ffffff; opacity: 0.8; stroke: #cccccc; stroke-linejoin: miter"/>
    </g>
    <g id="line2d_24">
     <path d="M 918.55 99.498438 
L 928.55 99.498438 
L 938.55 99.498438 
" style="fill: none; stroke: #1f77b4; stroke-width: 1.5; stroke-linecap: square"/>
    </g>
    <g id="text_14">
     <!-- %R -->
     <g transform="translate(946.55 102.998438) scale(0.1 -0.1)">
      <use xlink:href="#DejaVuSans-25"/>
      <use xlink:href="#DejaVuSans-52" x="95.019531"/>
     </g>
    </g>
   </g>
  </g>
 </g>
 <defs>
  <clipPath id="p20da540640">
   <rect x="135" y="86.4" width="837" height="554.4"/>
  </clipPath>
 </defs>
</svg>
