<?xml version="1.0" encoding="utf-8" standalone="no"?>
<!DOCTYPE svg PUBLIC "-//W3C//DTD SVG 1.1//EN"
  "http://www.w3.org/Graphics/SVG/1.1/DTD/svg11.dtd">
<svg xmlns:xlink="http://www.w3.org/1999/xlink" width="1080pt" height="720pt" viewBox="0 0 1080 720" xmlns="http://www.w3.org/2000/svg" version="1.1">
 <metadata>
  <rdf:RDF xmlns:dc="http://purl.org/dc/elements/1.1/" xmlns:cc="http://creativecommons.org/ns#" xmlns:rdf="http://www.w3.org/1999/02/22-rdf-syntax-ns#">
   <cc:Work>
    <dc:type rdf:resource="http://purl.org/dc/dcmitype/StillImage"/>
    <dc:date>2024-02-16T09:55:00.860644</dc:date>
    <dc:format>image/svg+xml</dc:format>
    <dc:creator>
     <cc:Agent>
      <dc:title>Matplotlib v3.8.3, https://matplotlib.org/</dc:title>
     </cc:Agent>
    </dc:creator>
   </cc:Work>
  </rdf:RDF>
 </metadata>
 <defs>
  <style type="text/css">*{stroke-linejoin: round; stroke-linecap: butt}</style>
 </defs>
 <g id="figure_1">
  <g id="patch_1">
   <path d="M 0 720 
L 1080 720 
L 1080 0 
L 0 0 
z
" style="fill: #ffffff"/>
  </g>
  <g id="axes_1">
   <g id="patch_2">
    <path d="M 135 640.8 
L 972 640.8 
L 972 86.4 
L 135 86.4 
z
" style="fill: #ffffff"/>
   </g>
   <g id="matplotlib.axis_1">
    <g id="xtick_1">
     <g id="line2d_1">
      <path d="M 242.219008 640.8 
L 242.219008 86.4 
" clip-path="url(#p17910ddb2b)" style="fill: none; stroke: #b0b0b0; stroke-width: 0.8; stroke-linecap: square"/>
     </g>
     <g id="line2d_2">
      <defs>
       <path id="mdff3962752" d="M 0 0 
L 0 3.5 
" style="stroke: #000000; stroke-width: 0.8"/>
      </defs>
      <g>
       <use xlink:href="#mdff3962752" x="242.219008" y="640.8" style="stroke: #000000; stroke-width: 0.8"/>
      </g>
     </g>
     <g id="text_1">
      <!-- 500 -->
      <g transform="translate(232.675258 655.398438) scale(0.1 -0.1)">
       <defs>
        <path id="DejaVuSans-35" d="M 691 4666 
L 3169 4666 
L 3169 4134 
L 1269 4134 
L 1269 2991 
Q 1406 3038 1543 3061 
Q 1681 3084 1819 3084 
Q 2600 3084 3056 2656 
Q 3513 2228 3513 1497 
Q 3513 744 3044 326 
Q 2575 -91 1722 -91 
Q 1428 -91 1123 -41 
Q 819 9 494 109 
L 494 744 
Q 775 591 1075 516 
Q 1375 441 1709 441 
Q 2250 441 2565 725 
Q 2881 1009 2881 1497 
Q 2881 1984 2565 2268 
Q 2250 2553 1709 2553 
Q 1456 2553 1204 2497 
Q 953 2441 691 2322 
L 691 4666 
z
" transform="scale(0.015625)"/>
        <path id="DejaVuSans-30" d="M 2034 4250 
Q 1547 4250 1301 3770 
Q 1056 3291 1056 2328 
Q 1056 1369 1301 889 
Q 1547 409 2034 409 
Q 2525 409 2770 889 
Q 3016 1369 3016 2328 
Q 3016 3291 2770 3770 
Q 2525 4250 2034 4250 
z
M 2034 4750 
Q 2819 4750 3233 4129 
Q 3647 3509 3647 2328 
Q 3647 1150 3233 529 
Q 2819 -91 2034 -91 
Q 1250 -91 836 529 
Q 422 1150 422 2328 
Q 422 3509 836 4129 
Q 1250 4750 2034 4750 
z
" transform="scale(0.015625)"/>
       </defs>
       <use xlink:href="#DejaVuSans-35"/>
       <use xlink:href="#DejaVuSans-30" x="63.623047"/>
       <use xlink:href="#DejaVuSans-30" x="127.246094"/>
      </g>
     </g>
    </g>
    <g id="xtick_2">
     <g id="line2d_3">
      <path d="M 380.566116 640.8 
L 380.566116 86.4 
" clip-path="url(#p17910ddb2b)" style="fill: none; stroke: #b0b0b0; stroke-width: 0.8; stroke-linecap: square"/>
     </g>
     <g id="line2d_4">
      <g>
       <use xlink:href="#mdff3962752" x="380.566116" y="640.8" style="stroke: #000000; stroke-width: 0.8"/>
      </g>
     </g>
     <g id="text_2">
      <!-- 1000 -->
      <g transform="translate(367.841116 655.398438) scale(0.1 -0.1)">
       <defs>
        <path id="DejaVuSans-31" d="M 794 531 
L 1825 531 
L 1825 4091 
L 703 3866 
L 703 4441 
L 1819 4666 
L 2450 4666 
L 2450 531 
L 3481 531 
L 3481 0 
L 794 0 
L 794 531 
z
" transform="scale(0.015625)"/>
       </defs>
       <use xlink:href="#DejaVuSans-31"/>
       <use xlink:href="#DejaVuSans-30" x="63.623047"/>
       <use xlink:href="#DejaVuSans-30" x="127.246094"/>
       <use xlink:href="#DejaVuSans-30" x="190.869141"/>
      </g>
     </g>
    </g>
    <g id="xtick_3">
     <g id="line2d_5">
      <path d="M 518.913223 640.8 
L 518.913223 86.4 
" clip-path="url(#p17910ddb2b)" style="fill: none; stroke: #b0b0b0; stroke-width: 0.8; stroke-linecap: square"/>
     </g>
     <g id="line2d_6">
      <g>
       <use xlink:href="#mdff3962752" x="518.913223" y="640.8" style="stroke: #000000; stroke-width: 0.8"/>
      </g>
     </g>
     <g id="text_3">
      <!-- 1500 -->
      <g transform="translate(506.188223 655.398438) scale(0.1 -0.1)">
       <use xlink:href="#DejaVuSans-31"/>
       <use xlink:href="#DejaVuSans-35" x="63.623047"/>
       <use xlink:href="#DejaVuSans-30" x="127.246094"/>
       <use xlink:href="#DejaVuSans-30" x="190.869141"/>
      </g>
     </g>
    </g>
    <g id="xtick_4">
     <g id="line2d_7">
      <path d="M 657.260331 640.8 
L 657.260331 86.4 
" clip-path="url(#p17910ddb2b)" style="fill: none; stroke: #b0b0b0; stroke-width: 0.8; stroke-linecap: square"/>
     </g>
     <g id="line2d_8">
      <g>
       <use xlink:href="#mdff3962752" x="657.260331" y="640.8" style="stroke: #000000; stroke-width: 0.8"/>
      </g>
     </g>
     <g id="text_4">
      <!-- 2000 -->
      <g transform="translate(644.535331 655.398438) scale(0.1 -0.1)">
       <defs>
        <path id="DejaVuSans-32" d="M 1228 531 
L 3431 531 
L 3431 0 
L 469 0 
L 469 531 
Q 828 903 1448 1529 
Q 2069 2156 2228 2338 
Q 2531 2678 2651 2914 
Q 2772 3150 2772 3378 
Q 2772 3750 2511 3984 
Q 2250 4219 1831 4219 
Q 1534 4219 1204 4116 
Q 875 4013 500 3803 
L 500 4441 
Q 881 4594 1212 4672 
Q 1544 4750 1819 4750 
Q 2544 4750 2975 4387 
Q 3406 4025 3406 3419 
Q 3406 3131 3298 2873 
Q 3191 2616 2906 2266 
Q 2828 2175 2409 1742 
Q 1991 1309 1228 531 
z
" transform="scale(0.015625)"/>
       </defs>
       <use xlink:href="#DejaVuSans-32"/>
       <use xlink:href="#DejaVuSans-30" x="63.623047"/>
       <use xlink:href="#DejaVuSans-30" x="127.246094"/>
       <use xlink:href="#DejaVuSans-30" x="190.869141"/>
      </g>
     </g>
    </g>
    <g id="xtick_5">
     <g id="line2d_9">
      <path d="M 795.607438 640.8 
L 795.607438 86.4 
" clip-path="url(#p17910ddb2b)" style="fill: none; stroke: #b0b0b0; stroke-width: 0.8; stroke-linecap: square"/>
     </g>
     <g id="line2d_10">
      <g>
       <use xlink:href="#mdff3962752" x="795.607438" y="640.8" style="stroke: #000000; stroke-width: 0.8"/>
      </g>
     </g>
     <g id="text_5">
      <!-- 2500 -->
      <g transform="translate(782.882438 655.398438) scale(0.1 -0.1)">
       <use xlink:href="#DejaVuSans-32"/>
       <use xlink:href="#DejaVuSans-35" x="63.623047"/>
       <use xlink:href="#DejaVuSans-30" x="127.246094"/>
       <use xlink:href="#DejaVuSans-30" x="190.869141"/>
      </g>
     </g>
    </g>
    <g id="xtick_6">
     <g id="line2d_11">
      <path d="M 933.954545 640.8 
L 933.954545 86.4 
" clip-path="url(#p17910ddb2b)" style="fill: none; stroke: #b0b0b0; stroke-width: 0.8; stroke-linecap: square"/>
     </g>
     <g id="line2d_12">
      <g>
       <use xlink:href="#mdff3962752" x="933.954545" y="640.8" style="stroke: #000000; stroke-width: 0.8"/>
      </g>
     </g>
     <g id="text_6">
      <!-- 3000 -->
      <g transform="translate(921.229545 655.398438) scale(0.1 -0.1)">
       <defs>
        <path id="DejaVuSans-33" d="M 2597 2516 
Q 3050 2419 3304 2112 
Q 3559 1806 3559 1356 
Q 3559 666 3084 287 
Q 2609 -91 1734 -91 
Q 1441 -91 1130 -33 
Q 819 25 488 141 
L 488 750 
Q 750 597 1062 519 
Q 1375 441 1716 441 
Q 2309 441 2620 675 
Q 2931 909 2931 1356 
Q 2931 1769 2642 2001 
Q 2353 2234 1838 2234 
L 1294 2234 
L 1294 2753 
L 1863 2753 
Q 2328 2753 2575 2939 
Q 2822 3125 2822 3475 
Q 2822 3834 2567 4026 
Q 2313 4219 1838 4219 
Q 1578 4219 1281 4162 
Q 984 4106 628 3988 
L 628 4550 
Q 988 4650 1302 4700 
Q 1616 4750 1894 4750 
Q 2613 4750 3031 4423 
Q 3450 4097 3450 3541 
Q 3450 3153 3228 2886 
Q 3006 2619 2597 2516 
z
" transform="scale(0.015625)"/>
       </defs>
       <use xlink:href="#DejaVuSans-33"/>
       <use xlink:href="#DejaVuSans-30" x="63.623047"/>
       <use xlink:href="#DejaVuSans-30" x="127.246094"/>
       <use xlink:href="#DejaVuSans-30" x="190.869141"/>
      </g>
     </g>
    </g>
    <g id="text_7">
     <!-- wavelength [nm] -->
     <g transform="translate(510.84375 669.076563) scale(0.1 -0.1)">
      <defs>
       <path id="DejaVuSans-77" d="M 269 3500 
L 844 3500 
L 1563 769 
L 2278 3500 
L 2956 3500 
L 3675 769 
L 4391 3500 
L 4966 3500 
L 4050 0 
L 3372 0 
L 2619 2869 
L 1863 0 
L 1184 0 
L 269 3500 
z
" transform="scale(0.015625)"/>
       <path id="DejaVuSans-61" d="M 2194 1759 
Q 1497 1759 1228 1600 
Q 959 1441 959 1056 
Q 959 750 1161 570 
Q 1363 391 1709 391 
Q 2188 391 2477 730 
Q 2766 1069 2766 1631 
L 2766 1759 
L 2194 1759 
z
M 3341 1997 
L 3341 0 
L 2766 0 
L 2766 531 
Q 2569 213 2275 61 
Q 1981 -91 1556 -91 
Q 1019 -91 701 211 
Q 384 513 384 1019 
Q 384 1609 779 1909 
Q 1175 2209 1959 2209 
L 2766 2209 
L 2766 2266 
Q 2766 2663 2505 2880 
Q 2244 3097 1772 3097 
Q 1472 3097 1187 3025 
Q 903 2953 641 2809 
L 641 3341 
Q 956 3463 1253 3523 
Q 1550 3584 1831 3584 
Q 2591 3584 2966 3190 
Q 3341 2797 3341 1997 
z
" transform="scale(0.015625)"/>
       <path id="DejaVuSans-76" d="M 191 3500 
L 800 3500 
L 1894 563 
L 2988 3500 
L 3597 3500 
L 2284 0 
L 1503 0 
L 191 3500 
z
" transform="scale(0.015625)"/>
       <path id="DejaVuSans-65" d="M 3597 1894 
L 3597 1613 
L 953 1613 
Q 991 1019 1311 708 
Q 1631 397 2203 397 
Q 2534 397 2845 478 
Q 3156 559 3463 722 
L 3463 178 
Q 3153 47 2828 -22 
Q 2503 -91 2169 -91 
Q 1331 -91 842 396 
Q 353 884 353 1716 
Q 353 2575 817 3079 
Q 1281 3584 2069 3584 
Q 2775 3584 3186 3129 
Q 3597 2675 3597 1894 
z
M 3022 2063 
Q 3016 2534 2758 2815 
Q 2500 3097 2075 3097 
Q 1594 3097 1305 2825 
Q 1016 2553 972 2059 
L 3022 2063 
z
" transform="scale(0.015625)"/>
       <path id="DejaVuSans-6c" d="M 603 4863 
L 1178 4863 
L 1178 0 
L 603 0 
L 603 4863 
z
" transform="scale(0.015625)"/>
       <path id="DejaVuSans-6e" d="M 3513 2113 
L 3513 0 
L 2938 0 
L 2938 2094 
Q 2938 2591 2744 2837 
Q 2550 3084 2163 3084 
Q 1697 3084 1428 2787 
Q 1159 2491 1159 1978 
L 1159 0 
L 581 0 
L 581 3500 
L 1159 3500 
L 1159 2956 
Q 1366 3272 1645 3428 
Q 1925 3584 2291 3584 
Q 2894 3584 3203 3211 
Q 3513 2838 3513 2113 
z
" transform="scale(0.015625)"/>
       <path id="DejaVuSans-67" d="M 2906 1791 
Q 2906 2416 2648 2759 
Q 2391 3103 1925 3103 
Q 1463 3103 1205 2759 
Q 947 2416 947 1791 
Q 947 1169 1205 825 
Q 1463 481 1925 481 
Q 2391 481 2648 825 
Q 2906 1169 2906 1791 
z
M 3481 434 
Q 3481 -459 3084 -895 
Q 2688 -1331 1869 -1331 
Q 1566 -1331 1297 -1286 
Q 1028 -1241 775 -1147 
L 775 -588 
Q 1028 -725 1275 -790 
Q 1522 -856 1778 -856 
Q 2344 -856 2625 -561 
Q 2906 -266 2906 331 
L 2906 616 
Q 2728 306 2450 153 
Q 2172 0 1784 0 
Q 1141 0 747 490 
Q 353 981 353 1791 
Q 353 2603 747 3093 
Q 1141 3584 1784 3584 
Q 2172 3584 2450 3431 
Q 2728 3278 2906 2969 
L 2906 3500 
L 3481 3500 
L 3481 434 
z
" transform="scale(0.015625)"/>
       <path id="DejaVuSans-74" d="M 1172 4494 
L 1172 3500 
L 2356 3500 
L 2356 3053 
L 1172 3053 
L 1172 1153 
Q 1172 725 1289 603 
Q 1406 481 1766 481 
L 2356 481 
L 2356 0 
L 1766 0 
Q 1100 0 847 248 
Q 594 497 594 1153 
L 594 3053 
L 172 3053 
L 172 3500 
L 594 3500 
L 594 4494 
L 1172 4494 
z
" transform="scale(0.015625)"/>
       <path id="DejaVuSans-68" d="M 3513 2113 
L 3513 0 
L 2938 0 
L 2938 2094 
Q 2938 2591 2744 2837 
Q 2550 3084 2163 3084 
Q 1697 3084 1428 2787 
Q 1159 2491 1159 1978 
L 1159 0 
L 581 0 
L 581 4863 
L 1159 4863 
L 1159 2956 
Q 1366 3272 1645 3428 
Q 1925 3584 2291 3584 
Q 2894 3584 3203 3211 
Q 3513 2838 3513 2113 
z
" transform="scale(0.015625)"/>
       <path id="DejaVuSans-20" transform="scale(0.015625)"/>
       <path id="DejaVuSans-5b" d="M 550 4863 
L 1875 4863 
L 1875 4416 
L 1125 4416 
L 1125 -397 
L 1875 -397 
L 1875 -844 
L 550 -844 
L 550 4863 
z
" transform="scale(0.015625)"/>
       <path id="DejaVuSans-6d" d="M 3328 2828 
Q 3544 3216 3844 3400 
Q 4144 3584 4550 3584 
Q 5097 3584 5394 3201 
Q 5691 2819 5691 2113 
L 5691 0 
L 5113 0 
L 5113 2094 
Q 5113 2597 4934 2840 
Q 4756 3084 4391 3084 
Q 3944 3084 3684 2787 
Q 3425 2491 3425 1978 
L 3425 0 
L 2847 0 
L 2847 2094 
Q 2847 2600 2669 2842 
Q 2491 3084 2119 3084 
Q 1678 3084 1418 2786 
Q 1159 2488 1159 1978 
L 1159 0 
L 581 0 
L 581 3500 
L 1159 3500 
L 1159 2956 
Q 1356 3278 1631 3431 
Q 1906 3584 2284 3584 
Q 2666 3584 2933 3390 
Q 3200 3197 3328 2828 
z
" transform="scale(0.015625)"/>
       <path id="DejaVuSans-5d" d="M 1947 4863 
L 1947 -844 
L 622 -844 
L 622 -397 
L 1369 -397 
L 1369 4416 
L 622 4416 
L 622 4863 
L 1947 4863 
z
" transform="scale(0.015625)"/>
      </defs>
      <use xlink:href="#DejaVuSans-77"/>
      <use xlink:href="#DejaVuSans-61" x="81.787109"/>
      <use xlink:href="#DejaVuSans-76" x="143.066406"/>
      <use xlink:href="#DejaVuSans-65" x="202.246094"/>
      <use xlink:href="#DejaVuSans-6c" x="263.769531"/>
      <use xlink:href="#DejaVuSans-65" x="291.552734"/>
      <use xlink:href="#DejaVuSans-6e" x="353.076172"/>
      <use xlink:href="#DejaVuSans-67" x="416.455078"/>
      <use xlink:href="#DejaVuSans-74" x="479.931641"/>
      <use xlink:href="#DejaVuSans-68" x="519.140625"/>
      <use xlink:href="#DejaVuSans-20" x="582.519531"/>
      <use xlink:href="#DejaVuSans-5b" x="614.306641"/>
      <use xlink:href="#DejaVuSans-6e" x="653.320312"/>
      <use xlink:href="#DejaVuSans-6d" x="716.699219"/>
      <use xlink:href="#DejaVuSans-5d" x="814.111328"/>
     </g>
    </g>
   </g>
   <g id="matplotlib.axis_2">
    <g id="ytick_1">
     <g id="line2d_13">
      <path d="M 135 566.985294 
L 972 566.985294 
" clip-path="url(#p17910ddb2b)" style="fill: none; stroke: #b0b0b0; stroke-width: 0.8; stroke-linecap: square"/>
     </g>
     <g id="line2d_14">
      <defs>
       <path id="mc1c7ba339b" d="M 0 0 
L -3.5 0 
" style="stroke: #000000; stroke-width: 0.8"/>
      </defs>
      <g>
       <use xlink:href="#mc1c7ba339b" x="135" y="566.985294" style="stroke: #000000; stroke-width: 0.8"/>
      </g>
     </g>
     <g id="text_8">
      <!-- 20 -->
      <g transform="translate(115.275 570.784513) scale(0.1 -0.1)">
       <use xlink:href="#DejaVuSans-32"/>
       <use xlink:href="#DejaVuSans-30" x="63.623047"/>
      </g>
     </g>
    </g>
    <g id="ytick_2">
     <g id="line2d_15">
      <path d="M 135 470.926836 
L 972 470.926836 
" clip-path="url(#p17910ddb2b)" style="fill: none; stroke: #b0b0b0; stroke-width: 0.8; stroke-linecap: square"/>
     </g>
     <g id="line2d_16">
      <g>
       <use xlink:href="#mc1c7ba339b" x="135" y="470.926836" style="stroke: #000000; stroke-width: 0.8"/>
      </g>
     </g>
     <g id="text_9">
      <!-- 40 -->
      <g transform="translate(115.275 474.726055) scale(0.1 -0.1)">
       <defs>
        <path id="DejaVuSans-34" d="M 2419 4116 
L 825 1625 
L 2419 1625 
L 2419 4116 
z
M 2253 4666 
L 3047 4666 
L 3047 1625 
L 3713 1625 
L 3713 1100 
L 3047 1100 
L 3047 0 
L 2419 0 
L 2419 1100 
L 313 1100 
L 313 1709 
L 2253 4666 
z
" transform="scale(0.015625)"/>
       </defs>
       <use xlink:href="#DejaVuSans-34"/>
       <use xlink:href="#DejaVuSans-30" x="63.623047"/>
      </g>
     </g>
    </g>
    <g id="ytick_3">
     <g id="line2d_17">
      <path d="M 135 374.868378 
L 972 374.868378 
" clip-path="url(#p17910ddb2b)" style="fill: none; stroke: #b0b0b0; stroke-width: 0.8; stroke-linecap: square"/>
     </g>
     <g id="line2d_18">
      <g>
       <use xlink:href="#mc1c7ba339b" x="135" y="374.868378" style="stroke: #000000; stroke-width: 0.8"/>
      </g>
     </g>
     <g id="text_10">
      <!-- 60 -->
      <g transform="translate(115.275 378.667596) scale(0.1 -0.1)">
       <defs>
        <path id="DejaVuSans-36" d="M 2113 2584 
Q 1688 2584 1439 2293 
Q 1191 2003 1191 1497 
Q 1191 994 1439 701 
Q 1688 409 2113 409 
Q 2538 409 2786 701 
Q 3034 994 3034 1497 
Q 3034 2003 2786 2293 
Q 2538 2584 2113 2584 
z
M 3366 4563 
L 3366 3988 
Q 3128 4100 2886 4159 
Q 2644 4219 2406 4219 
Q 1781 4219 1451 3797 
Q 1122 3375 1075 2522 
Q 1259 2794 1537 2939 
Q 1816 3084 2150 3084 
Q 2853 3084 3261 2657 
Q 3669 2231 3669 1497 
Q 3669 778 3244 343 
Q 2819 -91 2113 -91 
Q 1303 -91 875 529 
Q 447 1150 447 2328 
Q 447 3434 972 4092 
Q 1497 4750 2381 4750 
Q 2619 4750 2861 4703 
Q 3103 4656 3366 4563 
z
" transform="scale(0.015625)"/>
       </defs>
       <use xlink:href="#DejaVuSans-36"/>
       <use xlink:href="#DejaVuSans-30" x="63.623047"/>
      </g>
     </g>
    </g>
    <g id="ytick_4">
     <g id="line2d_19">
      <path d="M 135 278.809919 
L 972 278.809919 
" clip-path="url(#p17910ddb2b)" style="fill: none; stroke: #b0b0b0; stroke-width: 0.8; stroke-linecap: square"/>
     </g>
     <g id="line2d_20">
      <g>
       <use xlink:href="#mc1c7ba339b" x="135" y="278.809919" style="stroke: #000000; stroke-width: 0.8"/>
      </g>
     </g>
     <g id="text_11">
      <!-- 80 -->
      <g transform="translate(115.275 282.609138) scale(0.1 -0.1)">
       <defs>
        <path id="DejaVuSans-38" d="M 2034 2216 
Q 1584 2216 1326 1975 
Q 1069 1734 1069 1313 
Q 1069 891 1326 650 
Q 1584 409 2034 409 
Q 2484 409 2743 651 
Q 3003 894 3003 1313 
Q 3003 1734 2745 1975 
Q 2488 2216 2034 2216 
z
M 1403 2484 
Q 997 2584 770 2862 
Q 544 3141 544 3541 
Q 544 4100 942 4425 
Q 1341 4750 2034 4750 
Q 2731 4750 3128 4425 
Q 3525 4100 3525 3541 
Q 3525 3141 3298 2862 
Q 3072 2584 2669 2484 
Q 3125 2378 3379 2068 
Q 3634 1759 3634 1313 
Q 3634 634 3220 271 
Q 2806 -91 2034 -91 
Q 1263 -91 848 271 
Q 434 634 434 1313 
Q 434 1759 690 2068 
Q 947 2378 1403 2484 
z
M 1172 3481 
Q 1172 3119 1398 2916 
Q 1625 2713 2034 2713 
Q 2441 2713 2670 2916 
Q 2900 3119 2900 3481 
Q 2900 3844 2670 4047 
Q 2441 4250 2034 4250 
Q 1625 4250 1398 4047 
Q 1172 3844 1172 3481 
z
" transform="scale(0.015625)"/>
       </defs>
       <use xlink:href="#DejaVuSans-38"/>
       <use xlink:href="#DejaVuSans-30" x="63.623047"/>
      </g>
     </g>
    </g>
    <g id="ytick_5">
     <g id="line2d_21">
      <path d="M 135 182.751461 
L 972 182.751461 
" clip-path="url(#p17910ddb2b)" style="fill: none; stroke: #b0b0b0; stroke-width: 0.8; stroke-linecap: square"/>
     </g>
     <g id="line2d_22">
      <g>
       <use xlink:href="#mc1c7ba339b" x="135" y="182.751461" style="stroke: #000000; stroke-width: 0.8"/>
      </g>
     </g>
     <g id="text_12">
      <!-- 100 -->
      <g transform="translate(108.9125 186.550679) scale(0.1 -0.1)">
       <use xlink:href="#DejaVuSans-31"/>
       <use xlink:href="#DejaVuSans-30" x="63.623047"/>
       <use xlink:href="#DejaVuSans-30" x="127.246094"/>
      </g>
     </g>
    </g>
    <g id="ytick_6">
     <g id="line2d_23">
      <path d="M 135 86.693002 
L 972 86.693002 
" clip-path="url(#p17910ddb2b)" style="fill: none; stroke: #b0b0b0; stroke-width: 0.8; stroke-linecap: square"/>
     </g>
     <g id="line2d_24">
      <g>
       <use xlink:href="#mc1c7ba339b" x="135" y="86.693002" style="stroke: #000000; stroke-width: 0.8"/>
      </g>
     </g>
     <g id="text_13">
      <!-- 120 -->
      <g transform="translate(108.9125 90.492221) scale(0.1 -0.1)">
       <use xlink:href="#DejaVuSans-31"/>
       <use xlink:href="#DejaVuSans-32" x="63.623047"/>
       <use xlink:href="#DejaVuSans-30" x="127.246094"/>
      </g>
     </g>
    </g>
    <g id="text_14">
     <!-- %R -->
     <g transform="translate(102.832812 371.825) rotate(-90) scale(0.1 -0.1)">
      <defs>
       <path id="DejaVuSans-25" d="M 4653 2053 
Q 4381 2053 4226 1822 
Q 4072 1591 4072 1178 
Q 4072 772 4226 539 
Q 4381 306 4653 306 
Q 4919 306 5073 539 
Q 5228 772 5228 1178 
Q 5228 1588 5073 1820 
Q 4919 2053 4653 2053 
z
M 4653 2450 
Q 5147 2450 5437 2106 
Q 5728 1763 5728 1178 
Q 5728 594 5436 251 
Q 5144 -91 4653 -91 
Q 4153 -91 3862 251 
Q 3572 594 3572 1178 
Q 3572 1766 3864 2108 
Q 4156 2450 4653 2450 
z
M 1428 4353 
Q 1159 4353 1004 4120 
Q 850 3888 850 3481 
Q 850 3069 1003 2837 
Q 1156 2606 1428 2606 
Q 1700 2606 1854 2837 
Q 2009 3069 2009 3481 
Q 2009 3884 1853 4118 
Q 1697 4353 1428 4353 
z
M 4250 4750 
L 4750 4750 
L 1831 -91 
L 1331 -91 
L 4250 4750 
z
M 1428 4750 
Q 1922 4750 2215 4408 
Q 2509 4066 2509 3481 
Q 2509 2891 2217 2550 
Q 1925 2209 1428 2209 
Q 931 2209 642 2551 
Q 353 2894 353 3481 
Q 353 4063 643 4406 
Q 934 4750 1428 4750 
z
" transform="scale(0.015625)"/>
       <path id="DejaVuSans-52" d="M 2841 2188 
Q 3044 2119 3236 1894 
Q 3428 1669 3622 1275 
L 4263 0 
L 3584 0 
L 2988 1197 
Q 2756 1666 2539 1819 
Q 2322 1972 1947 1972 
L 1259 1972 
L 1259 0 
L 628 0 
L 628 4666 
L 2053 4666 
Q 2853 4666 3247 4331 
Q 3641 3997 3641 3322 
Q 3641 2881 3436 2590 
Q 3231 2300 2841 2188 
z
M 1259 4147 
L 1259 2491 
L 2053 2491 
Q 2509 2491 2742 2702 
Q 2975 2913 2975 3322 
Q 2975 3731 2742 3939 
Q 2509 4147 2053 4147 
L 1259 4147 
z
" transform="scale(0.015625)"/>
      </defs>
      <use xlink:href="#DejaVuSans-25"/>
      <use xlink:href="#DejaVuSans-52" x="95.019531"/>
     </g>
    </g>
   </g>
   <g id="line2d_25">
    <path d="M 933.954545 191.182512 
L 933.677851 173.491906 
L 933.401157 144.265639 
L 933.124463 190.465435 
L 932.847769 199.971861 
L 932.571074 147.685801 
L 932.29438 167.868163 
L 932.017686 210.94702 
L 931.740992 173.99189 
L 931.464298 203.481356 
L 931.187603 158.257995 
L 930.910909 233.494341 
L 930.634215 166.12134 
L 930.357521 212.359559 
L 930.080826 209.368299 
L 929.804132 150.805299 
L 929.250744 206.517764 
L 928.97405 206.961074 
L 928.697355 247.215812 
L 928.420661 197.677985 
L 928.143967 185.062627 
L 927.867273 206.28002 
L 927.590579 176.788632 
L 927.313884 197.12757 
L 927.03719 192.331371 
L 926.760496 196.232305 
L 926.483802 157.074555 
L 926.207107 179.424956 
L 925.930413 157.771939 
L 925.377025 244.25433 
L 925.100331 233.141807 
L 924.823636 139.300378 
L 924.546942 181.775987 
L 924.270248 177.749697 
L 923.993554 189.969774 
L 923.71686 187.606255 
L 923.440165 210.890826 
L 923.163471 178.918248 
L 922.886777 160.471662 
L 922.610083 175.556682 
L 922.333388 179.859141 
L 922.056694 172.944372 
L 921.78 205.779075 
L 921.503306 181.379746 
L 920.949917 166.052658 
L 920.673223 203.316136 
L 920.396529 221.333821 
L 919.84314 179.206423 
L 919.566446 220.035591 
L 919.289752 177.970151 
L 919.013058 185.568855 
L 918.736364 174.873226 
L 918.459669 194.871156 
L 918.182975 144.252191 
L 917.906281 147.328944 
L 917.629587 160.372241 
L 917.352893 180.299088 
L 917.076198 223.809728 
L 916.52281 196.713077 
L 916.246116 186.781113 
L 915.969421 193.047487 
L 915.692727 177.158457 
L 915.416033 184.855621 
L 915.139339 173.296907 
L 914.862645 141.635078 
L 914.58595 182.131403 
L 914.309256 157.220563 
L 914.032562 151.531021 
L 913.755868 162.83518 
L 913.479174 187.640356 
L 913.202479 197.468577 
L 912.649091 142.863666 
L 912.372397 179.680952 
L 912.095702 188.414587 
L 911.819008 187.295026 
L 911.542314 201.723006 
L 911.26562 208.875999 
L 910.988926 202.588493 
L 910.435537 174.967364 
L 910.158843 179.999866 
L 909.605455 145.792489 
L 909.32876 127.865579 
L 909.052066 160.643607 
L 908.498678 193.761681 
L 908.221983 169.636599 
L 907.668595 199.042495 
L 907.115207 180.513299 
L 906.838512 187.750343 
L 906.561818 176.580185 
L 906.285124 156.854581 
L 906.00843 157.335353 
L 905.731736 188.695078 
L 905.178347 159.282938 
L 904.901653 195.556053 
L 904.624959 187.283979 
L 904.348264 172.764743 
L 904.07157 164.513322 
L 903.794876 162.708863 
L 903.241488 196.444114 
L 902.964793 164.604577 
L 902.688099 165.894642 
L 902.411405 160.281466 
L 902.134711 147.129622 
L 901.581322 198.043487 
L 901.304628 191.740611 
L 900.75124 200.44783 
L 900.474545 162.612325 
L 900.197851 164.388926 
L 899.921157 194.390864 
L 899.644463 195.855756 
L 899.367769 186.7595 
L 899.091074 190.972144 
L 898.81438 178.871179 
L 898.260992 189.403509 
L 897.984298 161.943758 
L 897.707603 166.13815 
L 897.430909 201.308034 
L 897.154215 200.997285 
L 896.877521 178.375037 
L 896.324132 186.745091 
L 895.770744 120.568498 
L 895.217355 173.45012 
L 894.940661 186.002559 
L 894.387273 151.007022 
L 893.833884 187.016456 
L 893.55719 186.197078 
L 893.280496 182.747618 
L 893.003802 182.748099 
L 892.727107 174.63356 
L 892.450413 162.896177 
L 892.173719 158.256554 
L 891.897025 158.829062 
L 891.620331 177.053273 
L 891.343636 185.639458 
L 891.066942 174.051446 
L 890.790248 185.61016 
L 890.513554 184.603948 
L 890.23686 199.123184 
L 889.960165 195.446066 
L 889.683471 171.309938 
L 889.406777 206.540338 
L 889.130083 220.546622 
L 888.576694 177.848637 
L 888.023306 194.529188 
L 887.469917 141.479464 
L 886.916529 171.528471 
L 886.639835 212.949358 
L 886.36314 217.50301 
L 886.086446 191.683457 
L 885.809752 177.948058 
L 885.533058 155.011699 
L 885.256364 159.376115 
L 884.979669 187.871377 
L 884.702975 176.617648 
L 884.426281 182.510354 
L 884.149587 203.590863 
L 883.872893 158.310347 
L 883.596198 140.688422 
L 883.319504 154.81574 
L 883.04281 155.831078 
L 882.766116 163.309709 
L 882.212727 188.234478 
L 881.936033 173.185959 
L 881.659339 166.184739 
L 881.382645 178.101271 
L 881.10595 176.957695 
L 880.829256 185.77394 
L 880.552562 161.279994 
L 880.275868 201.805617 
L 879.999174 221.166679 
L 879.722479 213.706299 
L 879.445785 157.952529 
L 879.169091 165.795702 
L 878.892397 196.433067 
L 878.615702 209.858677 
L 878.339008 195.251068 
L 878.062314 209.610847 
L 877.78562 203.791625 
L 877.508926 186.732123 
L 877.232231 182.748099 
L 876.955537 210.825026 
L 876.678843 170.041966 
L 876.402149 183.26009 
L 876.125455 184.369085 
L 875.572066 167.412846 
L 875.295372 204.60428 
L 875.018678 199.619806 
L 874.741983 172.54621 
L 874.465289 192.202652 
L 874.188595 134.680926 
L 873.911901 153.101096 
L 873.635207 158.312748 
L 873.358512 185.70718 
L 873.081818 184.216833 
L 872.805124 162.340959 
L 872.52843 185.431492 
L 872.251736 135.941213 
L 871.975041 180.274113 
L 871.698347 183.852771 
L 871.144959 167.854235 
L 870.868264 152.939718 
L 870.038182 212.470507 
L 869.761488 193.955239 
L 869.484793 210.589202 
L 869.208099 170.833968 
L 868.931405 208.307814 
L 868.654711 206.828033 
L 868.378017 148.099332 
L 868.101322 170.720619 
L 867.824628 181.900383 
L 867.547934 158.095656 
L 867.27124 180.312536 
L 866.994545 176.733879 
L 866.717851 182.20729 
L 866.441157 111.6 
L 865.887769 180.078634 
L 865.611074 182.747138 
L 865.057686 195.563738 
L 864.780992 207.351071 
L 864.504298 190.664276 
L 864.227603 213.556928 
L 863.950909 222.41736 
L 863.674215 162.448545 
L 863.397521 203.576454 
L 863.120826 165.642008 
L 862.844132 182.200085 
L 862.567438 126.280614 
L 862.290744 189.559604 
L 862.01405 173.832913 
L 861.737355 126.462165 
L 861.460661 182.123719 
L 861.183967 190.317025 
L 860.907273 190.253626 
L 860.630579 167.006519 
L 860.353884 190.96686 
L 860.07719 175.137387 
L 859.800496 119.532507 
L 859.523802 190.715187 
L 859.247107 204.635499 
L 858.970413 189.296884 
L 858.693719 153.190431 
L 858.417025 153.837865 
L 857.863636 189.222919 
L 857.586942 166.592987 
L 857.310248 180.737115 
L 857.033554 140.051555 
L 856.75686 174.20562 
L 856.480165 166.902776 
L 856.203471 169.175999 
L 855.926777 225.931179 
L 855.650083 165.691959 
L 855.373388 155.908405 
L 855.096694 169.642363 
L 854.82 197.123727 
L 854.543306 175.524503 
L 854.266612 180.270751 
L 853.989917 157.931396 
L 853.713223 194.865873 
L 853.436529 177.624341 
L 853.159835 196.029141 
L 852.329752 152.838857 
L 852.053058 161.34003 
L 851.776364 191.889022 
L 851.499669 197.163111 
L 851.222975 179.507567 
L 850.946281 203.268107 
L 850.669587 184.744674 
L 850.392893 191.242548 
L 850.116198 149.155975 
L 849.839504 137.040602 
L 849.56281 174.941908 
L 849.286116 179.070501 
L 849.009421 196.558423 
L 848.732727 172.709029 
L 848.456033 224.590683 
L 848.179339 122.414742 
L 847.349256 167.409964 
L 847.072562 171.250862 
L 846.795868 194.049376 
L 846.519174 205.598965 
L 846.242479 178.142576 
L 845.965785 166.756767 
L 845.689091 187.588965 
L 845.412397 152.725028 
L 844.859008 188.572603 
L 844.582314 159.506755 
L 844.30562 156.47515 
L 844.028926 149.200643 
L 843.752231 162.306859 
L 843.475537 164.983528 
L 843.198843 158.420814 
L 842.922149 171.476599 
L 842.645455 193.794821 
L 842.36876 150.580522 
L 842.092066 187.961191 
L 841.815372 167.972867 
L 841.538678 136.41286 
L 841.261983 166.540635 
L 840.985289 160.321811 
L 840.708595 163.333243 
L 840.431901 152.410916 
L 839.601818 182.748099 
L 839.325124 172.247468 
L 839.04843 156.997227 
L 838.771736 184.969931 
L 838.495041 181.555533 
L 838.218347 163.829866 
L 837.664959 177.41061 
L 837.388264 182.747618 
L 837.11157 173.034187 
L 836.834876 151.022872 
L 836.558182 146.006219 
L 836.281488 169.371958 
L 836.004793 212.299043 
L 835.728099 177.764106 
L 835.451405 168.119836 
L 835.174711 173.353101 
L 834.898017 172.901626 
L 834.621322 148.332274 
L 834.344628 155.877666 
L 834.067934 177.392359 
L 833.79124 180.657386 
L 833.514545 198.209188 
L 833.237851 149.157416 
L 832.684463 182.741375 
L 832.407769 147.572452 
L 831.85438 170.270585 
L 831.577686 155.225909 
L 831.300992 187.17015 
L 831.024298 201.49919 
L 830.747603 169.647646 
L 830.194215 217.40551 
L 829.640826 171.370455 
L 829.364132 195.006119 
L 828.810744 146.257892 
L 828.53405 160.487512 
L 828.257355 194.77894 
L 827.980661 194.743879 
L 827.703967 175.530266 
L 827.427273 185.322465 
L 827.150579 190.471199 
L 826.873884 173.848763 
L 826.59719 182.464246 
L 826.320496 204.04666 
L 826.043802 196.752942 
L 825.767107 203.29068 
L 825.490413 215.601532 
L 824.937025 182.748099 
L 824.383636 205.309349 
L 824.106942 200.26676 
L 823.553554 171.195628 
L 823.27686 183.593413 
L 823.000165 183.458931 
L 822.723471 150.97148 
L 822.446777 148.483086 
L 822.170083 179.39758 
L 821.893388 168.480056 
L 821.34 200.638987 
L 821.063306 186.288333 
L 820.786612 186.615412 
L 820.509917 186.023692 
L 820.233223 190.362653 
L 819.956529 197.269256 
L 819.679835 189.436649 
L 819.40314 168.88158 
L 819.126446 175.952443 
L 818.849752 215.624106 
L 818.573058 229.861891 
L 818.296364 192.768437 
L 818.019669 171.811843 
L 817.189587 214.452193 
L 816.912893 212.798547 
L 816.636198 209.741006 
L 816.359504 202.033275 
L 816.08281 188.439562 
L 815.806116 197.695275 
L 815.529421 199.958412 
L 815.252727 191.775673 
L 814.976033 200.992962 
L 814.422645 193.401942 
L 813.869256 229.600132 
L 813.592562 229.253841 
L 813.315868 203.455901 
L 813.039174 215.487703 
L 812.762479 212.974814 
L 812.209091 194.111814 
L 811.932397 171.928074 
L 811.655702 218.149003 
L 811.379008 236.901055 
L 811.102314 199.042975 
L 810.82562 235.980334 
L 810.548926 242.008003 
L 810.272231 238.320799 
L 809.995537 260.921433 
L 809.718843 249.092794 
L 809.442149 249.687876 
L 809.165455 263.995303 
L 808.88876 249.90689 
L 808.612066 241.989271 
L 808.335372 254.447573 
L 808.058678 229.323963 
L 807.781983 243.41766 
L 807.505289 266.361704 
L 807.228595 243.816303 
L 806.951901 243.387882 
L 806.675207 244.991578 
L 806.398512 282.825643 
L 806.121818 267.175799 
L 805.845124 258.312965 
L 805.56843 286.373562 
L 805.291736 273.860027 
L 804.738347 311.14944 
L 804.461653 311.936159 
L 803.63157 273.639092 
L 803.354876 309.221547 
L 803.078182 304.537256 
L 802.801488 323.607742 
L 802.248099 332.385083 
L 801.971405 340.997685 
L 801.694711 337.889713 
L 801.418017 328.423633 
L 800.864628 343.245453 
L 800.587934 356.416028 
L 800.31124 345.847196 
L 800.034545 347.758279 
L 799.757851 341.504393 
L 799.481157 369.529929 
L 799.204463 369.853646 
L 798.927769 362.968656 
L 798.651074 374.070132 
L 798.37438 380.251494 
L 798.097686 391.669963 
L 797.820992 391.604163 
L 797.544298 391.250187 
L 797.267603 390.306413 
L 796.990909 424.723678 
L 796.714215 405.827538 
L 796.160826 417.145626 
L 795.884132 426.619392 
L 795.607438 427.805714 
L 795.330744 422.112809 
L 795.05405 433.655194 
L 794.500661 431.438164 
L 794.223967 431.282069 
L 793.670579 453.222302 
L 793.393884 447.315667 
L 793.11719 460.935315 
L 792.840496 466.946654 
L 792.563802 464.872271 
L 792.287107 474.896452 
L 792.010413 467.714161 
L 791.733719 481.578278 
L 791.457025 488.421483 
L 791.180331 470.338478 
L 790.903636 473.262017 
L 790.626942 478.971732 
L 790.350248 476.298905 
L 790.073554 488.723106 
L 789.79686 480.019249 
L 789.520165 497.767971 
L 789.243471 496.69932 
L 788.966777 502.751003 
L 788.413388 496.712769 
L 787.86 512.421208 
L 787.583306 509.643198 
L 787.306612 508.321433 
L 787.029917 514.501354 
L 786.753223 516.194865 
L 786.476529 522.768625 
L 786.199835 524.930901 
L 785.92314 519.644324 
L 785.646446 517.871085 
L 785.369752 520.629404 
L 784.816364 531.018606 
L 784.539669 523.834394 
L 784.262975 529.106082 
L 783.986281 532.129042 
L 783.432893 530.645899 
L 783.156198 526.297813 
L 782.879504 532.745257 
L 782.60281 534.314372 
L 782.326116 537.483821 
L 782.049421 535.978585 
L 781.496033 544.040771 
L 781.219339 541.42606 
L 780.942645 547.976286 
L 780.66595 539.571171 
L 780.389256 544.23673 
L 780.112562 543.739148 
L 779.835868 539.089918 
L 779.559174 539.537551 
L 779.282479 542.93754 
L 779.005785 538.785413 
L 778.729091 541.21281 
L 778.452397 542.400093 
L 778.175702 544.878881 
L 777.899008 541.811735 
L 777.622314 542.523047 
L 777.34562 548.282232 
L 777.068926 543.665183 
L 776.792231 542.532653 
L 776.515537 542.768957 
L 775.962149 545.545047 
L 775.685455 543.209385 
L 775.40876 547.773603 
L 774.855372 541.65708 
L 774.578678 543.144546 
L 774.301983 547.946028 
L 774.025289 546.477294 
L 773.748595 544.355843 
L 773.195207 547.683308 
L 772.918512 545.12287 
L 772.641818 545.87885 
L 772.365124 548.637168 
L 772.08843 549.026685 
L 771.811736 547.673702 
L 771.535041 543.412068 
L 771.258347 545.839466 
L 770.981653 550.39744 
L 770.704959 547.629035 
L 769.874876 546.285177 
L 769.321488 555.413612 
L 768.768099 548.227479 
L 768.214711 542.998057 
L 767.938017 547.300515 
L 767.661322 544.900014 
L 767.384628 546.627625 
L 767.107934 547.570439 
L 766.83124 549.6746 
L 766.554545 548.954161 
L 766.277851 547.021945 
L 766.001157 550.619335 
L 765.724463 550.185631 
L 765.447769 553.117335 
L 765.171074 553.746998 
L 764.89438 548.735628 
L 764.617686 550.172182 
L 764.340992 548.780295 
L 764.064298 549.254344 
L 763.787603 552.449729 
L 763.510909 553.956886 
L 763.234215 551.291264 
L 762.957521 549.857111 
L 762.404132 555.415053 
L 762.127438 553.12502 
L 761.850744 552.597178 
L 761.297355 553.519339 
L 761.020661 551.616421 
L 760.743967 551.235069 
L 760.467273 552.05733 
L 760.190579 553.757084 
L 759.63719 550.914234 
L 759.360496 553.079872 
L 759.083802 553.781099 
L 758.807107 553.173529 
L 758.253719 552.66634 
L 757.977025 555.24503 
L 757.700331 556.542299 
L 757.423636 552.59958 
L 756.870248 558.084998 
L 756.593554 559.00812 
L 756.31686 555.941934 
L 756.040165 555.70515 
L 755.763471 558.312657 
L 755.486777 558.265588 
L 755.210083 559.14068 
L 754.933388 556.19793 
L 754.656694 555.043787 
L 754.38 555.447233 
L 754.103306 555.125437 
L 753.826612 558.97594 
L 753.549917 559.746329 
L 753.273223 558.343876 
L 752.996529 557.716614 
L 752.719835 558.234369 
L 752.44314 557.860702 
L 751.889752 560.466287 
L 751.613058 559.345285 
L 751.059669 561.30824 
L 750.782975 560.732849 
L 750.506281 561.340899 
L 750.229587 560.786162 
L 749.952893 559.10754 
L 749.676198 561.27558 
L 749.399504 564.438785 
L 748.846116 565.112635 
L 748.569421 562.248172 
L 748.292727 560.727566 
L 747.462645 564.476728 
L 747.18595 564.145806 
L 746.909256 562.554118 
L 746.632562 563.702497 
L 746.355868 564.296618 
L 745.802479 564.444548 
L 745.525785 563.654467 
L 745.249091 564.092494 
L 744.972397 565.993971 
L 744.695702 566.662058 
L 744.419008 566.809988 
L 744.142314 567.838774 
L 743.86562 567.104407 
L 743.588926 567.442533 
L 743.312231 568.369977 
L 743.035537 568.694174 
L 742.758843 568.44106 
L 742.482149 567.63465 
L 742.205455 567.546756 
L 741.652066 569.265722 
L 741.375372 570.737338 
L 741.098678 568.812326 
L 740.545289 571.009664 
L 740.268595 571.355954 
L 739.991901 572.148437 
L 739.715207 573.466839 
L 739.438512 572.653704 
L 739.161818 570.47798 
L 738.885124 570.762313 
L 738.60843 572.539395 
L 738.331736 571.026954 
L 737.501653 573.820814 
L 736.948264 575.218945 
L 736.67157 575.909125 
L 736.394876 574.201686 
L 736.118182 573.742527 
L 735.564793 574.177672 
L 735.288099 574.135886 
L 735.011405 575.6709 
L 734.734711 575.803941 
L 734.458017 575.442761 
L 734.181322 574.435108 
L 733.627934 577.193427 
L 733.35124 578.840349 
L 733.074545 578.698663 
L 732.797851 577.23137 
L 732.521157 579.686624 
L 732.244463 580.288911 
L 731.691074 578.351892 
L 731.41438 581.094361 
L 731.137686 580.668822 
L 730.860992 579.509877 
L 730.584298 580.039159 
L 730.307603 580.004578 
L 730.030909 579.854246 
L 729.754215 581.439691 
L 728.924132 578.94073 
L 728.370744 582.538119 
L 728.09405 582.081362 
L 727.817355 580.380166 
L 727.540661 580.33694 
L 727.263967 581.37245 
L 726.987273 580.213024 
L 726.710579 580.182766 
L 726.433884 580.957478 
L 726.15719 580.390252 
L 725.880496 580.893599 
L 725.327107 578.171302 
L 725.050413 580.212064 
L 724.773719 580.675066 
L 724.497025 580.774966 
L 724.220331 579.61362 
L 723.943636 580.232236 
L 723.666942 579.404693 
L 723.390248 580.850372 
L 723.113554 579.906118 
L 722.83686 581.469469 
L 722.560165 581.589542 
L 722.283471 581.115013 
L 722.006777 579.863852 
L 721.730083 581.108289 
L 721.453388 581.58618 
L 721.176694 581.389741 
L 720.9 583.757101 
L 720.623306 583.547694 
L 720.346612 585.359837 
L 720.069917 582.738882 
L 719.793223 584.211458 
L 719.516529 584.064488 
L 719.239835 584.777722 
L 718.96314 582.927156 
L 718.686446 584.758511 
L 718.409752 582.544844 
L 718.133058 584.570236 
L 717.856364 585.109604 
L 717.579669 586.621565 
L 717.302975 586.042332 
L 716.749587 585.851176 
L 716.472893 584.648524 
L 716.196198 586.375655 
L 715.919504 586.36797 
L 715.64281 584.899717 
L 715.366116 584.454486 
L 715.089421 586.335791 
L 714.812727 585.651374 
L 714.536033 587.799722 
L 714.259339 587.110022 
L 713.982645 585.863183 
L 713.70595 585.666743 
L 713.152562 585.782494 
L 712.875868 583.901189 
L 712.599174 584.109636 
L 712.322479 583.186034 
L 712.045785 581.552079 
L 711.492397 582.129391 
L 710.662314 578.06996 
L 710.38562 578.334601 
L 710.108926 574.929809 
L 709.832231 576.686238 
L 709.555537 575.054205 
L 709.278843 575.690112 
L 708.725455 574.45528 
L 708.172066 571.095156 
L 707.895372 571.526938 
L 707.618678 573.302579 
L 706.788595 571.544229 
L 706.235207 570.910723 
L 705.958512 570.255124 
L 705.681818 568.995798 
L 705.12843 569.697985 
L 704.851736 568.977067 
L 704.575041 568.990995 
L 704.298347 569.308468 
L 704.021653 568.395913 
L 703.744959 568.892535 
L 703.468264 567.347915 
L 703.19157 568.401196 
L 702.638182 567.93099 
L 702.361488 567.637531 
L 702.084793 565.624146 
L 701.808099 564.666443 
L 701.254711 568.868521 
L 700.978017 567.424282 
L 700.701322 565.200528 
L 700.424628 565.060283 
L 700.147934 564.605926 
L 699.87124 561.959036 
L 699.594545 561.257329 
L 699.317851 563.468114 
L 698.764463 561.158869 
L 698.487769 561.270296 
L 698.211074 561.674703 
L 697.93438 560.73333 
L 697.657686 560.575794 
L 697.380992 560.839955 
L 697.104298 558.832333 
L 696.550909 560.518159 
L 696.274215 560.044591 
L 695.720826 559.547008 
L 695.444132 561.022466 
L 694.890744 557.434202 
L 694.61405 557.74255 
L 694.337355 557.875591 
L 694.060661 557.108564 
L 693.783967 555.941934 
L 693.507273 555.522158 
L 693.230579 556.555747 
L 692.67719 557.319892 
L 692.400496 557.191174 
L 692.123802 555.976515 
L 691.847107 555.404967 
L 691.570413 556.01734 
L 691.293719 556.299752 
L 691.017025 556.387165 
L 690.740331 556.783886 
L 690.463636 555.874213 
L 690.186942 557.049488 
L 689.910248 556.845364 
L 689.633554 558.26895 
L 689.35686 558.035048 
L 689.080165 557.176285 
L 688.803471 557.343427 
L 688.526777 557.03652 
L 688.250083 555.806011 
L 687.973388 556.110036 
L 687.696694 556.683505 
L 687.42 556.746904 
L 687.143306 556.462571 
L 686.866612 556.764194 
L 686.589917 557.580211 
L 686.036529 556.091305 
L 685.48314 557.342946 
L 685.206446 557.965405 
L 684.929752 556.647483 
L 684.653058 556.045197 
L 684.376364 556.274296 
L 684.099669 557.704607 
L 683.822975 558.329467 
L 683.546281 558.580179 
L 683.269587 558.583541 
L 682.992893 557.687796 
L 682.716198 557.950996 
L 682.439504 557.736786 
L 682.16281 557.732944 
L 681.886116 557.18493 
L 681.332727 559.202158 
L 681.056033 559.359213 
L 680.502645 557.635444 
L 679.949256 558.517261 
L 679.672562 559.437981 
L 679.395868 559.844789 
L 679.119174 559.432218 
L 678.842479 559.769863 
L 678.565785 559.847671 
L 678.012397 561.070495 
L 677.735702 560.550819 
L 676.90562 560.663687 
L 676.628926 560.938895 
L 676.352231 561.940304 
L 675.522149 563.544961 
L 675.245455 563.107895 
L 674.692066 563.483964 
L 674.415372 563.550724 
L 673.861983 564.489215 
L 673.585289 564.51323 
L 673.308595 564.697662 
L 673.031901 565.677939 
L 672.755207 565.754305 
L 672.478512 565.411377 
L 672.201818 565.370072 
L 671.64843 564.965665 
L 671.095041 565.094864 
L 670.818347 564.919557 
L 670.541653 565.091982 
L 670.264959 564.912353 
L 669.988264 563.982027 
L 669.71157 563.761092 
L 669.434876 562.96909 
L 669.158182 562.849017 
L 668.604793 562.291398 
L 668.051405 562.643932 
L 667.774711 562.276509 
L 667.221322 561.02919 
L 666.39124 559.610406 
L 666.114545 559.202158 
L 665.837851 559.707425 
L 665.561157 559.331837 
L 665.284463 558.445217 
L 664.731074 558.051378 
L 664.45438 558.770375 
L 664.177686 558.372693 
L 663.624298 557.219511 
L 663.347603 557.486554 
L 663.070909 557.315089 
L 662.794215 556.614343 
L 662.517521 556.8396 
L 661.687438 556.463531 
L 661.410744 556.460649 
L 661.13405 556.631634 
L 660.580661 555.96931 
L 660.027273 556.845844 
L 659.750579 556.524528 
L 659.19719 557.077345 
L 658.920496 556.637877 
L 658.367107 557.500963 
L 657.537025 556.401574 
L 657.260331 556.64172 
L 656.983636 557.511529 
L 656.706942 557.324215 
L 656.153554 558.033126 
L 655.87686 558.261265 
L 655.600165 557.599423 
L 655.323471 558.413998 
L 655.046777 558.496128 
L 654.770083 558.757888 
L 654.216694 559.910589 
L 653.94 559.781871 
L 653.663306 560.029702 
L 653.109917 560.249195 
L 652.833223 560.474932 
L 652.556529 561.051283 
L 652.279835 560.891826 
L 651.726446 561.776525 
L 651.449752 561.499396 
L 651.173058 562.309169 
L 650.896364 562.236164 
L 650.619669 563.01856 
L 650.342975 562.999349 
L 650.066281 563.096848 
L 649.512893 563.629492 
L 649.236198 564.018049 
L 648.406116 564.601604 
L 648.129421 564.996884 
L 647.576033 565.033387 
L 647.022645 565.994451 
L 646.74595 565.71252 
L 646.469256 565.948343 
L 646.192562 565.780721 
L 645.915868 566.364277 
L 645.639174 566.579447 
L 645.362479 567.228803 
L 645.085785 566.94543 
L 644.809091 567.451178 
L 644.532397 567.703812 
L 644.255702 568.277281 
L 643.979008 568.401196 
L 643.702314 567.951162 
L 643.42562 567.961729 
L 643.148926 568.525592 
L 642.595537 568.779186 
L 642.318843 569.653798 
L 642.042149 569.432384 
L 641.765455 569.795004 
L 641.48876 569.418455 
L 641.212066 569.819499 
L 640.935372 569.955422 
L 640.658678 569.627382 
L 640.105289 569.798366 
L 639.828595 569.835349 
L 639.551901 570.19845 
L 638.998512 569.517395 
L 638.445124 570.382402 
L 638.16843 570.065889 
L 637.891736 570.08318 
L 637.615041 569.676852 
L 637.338347 569.703749 
L 636.784959 568.7691 
L 636.508264 568.763817 
L 636.23157 568.564015 
L 635.954876 568.067873 
L 635.678182 567.277792 
L 634.848099 566.167357 
L 633.464628 563.669356 
L 632.91124 562.1963 
L 632.634545 560.801531 
L 631.804463 558.950965 
L 631.527769 557.434202 
L 630.97438 555.769989 
L 629.590909 549.664994 
L 628.760826 545.860599 
L 628.484132 545.059951 
L 628.207438 543.462979 
L 627.930744 542.689229 
L 625.993884 534.633766 
L 625.71719 534.429162 
L 624.610413 530.578178 
L 624.057025 529.329418 
L 623.226942 526.400596 
L 622.673554 525.118215 
L 622.120165 523.541416 
L 621.290083 521.098169 
L 621.013388 520.969931 
L 620.183306 519.633758 
L 619.906612 519.580445 
L 619.353223 519.059808 
L 618.52314 518.467608 
L 617.969752 518.579516 
L 617.693058 518.322079 
L 617.416364 518.599208 
L 616.862975 518.400847 
L 616.309587 518.24043 
L 616.032893 518.581437 
L 615.756198 518.695747 
L 615.20281 518.666929 
L 614.649421 518.06032 
L 614.096033 518.515157 
L 613.542645 518.578556 
L 613.26595 518.422941 
L 612.712562 518.861928 
L 611.882479 518.819662 
L 611.052397 519.126569 
L 610.499008 519.286506 
L 610.222314 519.592933 
L 608.838843 520.06506 
L 608.285455 520.423839 
L 608.00876 520.420476 
L 607.732066 520.653418 
L 607.455372 520.511252 
L 607.178678 520.59002 
L 606.625289 521.042935 
L 605.795207 521.081359 
L 605.241818 521.310938 
L 604.965124 521.163969 
L 604.68843 521.208156 
L 604.411736 521.608239 
L 604.135041 521.764815 
L 603.858347 521.676921 
L 602.75157 522.094775 
L 602.474876 522.094775 
L 601.091405 522.727801 
L 600.814711 522.954499 
L 598.877851 523.402611 
L 598.324463 523.469372 
L 598.047769 523.43335 
L 597.49438 523.951105 
L 596.940992 523.979923 
L 595.834215 524.512567 
L 594.450744 524.831481 
L 594.17405 524.872786 
L 593.343967 525.40447 
L 592.790579 525.325702 
L 592.23719 525.796388 
L 589.746942 526.731037 
L 588.91686 527.006244 
L 588.640165 527.303065 
L 588.363471 527.068202 
L 588.086777 527.238226 
L 587.810083 527.586437 
L 587.256694 527.670969 
L 586.98 527.993725 
L 585.873223 528.614743 
L 585.596529 528.753548 
L 585.04314 529.390415 
L 584.766446 529.440846 
L 584.489752 529.74247 
L 584.213058 529.799144 
L 583.936364 530.068588 
L 583.659669 530.114216 
L 583.106281 530.750603 
L 582.829587 530.676158 
L 582.552893 530.776059 
L 582.276198 530.689606 
L 581.999504 530.84474 
L 581.169421 531.009961 
L 580.892727 530.687204 
L 580.062645 530.537834 
L 579.232562 529.442767 
L 578.955868 529.39858 
L 578.679174 529.148348 
L 578.402479 528.654127 
L 578.125785 528.59361 
L 577.849091 528.178158 
L 577.572397 527.473569 
L 577.295702 527.371747 
L 576.742314 526.659473 
L 576.46562 526.281964 
L 575.082149 525.389581 
L 574.52876 524.802663 
L 573.975372 524.784893 
L 573.145289 525.008228 
L 572.868595 524.743107 
L 572.591901 524.71429 
L 572.315207 524.475584 
L 572.038512 524.46934 
L 571.761818 524.293073 
L 571.485124 524.416508 
L 571.20843 524.060131 
L 570.931736 524.086548 
L 570.655041 523.99193 
L 570.101653 523.364668 
L 569.824959 523.210975 
L 568.994876 522.158654 
L 568.718182 521.569336 
L 568.164793 521.043896 
L 567.888099 520.582815 
L 567.611405 519.789853 
L 567.334711 519.582847 
L 567.058017 518.989686 
L 566.781322 518.739934 
L 566.504628 518.014692 
L 566.227934 517.63334 
L 565.95124 517.536321 
L 565.674545 516.784184 
L 565.397851 516.375935 
L 565.121157 515.741949 
L 564.567769 515.292396 
L 563.460992 513.818859 
L 563.184298 513.751138 
L 562.077521 512.541281 
L 561.247438 512.12775 
L 560.970744 511.935153 
L 560.69405 511.963009 
L 560.417355 511.831409 
L 559.863967 511.853023 
L 559.033884 511.541793 
L 558.203802 511.463986 
L 557.927107 511.559564 
L 557.650413 511.53651 
L 557.097025 511.728627 
L 556.820331 511.615278 
L 556.266942 511.846298 
L 555.990248 511.70173 
L 555.713554 511.792025 
L 555.43686 511.762728 
L 555.160165 512.085964 
L 554.606777 512.158008 
L 553.5 512.78575 
L 552.669917 513.006204 
L 551.839835 513.286215 
L 550.733058 513.895225 
L 550.456364 513.826063 
L 548.796198 514.792411 
L 548.24281 514.929295 
L 547.412727 515.525818 
L 547.136033 515.679992 
L 546.859339 515.965765 
L 546.30595 516.293805 
L 545.475868 516.764011 
L 544.922479 517.263515 
L 544.369091 517.340362 
L 543.815702 517.807206 
L 543.262314 518.122278 
L 542.98562 518.251476 
L 542.432231 518.255319 
L 541.602149 518.759145 
L 540.218678 519.06221 
L 539.941983 519.114562 
L 539.665289 519.027149 
L 538.835207 519.112641 
L 538.281818 518.9796 
L 537.72843 518.9796 
L 537.175041 518.971435 
L 536.344959 519.133773 
L 535.79157 519.04636 
L 534.961488 519.183724 
L 534.408099 519.314363 
L 534.131405 519.377282 
L 533.301322 519.880148 
L 532.47124 520.277349 
L 529.980992 521.486725 
L 529.427603 521.747044 
L 529.150909 521.743682 
L 528.320826 522.202361 
L 527.767438 522.323395 
L 525.27719 523.748422 
L 524.723802 523.953026 
L 522.510248 525.415036 
L 522.233554 525.548077 
L 521.680165 525.940956 
L 520.573388 526.514905 
L 520.02 526.780027 
L 518.913223 527.259839 
L 517.529752 527.514874 
L 516.146281 527.555218 
L 515.869587 527.460601 
L 515.316198 527.556659 
L 514.486116 527.176748 
L 513.932727 527.018252 
L 511.165785 525.625884 
L 510.335702 525.003906 
L 510.059008 524.926579 
L 509.782314 524.63312 
L 509.228926 524.33774 
L 508.122149 523.375235 
L 507.292066 522.985237 
L 506.738678 522.405044 
L 506.461983 522.28257 
L 505.078512 521.161567 
L 503.971736 520.447373 
L 503.418347 519.710124 
L 502.864959 519.324449 
L 501.481488 517.957538 
L 500.651405 517.261114 
L 500.098017 516.681401 
L 499.267934 515.588736 
L 498.437851 514.688188 
L 497.607769 513.493701 
L 496.500992 511.975977 
L 495.670909 510.542305 
L 493.73405 507.3791 
L 493.457355 506.805151 
L 493.180661 506.578933 
L 492.350579 505.370517 
L 491.79719 504.654402 
L 490.967107 503.897461 
L 490.137025 503.470001 
L 489.860331 503.115065 
L 489.583636 503.211604 
L 488.753554 502.618443 
L 488.200165 502.468111 
L 486.816694 500.277018 
L 485.986612 498.203596 
L 483.773058 491.092869 
L 483.219669 489.253349 
L 480.176033 481.226224 
L 478.792562 478.654739 
L 477.962479 477.673982 
L 477.685785 477.490511 
L 477.409091 477.129331 
L 477.132397 477.001573 
L 476.302314 476.200926 
L 476.02562 476.114953 
L 474.918843 475.28837 
L 474.365455 475.059271 
L 474.08876 474.735074 
L 473.258678 474.165927 
L 469.661653 472.090584 
L 468.83157 471.805291 
L 468.278182 471.73853 
L 467.724793 471.545933 
L 465.51124 471.511352 
L 464.404463 471.799527 
L 463.851074 471.838431 
L 459.977355 472.563192 
L 459.423967 472.713043 
L 457.763802 472.986329 
L 457.210413 473.044445 
L 456.933719 473.182289 
L 456.380331 473.276426 
L 451.399835 474.966094 
L 450.569752 475.370981 
L 450.016364 475.56694 
L 449.462975 475.651471 
L 448.909587 475.954055 
L 445.035868 476.623103 
L 444.759174 476.86517 
L 443.929091 476.889185 
L 443.099008 477.305118 
L 441.438843 478.103844 
L 440.332066 478.724381 
L 439.778678 479.128307 
L 439.501983 479.160007 
L 438.948595 479.486605 
L 437.28843 480.353533 
L 436.458347 480.713272 
L 435.904959 480.859761 
L 435.628264 481.082136 
L 435.074876 481.147456 
L 433.691405 481.841478 
L 432.584628 482.2382 
L 432.03124 482.508124 
L 431.477851 482.496597 
L 430.924463 482.592175 
L 430.371074 482.537902 
L 429.540992 482.448088 
L 429.264298 482.330416 
L 428.987603 482.382768 
L 427.880826 482.021588 
L 427.604132 481.733413 
L 427.050744 481.533131 
L 426.77405 481.509596 
L 426.220661 481.091262 
L 425.943967 481.008171 
L 425.113884 480.378028 
L 424.83719 480.378508 
L 424.283802 480.034138 
L 424.007107 479.947206 
L 423.730413 479.624929 
L 423.453719 479.565854 
L 422.900331 479.234932 
L 422.623636 479.201792 
L 422.346942 479.01736 
L 422.070248 478.995747 
L 421.51686 478.643212 
L 420.963471 478.588939 
L 420.686777 478.317094 
L 420.133388 478.331022 
L 419.856694 478.034201 
L 419.026612 477.751309 
L 418.749917 477.553909 
L 418.196529 477.742664 
L 416.536364 477.002053 
L 416.259669 477.247002 
L 415.982975 477.077939 
L 415.429587 477.236916 
L 414.599504 476.842116 
L 414.32281 476.83203 
L 414.046116 476.627425 
L 413.492727 476.820022 
L 412.662645 476.617819 
L 412.109256 476.906955 
L 411.279174 477.120205 
L 411.002479 477.036154 
L 410.449091 477.42471 
L 410.172397 477.42471 
L 409.895702 477.655731 
L 409.619008 477.683588 
L 409.342314 477.558712 
L 408.788926 477.993857 
L 408.512231 477.906924 
L 408.235537 478.027958 
L 407.958843 478.018352 
L 407.682149 478.199422 
L 407.12876 478.158597 
L 406.298678 478.65714 
L 405.745289 478.604789 
L 405.468595 478.893925 
L 405.191901 478.828125 
L 404.915207 478.904491 
L 404.638512 479.139834 
L 404.085124 479.220043 
L 403.255041 479.338675 
L 402.978347 479.422246 
L 402.701653 479.273836 
L 401.87157 479.74116 
L 400.488099 479.88813 
L 399.381322 480.59464 
L 399.104628 480.470724 
L 398.55124 480.651794 
L 397.997851 480.790119 
L 396.891074 481.340053 
L 396.61438 481.347258 
L 395.507603 481.883744 
L 395.230909 481.865013 
L 394.400826 482.333778 
L 394.124132 482.241562 
L 393.847438 482.316487 
L 393.29405 482.671904 
L 391.080496 483.222319 
L 390.803802 483.418278 
L 390.250413 483.382736 
L 389.973719 483.942277 
L 389.697025 484.032572 
L 389.420331 483.93123 
L 388.866942 484.293851 
L 388.313554 484.24294 
L 388.03686 484.35821 
L 387.760165 484.285686 
L 387.483471 484.337557 
L 386.930083 484.963859 
L 386.1 484.906224 
L 385.823306 484.928797 
L 385.269917 485.352895 
L 384.993223 485.225618 
L 384.716529 485.264041 
L 384.439835 485.551736 
L 383.609752 485.797166 
L 382.779669 485.860084 
L 382.502975 486.175636 
L 382.226281 486.117521 
L 380.84281 486.587727 
L 380.289421 486.269773 
L 380.012727 486.393208 
L 379.736033 486.74094 
L 379.182645 486.819708 
L 378.90595 486.787528 
L 378.629256 487.023352 
L 378.352562 487.424396 
L 377.245785 487.274545 
L 376.692397 487.744751 
L 376.139008 487.714973 
L 375.58562 487.900366 
L 375.308926 488.406594 
L 375.032231 488.667873 
L 374.755537 488.336951 
L 374.478843 488.354722 
L 374.202149 488.584302 
L 373.64876 488.410916 
L 373.372066 488.012274 
L 373.095372 488.555004 
L 372.818678 488.732712 
L 372.541983 488.733673 
L 372.265289 489.101096 
L 371.711901 489.343164 
L 371.435207 489.461316 
L 371.158512 489.105899 
L 370.051736 489.018486 
L 369.775041 489.533359 
L 368.944959 489.754774 
L 368.668264 489.507904 
L 368.39157 490.014612 
L 368.114876 490.226902 
L 367.838182 490.227382 
L 367.561488 490.462245 
L 367.284793 490.127481 
L 367.008099 490.446875 
L 366.731405 490.286938 
L 366.178017 490.867611 
L 365.347934 490.344573 
L 365.07124 490.37195 
L 364.794545 490.171188 
L 364.517851 490.50403 
L 363.964463 491.477583 
L 363.687769 491.427152 
L 363.411074 490.890185 
L 363.13438 490.877217 
L 362.857686 491.100553 
L 362.304298 490.846959 
L 362.027603 490.998731 
L 361.750909 491.947789 
L 361.474215 491.280183 
L 361.197521 491.55587 
L 360.920826 491.55587 
L 360.644132 491.394492 
L 360.367438 491.561634 
L 360.090744 490.803252 
L 359.81405 490.709595 
L 359.537355 491.497755 
L 359.260661 491.343101 
L 358.983967 491.927136 
L 358.707273 491.647126 
L 358.430579 492.281592 
L 358.153884 491.8671 
L 357.87719 491.848849 
L 357.600496 491.620229 
L 357.323802 492.157677 
L 357.047107 490.929569 
L 356.770413 491.022746 
L 356.493719 490.99681 
L 356.217025 491.295072 
L 355.940331 491.06165 
L 355.663636 491.297953 
L 355.386942 489.78071 
L 354.833554 491.053965 
L 354.55686 492.795985 
L 354.280165 490.871454 
L 354.003471 490.359462 
L 353.726777 490.894508 
L 353.450083 491.843565 
L 353.173388 489.351329 
L 352.896694 489.790796 
L 352.62 487.62804 
L 352.343306 491.0458 
L 352.066612 490.574153 
L 351.789917 489.323472 
L 351.236529 489.062193 
L 350.959835 487.305284 
L 350.68314 488.676998 
L 350.406446 491.687951 
L 350.129752 487.779332 
L 349.576364 486.475819 
L 349.299669 486.692431 
L 349.022975 486.380241 
L 348.746281 487.860501 
L 348.469587 484.475882 
L 348.192893 486.774561 
L 347.916198 484.543123 
L 347.639504 485.57431 
L 347.36281 483.071027 
L 346.809421 485.002762 
L 346.532727 483.780418 
L 346.256033 484.135835 
L 345.979339 483.838534 
L 345.702645 480.550453 
L 345.42595 482.138779 
L 345.149256 482.243483 
L 344.872562 480.881854 
L 344.595868 480.576388 
L 344.319174 478.72246 
L 344.042479 480.853997 
L 343.489091 478.945796 
L 343.212397 479.920309 
L 342.935702 473.514651 
L 342.382314 479.597073 
L 342.10562 479.847305 
L 341.275537 474.793189 
L 340.998843 513.028778 
L 340.722149 513.720399 
L 340.445455 513.563343 
L 340.16876 513.86977 
L 339.892066 513.542691 
L 339.615372 513.478332 
L 339.338678 515.326016 
L 339.061983 514.705478 
L 338.785289 515.075784 
L 338.508595 515.859621 
L 338.231901 515.620916 
L 337.955207 516.032526 
L 337.678512 517.019046 
L 337.401818 516.961892 
L 337.125124 517.441704 
L 336.84843 517.284648 
L 336.295041 518.238028 
L 335.741653 518.552139 
L 334.91157 519.862857 
L 334.634876 519.991095 
L 333.804793 521.528511 
L 333.528099 521.747524 
L 333.251405 522.476127 
L 332.974711 522.327717 
L 332.698017 522.740769 
L 332.144628 524.04092 
L 331.867934 524.613428 
L 331.59124 524.710928 
L 331.037851 525.652781 
L 330.761157 526.086485 
L 330.484463 526.204156 
L 329.931074 527.621499 
L 329.377686 527.930327 
L 328.547603 529.884156 
L 328.270909 529.831324 
L 327.717521 531.011882 
L 327.440826 531.200637 
L 326.887438 532.075249 
L 326.057355 533.346583 
L 325.780661 534.103524 
L 325.227273 534.797546 
L 324.39719 536.453594 
L 324.120496 536.970388 
L 323.567107 537.650962 
L 323.290413 538.062573 
L 322.737025 539.100004 
L 322.460331 539.40547 
L 320.800165 542.19837 
L 319.970083 543.617153 
L 319.693388 544.313097 
L 319.14 545.034976 
L 316.096364 550.000238 
L 315.266281 550.960342 
L 314.159504 552.834443 
L 313.606116 553.548637 
L 312.776033 555.160018 
L 311.669256 556.902518 
L 311.392562 557.159475 
L 310.839174 558.095564 
L 310.009091 559.557574 
L 309.179008 560.604611 
L 308.902314 560.951863 
L 308.072231 562.403306 
L 306.965455 564.16886 
L 303.36843 570.233992 
L 301.708264 572.262746 
L 300.601488 573.875568 
L 298.664628 577.304855 
L 297.834545 578.583393 
L 297.004463 579.601612 
L 296.451074 580.154909 
L 295.620992 580.638083 
L 294.790909 581.500208 
L 294.237521 582.081362 
L 292.85405 584.204253 
L 291.747273 586.110534 
L 291.193884 586.724347 
L 290.363802 587.503861 
L 289.810413 587.719513 
L 289.257025 587.798281 
L 288.426942 587.980311 
L 288.150248 588.049954 
L 287.043471 589.023987 
L 285.936694 590.626242 
L 284.829917 592.379789 
L 284.276529 592.998405 
L 283.72314 593.409055 
L 283.446446 593.529128 
L 282.616364 593.469572 
L 281.509587 592.921559 
L 280.40281 592.749614 
L 279.849421 593.029624 
L 279.296033 593.59685 
L 278.46595 594.807186 
L 277.082479 597.005964 
L 276.529091 597.506429 
L 275.975702 597.638989 
L 275.699008 597.628423 
L 275.14562 597.24515 
L 274.868926 597.042466 
L 272.378678 593.49839 
L 271.825289 593.227505 
L 271.271901 593.264968 
L 270.718512 593.644398 
L 270.165124 594.462817 
L 269.058347 596.706742 
L 267.95157 598.899276 
L 267.398182 599.57889 
L 266.844793 599.864664 
L 266.291405 599.733544 
L 265.738017 599.136541 
L 264.907934 597.554938 
L 264.354545 596.180822 
L 261.587603 588.307871 
L 261.034215 587.142682 
L 260.204132 586.134548 
L 259.650744 585.837247 
L 259.097355 586.008712 
L 258.820661 586.201789 
L 258.267273 587.169098 
L 257.713884 588.170507 
L 256.883802 590.189176 
L 255.500331 594.381167 
L 253.840165 599.605306 
L 252.456694 603.348224 
L 251.349917 605.632974 
L 250.519835 606.912473 
L 249.689752 607.865853 
L 248.306281 608.709727 
L 247.752893 608.815391 
L 245.816033 609.018555 
L 245.262645 608.99406 
L 244.155868 609.138628 
L 243.049091 609.494044 
L 242.772397 609.533908 
L 241.942314 609.899891 
L 240.835537 610.201515 
L 236.685124 611.493021 
L 234.748264 611.052593 
L 232.534711 610.969022 
L 231.15124 611.075647 
L 229.21438 611.248552 
L 228.660992 611.216372 
L 225.617355 611.586197 
L 225.063967 611.619337 
L 220.63686 611.841713 
L 219.806777 611.908954 
L 219.253388 611.972352 
L 218.7 612.045357 
L 217.869917 612.092425 
L 207.908926 613.049648 
L 207.078843 613.155793 
L 206.802149 613.150029 
L 206.525455 613.293636 
L 206.24876 612.997776 
L 205.695372 612.977124 
L 205.418678 612.858492 
L 204.865289 613.325336 
L 204.035207 612.928614 
L 203.758512 613.203341 
L 203.481818 613.199499 
L 203.205124 613.383931 
L 202.651736 613.409387 
L 202.375041 613.876711 
L 202.098347 613.544349 
L 201.821653 613.487674 
L 201.544959 613.681713 
L 201.268264 613.230718 
L 200.99157 613.149549 
L 200.714876 613.244647 
L 200.161488 613.724459 
L 199.884793 613.413229 
L 199.608099 613.61255 
L 199.331405 613.361358 
L 199.054711 613.572686 
L 198.778017 613.46318 
L 198.501322 613.788818 
L 197.947934 613.289794 
L 197.67124 613.819556 
L 197.394545 613.777291 
L 197.117851 613.400261 
L 196.841157 613.366161 
L 196.564463 613.869507 
L 196.287769 613.51361 
L 196.011074 613.468943 
L 195.73438 613.581812 
L 195.457686 613.862302 
L 195.180992 614.435291 
L 194.904298 614.149037 
L 194.627603 614.141352 
L 194.350909 613.990541 
L 193.797521 614.332509 
L 193.520826 613.663942 
L 193.244132 614.141352 
L 192.967438 614.201389 
L 192.690744 614.080835 
L 192.41405 614.296967 
L 192.137355 614.142313 
L 191.860661 614.380538 
L 191.583967 614.405513 
L 191.030579 614.849303 
L 190.753884 614.389183 
L 189.923802 614.938157 
L 189.647107 614.754205 
L 188.817025 614.960731 
L 188.540331 614.740277 
L 188.263636 614.881963 
L 187.986942 614.759008 
L 187.15686 615.097614 
L 186.880165 614.917505 
L 186.603471 615.166296 
L 186.326777 615.028932 
L 185.773388 615.331036 
L 184.943306 615.033255 
L 184.666612 615.292613 
L 184.389917 614.908859 
L 184.113223 614.886766 
L 183.836529 615.341122 
L 183.559835 615.142762 
L 183.006446 615.385309 
L 182.729752 615.14036 
L 182.176364 615.265717 
L 181.899669 615.451109 
L 181.346281 615.243623 
L 181.069587 615.585591 
L 180.792893 615.593756 
L 180.516198 615.224411 
L 180.239504 615.6 
L 179.96281 615.462636 
L 179.686116 615.496257 
L 179.409421 615.248426 
L 179.132727 615.48473 
L 178.856033 615.431417 
L 178.579339 615.582229 
L 178.302645 615.203279 
L 178.02595 615.412206 
L 177.472562 615.262835 
L 177.195868 615.359854 
L 176.919174 615.275803 
L 176.642479 614.946802 
L 176.089091 614.980903 
L 175.812397 614.527988 
L 175.535702 615.026051 
L 175.259008 614.649502 
L 174.982314 614.881963 
L 174.70562 614.71242 
L 173.045455 615.170619 
L 173.045455 615.170619 
" clip-path="url(#p17910ddb2b)" style="fill: none; stroke: #1f77b4; stroke-width: 1.5; stroke-linecap: square"/>
   </g>
   <g id="patch_3">
    <path d="M 135 640.8 
L 135 86.4 
" style="fill: none; stroke: #000000; stroke-width: 0.8; stroke-linejoin: miter; stroke-linecap: square"/>
   </g>
   <g id="patch_4">
    <path d="M 972 640.8 
L 972 86.4 
" style="fill: none; stroke: #000000; stroke-width: 0.8; stroke-linejoin: miter; stroke-linecap: square"/>
   </g>
   <g id="patch_5">
    <path d="M 135 640.8 
L 972 640.8 
" style="fill: none; stroke: #000000; stroke-width: 0.8; stroke-linejoin: miter; stroke-linecap: square"/>
   </g>
   <g id="patch_6">
    <path d="M 135 86.4 
L 972 86.4 
" style="fill: none; stroke: #000000; stroke-width: 0.8; stroke-linejoin: miter; stroke-linecap: square"/>
   </g>
   <g id="legend_1">
    <g id="patch_7">
     <path d="M 916.55 109.078125 
L 965 109.078125 
Q 967 109.078125 967 107.078125 
L 967 93.4 
Q 967 91.4 965 91.4 
L 916.55 91.4 
Q 914.55 91.4 914.55 93.4 
L 914.55 107.078125 
Q 914.55 109.078125 916.55 109.078125 
z
" style="fill: #ffffff; opacity: 0.8; stroke: #cccccc; stroke-linejoin: miter"/>
    </g>
    <g id="line2d_26">
     <path d="M 918.55 99.498438 
L 928.55 99.498438 
L 938.55 99.498438 
" style="fill: none; stroke: #1f77b4; stroke-width: 1.5; stroke-linecap: square"/>
    </g>
    <g id="text_15">
     <!-- %R -->
     <g transform="translate(946.55 102.998438) scale(0.1 -0.1)">
      <use xlink:href="#DejaVuSans-25"/>
      <use xlink:href="#DejaVuSans-52" x="95.019531"/>
     </g>
    </g>
   </g>
  </g>
 </g>
 <defs>
  <clipPath id="p17910ddb2b">
   <rect x="135" y="86.4" width="837" height="554.4"/>
  </clipPath>
 </defs>
</svg>
